<svg width="339" height="298" viewBox="0 0 339 298" fill="none" xmlns="http://www.w3.org/2000/svg">
<g clip-path="url(#clip0_1006_10150)">
<path d="M208.851 6C152.593 6 107 51.5801 107 107.822C107 164.063 152.593 209.643 208.851 209.643C265.109 209.643 310.702 164.063 310.702 107.822C310.702 51.5801 265.109 6 208.851 6ZM208.851 7.16202C264.469 7.16202 309.539 52.2192 309.539 107.822C309.539 163.424 264.469 208.481 208.851 208.481C153.232 208.481 108.162 163.395 108.162 107.822C108.162 52.2482 153.232 7.16202 208.851 7.16202Z" fill="#82D293"/>
<path d="M111.851 35C55.5932 35 10 80.5801 10 136.822C10 193.063 55.5932 238.643 111.851 238.643C168.109 238.643 213.702 193.063 213.702 136.822C213.702 80.5801 168.109 35 111.851 35ZM111.851 36.162C167.469 36.162 212.539 81.2192 212.539 136.822C212.539 192.424 167.469 237.481 111.851 237.481C56.2325 237.481 11.1623 192.395 11.1623 136.822C11.1623 81.2482 56.2325 36.162 111.851 36.162Z" fill="#82D293"/>
<path d="M166.455 297.87C248.579 297.87 315.153 231.189 315.153 148.935C315.153 66.6804 248.579 0 166.455 0C84.3306 0 17.7559 66.6804 17.7559 148.935C17.7559 231.189 84.3306 297.87 166.455 297.87Z" fill="#D5F0DB"/>
<path d="M24.7291 231.904L90.0787 209.978L59.9173 120L9.40516 137.054L0 158.168L24.7291 231.904Z" fill="white" stroke="#2FB44B" stroke-width="2.66667" stroke-miterlimit="10" stroke-linecap="round" stroke-linejoin="round"/>
<path d="M9.40516 137.054L14.8374 153.214L0 158.168L9.40516 137.054Z" fill="#2FB44B"/>
<path opacity="0.3" d="M9.40516 137.054L14.8374 153.214L0 158.168L17.0266 154.595L9.40516 137.054Z" fill="#99B5C6"/>
<path opacity="0.5" d="M45.3557 153.374L63.0342 147.427L62.1306 144.732L44.4522 150.679L45.3557 153.374Z" fill="#2FB44B"/>
<path opacity="0.5" d="M34.5733 160.29L64.0117 150.387L63.5729 149.078L34.1344 158.981L34.5733 160.29Z" fill="#2FB44B"/>
<path opacity="0.5" d="M51.628 211.329L81.0664 201.426L80.6275 200.117L51.1891 210.02L51.628 211.329Z" fill="#2FB44B"/>
<path opacity="0.5" d="M65.0985 209.596L81.9297 203.932L81.4907 202.623L64.6595 208.288L65.0985 209.596Z" fill="#2FB44B"/>
<path opacity="0.5" d="M15.3403 179.463L67.7607 161.829L66.9605 159.443L14.54 177.077L15.3403 179.463Z" fill="#2FB44B"/>
<path opacity="0.5" d="M16.9477 184.291L69.3682 166.656L68.5679 164.27L16.1474 181.904L16.9477 184.291Z" fill="#2FB44B"/>
<path opacity="0.5" d="M18.6333 189.092L71.0537 171.458L70.2534 169.071L17.833 186.706L18.6333 189.092Z" fill="#2FB44B"/>
<path opacity="0.5" d="M20.2267 193.861L72.6416 176.227L71.8413 173.841L19.4264 191.475L20.2267 193.861Z" fill="#2FB44B"/>
<path opacity="0.5" d="M21.8217 198.668L74.2422 181.034L73.4419 178.648L21.0215 196.282L21.8217 198.668Z" fill="#2FB44B"/>
<path opacity="0.5" d="M23.434 203.494L75.8545 185.86L75.0542 183.474L22.6338 201.108L23.434 203.494Z" fill="#2FB44B"/>
<path opacity="0.5" d="M25.0395 208.322L77.46 190.688L76.6597 188.302L24.2392 205.936L25.0395 208.322Z" fill="#2FB44B"/>
<path opacity="0.5" d="M26.6508 213.147L79.0713 195.513L78.271 193.126L25.8506 210.761L26.6508 213.147Z" fill="#2FB44B"/>
<path opacity="0.5" d="M35.3701 162.541L64.8086 152.637L64.3697 151.329L34.9313 161.232L35.3701 162.541Z" fill="#2FB44B"/>
<path opacity="0.5" d="M36.1231 164.892L65.5615 154.989L65.1227 153.681L35.6842 163.584L36.1231 164.892Z" fill="#2FB44B"/>
<path d="M301.533 47.4256C301.533 40.1169 295.614 34.1887 288.317 34.1887C285.398 34.1887 282.722 35.1632 280.533 36.7062C280.533 36.5438 280.533 36.4626 280.533 36.3001C280.533 22.9009 269.669 12.019 256.291 12.019C244.048 12.019 233.913 21.1143 232.291 32.8894C229.454 30.2096 225.562 28.5854 221.346 28.5854C212.508 28.5854 205.292 35.8129 205.292 44.6645C205.292 53.3538 212.103 60.3376 220.697 60.6625H288.803C295.938 60.3376 301.533 54.5719 301.533 47.4256Z" fill="#82D293" stroke="#2FB44B" stroke-width="2.66667" stroke-miterlimit="10" stroke-linecap="round" stroke-linejoin="round"/>
<path d="M333.999 114.563C333.999 110.421 330.674 107.092 326.62 107.092C324.999 107.092 323.458 107.66 322.242 108.553C322.242 108.472 322.242 108.391 322.242 108.31C322.242 100.757 316.161 94.6667 308.621 94.6667C301.729 94.6667 296.054 99.7828 295.162 106.361C293.54 104.818 291.432 103.924 289 103.924C284.054 103.924 280 107.985 280 112.938C280 117.811 283.811 121.79 288.675 121.953H326.945C330.836 121.79 333.999 118.542 333.999 114.563Z" fill="#C1E9C9" stroke="#2FB44B" stroke-width="2.66667" stroke-miterlimit="10" stroke-linecap="round" stroke-linejoin="round"/>
<path d="M35.3512 61.3119C34.2161 61.3119 33.3242 60.4186 33.3242 59.2817V52.1354C33.3242 50.9985 34.2161 50.1052 35.3512 50.1052H126.646C127.781 50.1052 128.673 50.9985 128.673 52.1354V59.2817C128.673 60.4186 127.781 61.3119 126.646 61.3119H35.3512Z" fill="#D5F0DB"/>
<path d="M126.645 50.9984C127.294 50.9984 127.862 51.5669 127.862 52.2165V59.2816C127.862 59.9313 127.294 60.4997 126.645 60.4997H35.3505C34.7018 60.4997 34.1343 59.9313 34.1343 59.2816V52.1353C34.1343 51.4857 34.7018 50.9172 35.3505 50.9172H126.645M126.645 49.3743H35.3505C33.81 49.3743 32.5127 50.5924 32.5127 52.2165V59.2816C32.5127 60.8246 33.7289 62.1239 35.3505 62.1239H126.645C128.186 62.1239 129.483 60.9058 129.483 59.2816V52.1353C129.402 50.5924 128.186 49.3743 126.645 49.3743Z" fill="#2FB44B"/>
<path d="M35.3512 47.1005C34.2161 47.1005 33.3242 46.2072 33.3242 45.0703V37.924C33.3242 36.7871 34.2161 35.8938 35.3512 35.8938H126.646C127.781 35.8938 128.673 36.7871 128.673 37.924V45.0703C128.673 46.2072 127.781 47.1005 126.646 47.1005H35.3512Z" fill="#D5F0DB"/>
<path d="M126.645 36.7059C127.294 36.7059 127.862 37.2744 127.862 37.9241V45.0703C127.862 45.72 127.294 46.2884 126.645 46.2884H35.3505C34.7018 46.2884 34.1343 45.72 34.1343 45.0703V37.9241C34.1343 37.2744 34.7018 36.7059 35.3505 36.7059H126.645ZM126.645 35.0818H35.3505C33.81 35.0818 32.5127 36.2999 32.5127 37.9241V45.0703C32.5127 46.6133 33.7289 47.9126 35.3505 47.9126H126.645C128.186 47.9126 129.483 46.6945 129.483 45.0703V37.9241C129.402 36.3811 128.186 35.0818 126.645 35.0818Z" fill="#2FB44B"/>
<path d="M35.3512 32.808C34.2161 32.808 33.3242 31.9147 33.3242 30.7778V23.6315C33.3242 22.4946 34.2161 21.6013 35.3512 21.6013H126.646C127.781 21.6013 128.673 22.4946 128.673 23.6315V30.859C128.673 31.9959 127.781 32.8892 126.646 32.8892H35.3512V32.808Z" fill="#C1E9C9"/>
<path d="M126.645 22.4945C127.294 22.4945 127.862 23.063 127.862 23.7126V30.8589C127.862 31.5086 127.294 32.077 126.645 32.077H35.3505C34.7018 32.077 34.1343 31.5086 34.1343 30.8589V23.7126C34.1343 23.063 34.7018 22.4945 35.3505 22.4945H126.645ZM126.645 20.8704H35.3505C33.81 20.8704 32.5127 22.0885 32.5127 23.7126V30.8589C32.5127 32.4019 33.7289 33.7012 35.3505 33.7012H126.645C128.186 33.7012 129.483 32.4831 129.483 30.8589V23.7126C129.402 22.1697 128.186 20.8704 126.645 20.8704Z" fill="#2FB44B"/>
<path d="M39.8095 29.3162H37.7825C37.215 29.3162 36.7285 28.8289 36.7285 28.2605V26.2303C36.7285 25.6618 37.215 25.1746 37.7825 25.1746H39.8095C40.3771 25.1746 40.8635 25.6618 40.8635 26.2303V28.2605C40.8635 28.9101 40.3771 29.3162 39.8095 29.3162Z" fill="#2FB44B"/>
<path d="M39.8095 43.6086H37.7825C37.215 43.6086 36.7285 43.1214 36.7285 42.5529V40.5227C36.7285 39.9543 37.215 39.467 37.7825 39.467H39.8095C40.3771 39.467 40.8635 39.9543 40.8635 40.5227V42.5529C40.8635 43.1214 40.3771 43.6086 39.8095 43.6086Z" fill="#2FB44B"/>
<path d="M39.8095 57.8201H37.7825C37.215 57.8201 36.7285 57.3328 36.7285 56.7644V54.7342C36.7285 54.1657 37.215 53.6785 37.7825 53.6785H39.8095C40.3771 53.6785 40.8635 54.1657 40.8635 54.7342V56.7644C40.8635 57.3328 40.3771 57.8201 39.8095 57.8201Z" fill="#2FB44B"/>
<path opacity="0.3" d="M166.293 252.719C208.699 252.719 243.075 249.119 243.075 244.679C243.075 240.239 208.699 236.639 166.293 236.639C123.888 236.639 89.5117 240.239 89.5117 244.679C89.5117 249.119 123.888 252.719 166.293 252.719Z" fill="#82D293"/>
<path opacity="0.3" d="M66.322 161.197L61.6194 210.653C61.2951 213.982 64.2139 216.662 67.5382 216.094L83.754 213.008L69.2408 209.191L66.322 161.197Z" fill="#99B5C6"/>
<path d="M200.995 209.191H131.43V241.349H200.995V209.191Z" fill="white"/>
<path d="M222.238 244.029C222.238 244.76 221.67 245.41 220.859 245.41H111.565C110.835 245.41 110.187 244.841 110.187 244.029V238.67C110.187 237.939 110.754 237.289 111.565 237.289H220.859C221.589 237.289 222.238 237.858 222.238 238.67V244.029Z" fill="white"/>
<path d="M266.183 209.678C266.183 211.465 264.723 212.926 262.94 212.926H69.5664C67.7827 212.926 66.3232 211.465 66.3232 209.678V80.8015C66.3232 79.015 67.7827 77.5532 69.5664 77.5532H262.859C264.642 77.5532 266.102 79.015 266.102 80.8015V209.678H266.183Z" fill="white"/>
<path opacity="0.3" d="M200.995 212.927H131.105V218.286H200.995V212.927Z" fill="#99B5C6"/>
<path opacity="0.3" d="M200.995 235.908H131.105V237.289H200.995V235.908Z" fill="#99B5C6"/>
<path d="M262.453 81.6138H70.1338V201.152H262.453V81.6138Z" fill="#EAF7ED"/>
<path opacity="0.5" d="M262.534 81.6138H70.1338V83.8064H262.534V81.6138Z" fill="#9ABAD8"/>
<path opacity="0.3" d="M220.94 245.329H111.484C110.835 245.329 110.268 244.76 110.268 244.111V244.029H222.238V244.111C222.238 244.76 221.67 245.329 220.94 245.329Z" fill="#99B5C6"/>
<path d="M166.293 209.191C167.502 209.191 168.482 208.209 168.482 206.999C168.482 205.788 167.502 204.806 166.293 204.806C165.084 204.806 164.104 205.788 164.104 206.999C164.104 208.209 165.084 209.191 166.293 209.191Z" fill="#0A1D35"/>
<path opacity="0.2" d="M258.392 81.6135H74.1932C71.9507 81.6135 70.1328 83.4314 70.1328 85.6739C70.1328 87.9164 71.9507 89.7343 74.1932 89.7343H258.392C260.634 89.7343 262.452 87.9164 262.452 85.6739C262.452 83.4314 260.634 81.6135 258.392 81.6135Z" fill="white"/>
<path d="M83.144 87.0548C83.9052 87.0548 84.5223 86.4367 84.5223 85.6742C84.5223 84.9118 83.9052 84.2937 83.144 84.2937C82.3827 84.2937 81.7656 84.9118 81.7656 85.6742C81.7656 86.4367 82.3827 87.0548 83.144 87.0548Z" fill="#2FB44B"/>
<path d="M78.9272 87.0548C79.6884 87.0548 80.3055 86.4367 80.3055 85.6742C80.3055 84.9118 79.6884 84.2937 78.9272 84.2937C78.1659 84.2937 77.5488 84.9118 77.5488 85.6742C77.5488 86.4367 78.1659 87.0548 78.9272 87.0548Z" fill="#FCA31D"/>
<path d="M74.7113 87.0548C75.4726 87.0548 76.0897 86.4367 76.0897 85.6742C76.0897 84.9118 75.4726 84.2937 74.7113 84.2937C73.9501 84.2937 73.333 84.9118 73.333 85.6742C73.333 86.4367 73.9501 87.0548 74.7113 87.0548Z" fill="#FD5B37"/>
<path d="M236.658 195C233.334 195 230.076 195 226.752 195C220.569 195 215.384 190.89 214.254 185.083C213.057 179.276 216.182 173.665 221.833 171.251C222.364 171.055 222.564 170.729 222.697 170.207C224.891 164.205 231.007 160.42 237.257 161.073C243.905 161.791 249.024 166.553 249.955 172.947C250.021 173.535 250.221 173.861 250.886 174.122C256.005 176.014 258.797 181.038 257.8 186.322C256.869 191.281 252.282 194.935 247.03 195C243.506 195 240.115 195 236.658 195ZM241.977 179.537C241.578 179.537 241.246 179.537 240.913 179.537C240.182 179.537 239.583 179.798 239.251 180.516C238.919 181.233 239.185 181.821 239.716 182.343C240.714 183.321 241.644 184.235 242.642 185.213C243.373 185.931 244.171 185.996 244.902 185.344C246.032 184.365 247.096 183.321 248.093 182.212C248.758 181.494 248.692 180.581 247.96 179.994C247.495 179.602 246.963 179.537 246.365 179.602C245.5 179.733 245.168 179.407 244.969 178.558C243.506 173.339 237.722 170.533 232.603 172.425C231.473 172.817 231.007 173.665 231.34 174.578C231.672 175.492 232.536 175.753 233.6 175.361C233.733 175.296 233.932 175.231 234.065 175.231C237.522 174.187 241.113 176.144 241.977 179.537ZM235.993 190.368C237.323 190.368 238.586 190.107 239.783 189.585C240.514 189.193 240.847 188.541 240.581 187.758C240.315 186.975 239.583 186.583 238.719 186.779C238.453 186.844 238.254 186.91 237.988 187.04C234.996 188.019 231.738 186.714 230.342 183.908C229.744 182.799 229.81 182.734 231.007 182.734C231.738 182.734 232.337 182.473 232.669 181.755C232.935 181.103 232.736 180.516 232.27 179.994C231.273 179.015 230.276 178.036 229.279 177.058C228.547 176.405 227.75 176.275 227.085 176.927C225.954 177.971 224.824 179.08 223.761 180.19C222.896 181.168 223.561 182.538 224.824 182.669C225.09 182.669 225.423 182.734 225.689 182.669C226.353 182.604 226.686 182.799 226.885 183.517C228.015 187.562 231.738 190.368 235.993 190.368Z" fill="#2FB44B"/>
<path d="M150.138 104.935H132.894C132.346 104.935 131.867 104.455 131.867 103.907V101.028C131.867 100.48 132.346 100 132.894 100H150.138C150.686 100 151.165 100.48 151.165 101.028V103.907C151.165 104.524 150.686 104.935 150.138 104.935Z" fill="#D5F0DB"/>
<path d="M197.493 104.935H159.787C159.24 104.935 158.761 104.455 158.761 103.907V101.028C158.761 100.48 159.24 100 159.787 100H197.493C198.04 100 198.519 100.48 198.519 101.028V103.907C198.519 104.524 198.04 104.935 197.493 104.935Z" fill="#D5F0DB"/>
<path d="M178.88 114.934H132.962C132.415 114.934 131.936 114.454 131.936 113.906V111.027C131.936 110.479 132.415 109.999 132.962 109.999H178.88C179.427 109.999 179.906 110.479 179.906 111.027V113.906C179.838 114.454 179.427 114.934 178.88 114.934Z" fill="#D5F0DB"/>
<path d="M205.157 114.934H188.528C187.981 114.934 187.502 114.454 187.502 113.906V111.027C187.502 110.479 187.981 109.999 188.528 109.999H205.157C205.705 109.999 206.184 110.479 206.184 111.027V113.906C206.184 114.454 205.705 114.934 205.157 114.934Z" fill="#D5F0DB"/>
<path d="M163.072 124.933H132.894C132.346 124.933 131.867 124.453 131.867 123.905V121.026C131.867 120.478 132.346 119.998 132.894 119.998H163.072C163.619 119.998 164.098 120.478 164.098 121.026V123.905C164.03 124.453 163.619 124.933 163.072 124.933Z" fill="#D5F0DB"/>
<path d="M196.535 124.933H172.721C172.173 124.933 171.694 124.453 171.694 123.905V121.026C171.694 120.478 172.173 119.998 172.721 119.998H196.535C197.082 119.998 197.561 120.478 197.561 121.026V123.905C197.561 124.453 197.082 124.933 196.535 124.933Z" fill="#D5F0DB"/>
<path d="M171.421 134.932H132.962C132.415 134.932 131.936 134.452 131.936 133.904V131.025C131.936 130.477 132.415 129.997 132.962 129.997H171.421C171.968 129.997 172.447 130.477 172.447 131.025V133.904C172.379 134.52 171.968 134.932 171.421 134.932Z" fill="#D5F0DB"/>
<path d="M200.23 134.932H181.069C180.522 134.932 180.043 134.452 180.043 133.904V131.025C180.043 130.477 180.522 129.997 181.069 129.997H200.23C200.778 129.997 201.257 130.477 201.257 131.025V133.904C201.257 134.52 200.846 134.932 200.23 134.932Z" fill="#D5F0DB"/>
<path d="M162.045 144.931H132.894C132.346 144.931 131.867 144.451 131.867 143.903V141.024C131.867 140.476 132.346 139.996 132.894 139.996H162.045C162.593 139.996 163.072 140.476 163.072 141.024V143.903C163.072 144.451 162.593 144.931 162.045 144.931Z" fill="#D5F0DB"/>
<path d="M196.535 144.931H171.694C171.147 144.931 170.668 144.451 170.668 143.903V141.024C170.668 140.476 171.147 139.996 171.694 139.996H196.535C197.083 139.996 197.562 140.476 197.562 141.024V143.903C197.562 144.451 197.083 144.931 196.535 144.931Z" fill="#D5F0DB"/>
<path d="M181.206 154.93H132.894C132.346 154.93 131.867 154.45 131.867 153.901V151.023C131.867 150.474 132.346 149.995 132.894 149.995H181.206C181.754 149.995 182.233 150.474 182.233 151.023V153.901C182.233 154.518 181.754 154.93 181.206 154.93Z" fill="#D5F0DB"/>
<path d="M200.162 154.93H190.856C190.308 154.93 189.829 154.45 189.829 153.901V151.023C189.829 150.474 190.308 149.995 190.856 149.995H200.162C200.71 149.995 201.189 150.474 201.189 151.023V153.901C201.189 154.518 200.778 154.93 200.162 154.93Z" fill="#D5F0DB"/>
<path d="M159.308 164.929H132.894C132.346 164.929 131.867 164.449 131.867 163.9V161.022C131.867 160.473 132.346 159.994 132.894 159.994H159.308C159.856 159.994 160.335 160.473 160.335 161.022V163.9C160.335 164.449 159.856 164.929 159.308 164.929Z" fill="#D5F0DB"/>
<path d="M251.458 120H215.208C214.564 120 214 119.466 214 118.855V101.145C214 100.534 214.564 100 215.208 100H251.458C252.103 100 252.667 100.534 252.667 101.145V118.931C252.667 119.542 252.103 120 251.458 120Z" fill="#D5F0DB"/>
<path d="M251.702 146.61H215.216C214.568 146.61 214 146.041 214 145.392V126.551C214 125.902 214.568 125.333 215.216 125.333H251.702C252.35 125.333 252.918 125.902 252.918 126.551V145.473C252.918 146.122 252.35 146.61 251.702 146.61Z" fill="#D5F0DB"/>
<path d="M117.077 118.482H80.5912C79.9426 118.482 79.375 117.913 79.375 117.264V96.7994C79.375 96.1498 79.9426 95.5813 80.5912 95.5813H117.077C117.725 95.5813 118.293 96.1498 118.293 96.7994V117.264C118.293 117.913 117.725 118.482 117.077 118.482Z" fill="#D5F0DB"/>
<path d="M117.077 144.063H80.5912C79.9426 144.063 79.375 143.494 79.375 142.844V124.004C79.375 123.355 79.9426 122.786 80.5912 122.786H117.077C117.725 122.786 118.293 123.355 118.293 124.004V142.926C118.293 143.575 117.725 144.063 117.077 144.063Z" fill="#D5F0DB"/>
<path d="M117.077 169.276H80.5912C79.9426 169.276 79.375 168.708 79.375 168.058V149.218C79.375 148.568 79.9426 148 80.5912 148H117.077C117.725 148 118.293 148.568 118.293 149.218V168.14C118.293 168.789 117.725 169.276 117.077 169.276Z" fill="#D5F0DB"/>
<rect x="79" y="174" width="122" height="22" rx="2" fill="#C5EACD"/>
<g clip-path="url(#clip1_1006_10150)">
<path d="M173.966 111.78C175.176 112.072 175.797 113.013 176.353 113.987C181.39 122.624 186.395 131.294 191.432 139.93C192.021 140.937 192.446 141.976 192.446 143.112C187.474 143.112 182.535 143.112 177.564 143.112C176.975 143.112 176.353 142.95 175.863 143.405C175.765 143.34 175.634 143.307 175.536 143.242C175.47 143.047 175.47 142.82 175.372 142.658C172.167 137.203 168.961 131.748 165.756 126.261C165.756 126.131 165.756 126.034 165.756 125.904C168.601 121.261 171.414 116.585 173.966 111.78Z" fill="#FEB901"/>
<path d="M165.756 125.903C165.756 126.033 165.756 126.131 165.756 126.261C165.331 126.942 164.873 127.624 164.48 128.306C161.635 133.144 158.789 137.95 155.976 142.787C155.845 142.885 155.747 143.015 155.616 143.112C150.481 143.112 145.379 143.112 140.243 143.08C140.014 142.69 139.655 142.755 139.295 142.787C139.229 142.722 139.164 142.658 139.099 142.625C139.164 141.619 139.589 140.774 140.08 139.93C145.117 131.293 150.154 122.624 155.191 113.955C155.747 112.948 156.467 112.104 157.546 111.649C159.967 116.585 162.845 121.26 165.756 125.903Z" fill="#01AB47"/>
<path d="M184.072 157.561C183.516 158.081 182.829 158.275 182.077 158.308C181.619 157.853 181.063 158.048 180.539 158.048C170.694 158.048 160.816 158.048 150.971 158.048C150.448 158.048 149.859 157.886 149.434 158.308C148.812 158.308 148.224 158.178 147.766 157.723C147.831 157.399 147.798 157.042 147.962 156.782C149.597 153.925 151.2 151.035 152.934 148.242C153.948 146.587 154.602 144.736 156.008 143.34H155.943C156.368 143.957 157.022 143.729 157.578 143.729C162.975 143.762 168.405 143.762 173.802 143.729C174.554 143.729 175.306 143.762 176.026 144.021C178.74 148.535 181.39 153.048 184.072 157.561Z" fill="#2683FB"/>
<path d="M184.072 157.561C181.39 153.048 178.707 148.535 176.025 144.021C175.96 143.827 175.895 143.664 175.829 143.469C176.32 142.982 176.974 143.177 177.53 143.177C182.502 143.177 187.441 143.177 192.412 143.177C192.576 144.379 192.052 145.385 191.496 146.392C189.763 149.444 187.997 152.496 186.198 155.515C185.707 156.327 185.151 157.204 184.072 157.561Z" fill="#E94636"/>
<path d="M156.008 143.34C154.569 144.736 153.948 146.587 152.934 148.242C151.2 151.035 149.598 153.925 147.962 156.782C147.799 157.042 147.831 157.399 147.766 157.723C146.621 157.464 146 156.555 145.444 155.645C143.546 152.463 141.682 149.249 139.818 146.035C139.294 145.125 139 144.184 139 143.145C139.098 143.145 139.164 143.112 139.262 143.08C139.589 143.08 139.916 143.08 140.243 143.08C145.378 143.08 150.481 143.08 155.616 143.112L155.779 143.145H155.943C155.976 143.177 156.008 143.275 156.008 143.34Z" fill="#0167D8"/>
<path d="M165.756 125.903C162.845 121.26 159.966 116.585 157.546 111.649C158.135 111.26 158.822 111.065 159.541 111C159.999 111.422 160.555 111.26 161.111 111.26C164.055 111.26 166.999 111.292 169.91 111.26C170.597 111.26 171.316 111.52 171.938 111C172.69 111 173.344 111.292 173.933 111.779C171.414 116.585 168.601 121.26 165.756 125.903Z" fill="#01832D"/>
<path d="M149.401 158.308C149.859 157.853 150.415 158.048 150.939 158.048C160.784 158.048 170.662 158.048 180.507 158.048C181.03 158.048 181.619 157.853 182.044 158.308C171.185 158.308 160.293 158.308 149.401 158.308Z" fill="#0078FB"/>
<path d="M171.971 111C171.349 111.52 170.597 111.26 169.943 111.26C166.999 111.292 164.055 111.292 161.144 111.26C160.621 111.26 160.032 111.422 159.574 111C163.695 111 167.817 111 171.971 111Z" fill="#007200"/>
<path d="M155.943 143.34C162.485 143.307 168.994 143.307 175.536 143.275C175.634 143.34 175.765 143.372 175.863 143.437C175.928 143.632 175.994 143.794 176.059 143.989C175.339 143.762 174.587 143.697 173.835 143.697C168.438 143.697 163.008 143.697 157.611 143.697C157.023 143.729 156.369 143.989 155.943 143.34Z" fill="#017EFB"/>
<path d="M139.263 143.08C139.263 142.982 139.263 142.885 139.263 142.788C139.622 142.755 139.982 142.723 140.211 143.08C139.917 143.08 139.59 143.08 139.263 143.08Z" fill="#00AD32"/>
<path d="M155.976 142.788C155.943 142.917 155.943 143.015 155.91 143.145H155.747L155.583 143.112C155.714 142.982 155.845 142.885 155.976 142.788Z" fill="#00AD32"/>
</g>
</g>
<defs>
<clipPath id="clip0_1006_10150">
<rect width="339" height="298" fill="white"/>
</clipPath>
<clipPath id="clip1_1006_10150">
<rect width="53.4783" height="47.3077" fill="white" transform="translate(139 111)"/>
</clipPath>
</defs>
</svg>
