<svg width="154" height="100" viewBox="0 0 154 100" fill="none" xmlns="http://www.w3.org/2000/svg">
<path d="M103.925 18.3077L117.965 90.1938L119.789 99.6046L26.1501 99.1301C21.946 99.0906 18.2179 95.3737 16.8694 89.8775L0.251595 22.0246C-0.779587 17.8332 1.48108 13.4836 4.65394 13.4836L99.4034 13.6023C101.545 13.5627 103.37 15.5002 103.925 18.3077Z" fill="#C1E9C9"/>
<path d="M35.1161 85.3302L45.0313 5.69395C45.4279 2.41202 48.0455 0 51.139 0L72.8731 0.0790814C74.4992 0.0790814 76.0063 0.751285 77.1565 1.97707L87.4683 12.93L147.911 13.2463C151.6 13.2463 154.455 16.7655 153.94 20.6801L144.738 94.3061C144.342 97.5484 141.724 100 138.67 100L33.3314 99.8023C21.5918 100.04 20.4813 96.5994 20.4813 96.5994C33.9263 99.486 35.1161 85.3302 35.1161 85.3302Z" fill="#82D293"/>
<rect width="29.4065" height="3.06438" transform="matrix(0.708463 0.705748 0.708463 -0.705748 83.6699 49.0112)" fill="white"/>
<rect width="30.1678" height="3.06438" transform="matrix(-0.708463 0.705748 0.708463 0.705748 104.447 46.8484)" fill="white"/>
</svg>
