<svg width="475" height="323" viewBox="0 0 475 323" fill="none" xmlns="http://www.w3.org/2000/svg">
<path d="M445.769 169.327C448.318 174.27 448.139 180.352 446.31 185.478C444.482 190.605 441.02 195.141 437.02 199.042C429.368 206.462 417.865 210.97 407.363 213.241C405.406 201.613 412.427 189.681 416.492 183.875C422.829 174.754 439.684 162.044 445.769 169.327Z" fill="#82D293"/>
<path d="M404.127 233.356C406.812 227.754 412.954 224.35 419.156 224.089C425.358 223.829 431.399 226.649 435.82 230.928C437.881 232.964 439.671 235.524 439.573 238.382C439.396 241.097 437.222 243.238 434.857 244.362C432.414 245.342 429.638 245.386 426.989 244.985C417.87 243.684 409.275 240.971 404.127 233.356Z" fill="#82D293"/>
<path d="M374.623 251.203C374.623 251.203 375.258 250.664 376.242 249.744C377.369 248.746 378.925 247.509 380.829 245.893C384.718 242.802 390.147 238.11 397.556 235.31C404.744 232.447 412.104 231.919 417.116 232.879C419.622 233.36 421.62 233.935 422.888 234.54C423.554 234.732 424.077 235.002 424.378 235.209C424.68 235.416 424.902 235.48 424.902 235.48C424.838 235.702 422.064 234.062 416.989 233.324C412.056 232.506 404.918 233.099 397.73 235.962C390.543 238.825 385.178 243.295 381.067 246.322C379.083 247.796 377.385 249.111 376.401 250.031C375.337 250.807 374.623 251.203 374.623 251.203Z" fill="#263238"/>
<path d="M433.799 180.073C433.799 180.073 433.592 180.375 433.322 180.899C432.909 181.501 432.353 182.183 431.734 183.088C430.353 184.975 428.209 187.846 425.573 191.177C420.38 197.982 413.092 207.07 404.677 217.157C396.405 227.165 388.593 235.983 382.941 242.294C380.084 245.561 377.702 248.003 376.099 249.827C375.257 250.667 374.702 251.349 374.21 251.809C373.717 252.269 373.511 252.57 373.432 252.427C373.432 252.427 373.638 252.126 373.988 251.745C374.4 251.142 375.035 250.603 375.798 249.62C377.401 247.796 379.703 245.211 382.418 242.023C387.991 235.569 395.58 226.687 403.996 216.6C412.268 206.592 419.699 197.425 424.971 190.763C427.606 187.432 429.686 184.784 431.29 182.96C431.909 182.056 432.608 181.294 433.1 180.835C433.513 180.232 433.719 179.93 433.799 180.073Z" fill="#263238"/>
<path d="M388.123 228.39C394.81 217.204 395.505 202.611 389.963 190.914C388.522 187.974 386.114 184.635 382.831 184.773C379.547 184.911 377.355 188.369 376.322 191.56C371.98 204.623 376.519 220.241 387.345 229.008" fill="#82D293"/>
<path d="M384.705 199.62C384.705 199.62 385.101 200.335 385.735 201.48C386.051 202.052 386.304 202.846 386.637 203.784C386.969 204.721 387.301 205.659 387.57 206.818C387.839 207.978 388.329 209.202 388.534 210.584C388.882 211.886 389.024 213.491 389.165 215.095C389.448 218.303 389.445 221.67 388.871 225.353C388.297 229.037 387.342 232.37 386.15 235.274C385.483 236.766 384.879 238.036 384.132 239.384C383.528 240.654 382.766 241.637 382.083 242.764C381.543 243.811 380.702 244.651 380.146 245.333C379.59 246.015 379.034 246.697 378.542 247.157C377.558 248.077 377.145 248.68 377.066 248.537C376.987 248.393 379.019 246.332 381.703 242.414C382.243 241.367 383.005 240.383 383.609 239.114C384.292 237.987 384.817 236.575 385.484 235.083C386.676 232.178 387.631 228.845 388.141 225.384C388.572 221.78 388.718 218.334 388.514 215.268C388.373 213.664 388.168 212.282 387.963 210.9C387.758 209.518 387.41 208.216 387.141 207.056C385.845 202.353 384.562 199.699 384.705 199.62Z" fill="#263238"/>
<path d="M116.954 277.901C116.989 277.887 117.017 277.856 117.052 277.842C117.306 277.62 117.339 277.244 117.118 276.989C99.394 256.061 85.3663 243.575 71.6596 236.489C63.7998 232.437 56.1419 230.221 48.2518 229.71C39.9932 229.184 31.6789 230.556 22.8499 233.886C22.5365 234.01 22.3718 234.358 22.4958 234.672C22.6199 234.986 22.9669 235.151 23.2803 235.027C58.9204 221.558 86.1774 242.367 116.183 277.782C116.391 278.002 116.714 278.056 116.954 277.901Z" fill="#82D293"/>
<path d="M59.7898 232.167C50.5879 219.669 31.1545 218.418 15.9135 234.309C37.3979 246.973 51.1723 238.479 59.7898 232.167Z" fill="#2FB44B"/>
<path d="M59.7898 232.167C44.4493 228.793 26.6059 231.009 15.9135 234.309C31.1545 218.418 50.5879 219.669 59.7898 232.167Z" fill="#82D293"/>
<path d="M170.861 266.204C182.625 192.727 90.0473 163.64 63.5774 171.789C55.8533 243.365 139.125 280.691 139.125 280.691L170.861 266.204Z" fill="#82D293"/>
<path d="M139.125 280.691C139.125 280.691 55.8533 243.365 63.5774 171.789C114.966 218.233 146.158 251.303 162.607 269.972L139.125 280.691Z" fill="#299941"/>
<path d="M136.445 274.206C122.698 255.296 103.447 242.274 75.1589 255.196C74.8312 287.599 124.077 288.759 124.077 288.759L136.445 274.206Z" fill="#82D293"/>
<path d="M124.093 288.752C124.093 288.752 74.8472 287.592 75.1749 255.188C75.1749 255.188 114.37 271.518 132.191 279.236L124.093 288.752Z" fill="#2FB44B"/>
<path d="M253.559 321.5C252.221 321.5 250.888 321.482 249.559 321.445L249.518 322.944C246.816 322.87 244.133 322.72 241.47 322.498L241.595 321.003C238.931 320.781 236.289 320.486 233.669 320.119L233.461 321.604C230.788 321.23 228.138 320.782 225.515 320.262L225.806 318.79C223.188 318.272 220.596 317.681 218.031 317.021L217.657 318.474C215.045 317.801 212.461 317.056 209.908 316.243L210.364 314.813C207.823 314.003 205.312 313.123 202.835 312.176L202.299 313.577C199.783 312.615 197.3 311.584 194.854 310.486L195.468 309.117C193.037 308.027 190.642 306.87 188.286 305.648L187.595 306.98C185.206 305.742 182.855 304.438 180.546 303.071L181.31 301.78C179.019 300.424 176.769 299.006 174.563 297.527L173.727 298.773C171.493 297.275 169.303 295.717 167.159 294.099L168.063 292.902C165.939 291.299 163.861 289.638 161.832 287.92L160.863 289.065C158.81 287.329 156.808 285.536 154.857 283.688L155.888 282.599C153.957 280.771 152.077 278.888 150.25 276.955L149.16 277.985C147.315 276.032 145.524 274.027 143.79 271.973L144.936 271.005C143.221 268.974 141.562 266.895 139.961 264.768L138.763 265.671C137.148 263.525 135.592 261.334 134.096 259.098L135.343 258.264C133.867 256.056 132.451 253.804 131.097 251.512L129.805 252.274C128.441 249.964 127.14 247.612 125.903 245.221L127.236 244.532C126.017 242.175 124.862 239.779 123.773 237.347L122.404 237.96C121.308 235.513 120.279 233.029 119.319 230.512L120.72 229.977C119.775 227.499 118.897 224.988 118.088 222.446L116.659 222.901C115.847 220.348 115.104 217.763 114.432 215.151L115.885 214.777C115.226 212.213 114.637 209.62 114.12 207.001L112.648 207.292C112.13 204.668 111.682 202.019 111.309 199.346L112.794 199.138C112.428 196.518 112.133 193.875 111.912 191.212L110.417 191.336C110.195 188.673 110.046 185.99 109.972 183.289L111.471 183.247C111.434 181.918 111.416 180.585 111.416 179.247C111.416 177.91 111.434 176.576 111.471 175.248L109.972 175.206C110.046 172.505 110.195 169.821 110.417 167.159L111.912 167.283C112.133 164.62 112.428 161.977 112.794 159.357L111.309 159.149C111.682 156.476 112.13 153.827 112.648 151.203L114.12 151.493C114.637 148.875 115.226 146.282 115.885 143.718L114.432 143.344C115.104 140.731 115.847 138.147 116.659 135.594L118.088 136.049C118.897 133.507 119.775 130.996 120.72 128.518L119.319 127.983C120.279 125.466 121.308 122.982 122.404 120.535L123.773 121.148C124.862 118.716 126.017 116.32 127.236 113.962L125.903 113.273C127.14 110.882 128.441 108.531 129.805 106.22L131.097 106.983C132.451 104.69 133.867 102.439 135.343 100.231L134.096 99.3972C135.592 97.1611 137.148 94.9693 138.763 92.8242L139.961 93.7264C141.562 91.6003 143.221 89.5204 144.936 87.4894L143.79 86.5217C145.524 84.4675 147.315 82.4627 149.16 80.5097L150.25 81.5397C152.077 79.6063 153.957 77.7241 155.888 75.8956L154.857 74.8063C156.808 72.959 158.811 71.1659 160.863 69.4293L161.832 70.5744C163.861 68.8572 165.939 67.1959 168.063 65.5929L167.159 64.3956C169.303 62.7781 171.493 61.2194 173.727 59.7217L174.563 60.9677C176.769 59.4889 179.019 58.0704 181.31 56.7143L180.546 55.4235C182.855 54.0569 185.206 52.7532 187.595 51.5147L188.286 52.8465C190.642 51.6253 193.037 50.4681 195.468 49.3773L194.854 48.0088C197.3 46.9112 199.783 45.8801 202.299 44.9177L202.835 46.3188C205.312 45.3715 207.823 44.4916 210.364 43.6813L209.908 42.2522C212.461 41.4382 215.045 40.6938 217.657 40.0211L218.031 41.4737C220.596 40.8134 223.188 40.2229 225.806 39.7043L225.515 38.2329C228.138 37.7132 230.788 37.2651 233.461 36.8906L233.669 38.3761C236.289 38.009 238.931 37.7134 241.595 37.4913L241.47 35.9965C244.133 35.7745 246.816 35.6251 249.518 35.5504L249.559 37.0498C250.888 37.0131 252.221 36.9946 253.559 36.9946C254.896 36.9946 256.23 37.0131 257.558 37.0498L257.6 35.5504C260.302 35.6251 262.985 35.7745 265.647 35.9965L265.522 37.4913C268.186 37.7134 270.829 38.009 273.448 38.3761L273.656 36.8906C276.329 37.2651 278.979 37.7132 281.603 38.2329L281.311 39.7043C283.929 40.2228 286.522 40.8134 289.086 41.4737L289.46 40.0211C292.073 40.6938 294.656 41.4382 297.209 42.2522L296.753 43.6813C299.295 44.4916 301.805 45.3715 304.282 46.3188L304.818 44.9177C307.335 45.88 309.817 46.9112 312.263 48.0088L311.649 49.3773C314.08 50.4681 316.475 51.6253 318.832 52.8465L319.522 51.5147C321.912 52.7532 324.262 54.0569 326.571 55.4235L325.807 56.7143C328.098 58.0704 330.348 59.4889 332.555 60.9677L333.39 59.7217C335.624 61.2194 337.815 62.7781 339.958 64.3956L339.054 65.5929C341.179 67.1959 343.257 68.8572 345.286 70.5744L346.255 69.4293C348.307 71.1659 350.31 72.959 352.261 74.8063L351.229 75.8956C353.161 77.7241 355.041 79.6063 356.867 81.5397L357.957 80.5097C359.802 82.4627 361.593 84.4675 363.328 86.5217L362.182 87.4894C363.896 89.5205 365.555 91.6003 367.156 93.7264L368.354 92.8242C369.969 94.9693 371.526 97.1611 373.021 99.3972L371.774 100.231C373.251 102.439 374.667 104.69 376.021 106.983L377.312 106.22C378.676 108.531 379.978 110.882 381.214 113.273L379.882 113.962C381.101 116.32 382.256 118.716 383.344 121.148L384.714 120.535C385.809 122.982 386.838 125.466 387.799 127.983L386.397 128.518C387.342 130.996 388.221 133.507 389.029 136.049L390.459 135.594C391.271 138.147 392.014 140.731 392.685 143.344L391.232 143.717C391.891 146.282 392.48 148.875 392.998 151.493L394.469 151.203C394.988 153.826 395.435 156.476 395.809 159.149L394.323 159.357C394.689 161.977 394.984 164.619 395.206 167.283L396.701 167.159C396.922 169.821 397.071 172.504 397.146 175.206L395.646 175.248C395.683 176.576 395.701 177.91 395.701 179.247C395.701 180.585 395.683 181.918 395.646 183.247L397.146 183.288C397.071 185.99 396.922 188.673 396.701 191.336L395.206 191.212C394.984 193.875 394.689 196.518 394.323 199.138L395.809 199.346C395.435 202.019 394.988 204.668 394.469 207.292L392.998 207.001C392.48 209.62 391.891 212.213 391.232 214.777L392.685 215.151C392.014 217.763 391.271 220.348 390.459 222.901L389.029 222.446C388.221 224.988 387.342 227.499 386.397 229.977L387.799 230.512C386.838 233.029 385.809 235.512 384.714 237.96L383.344 237.347C382.256 239.779 381.101 242.175 379.882 244.532L381.214 245.221C379.978 247.612 378.676 249.964 377.312 252.274L376.021 251.512C374.667 253.804 373.251 256.056 371.774 258.264L373.021 259.098C371.526 261.334 369.969 263.525 368.354 265.671L367.156 264.768C365.555 266.895 363.896 268.974 362.181 271.005L363.328 271.973C361.593 274.027 359.802 276.032 357.957 277.985L356.867 276.955C355.041 278.888 353.161 280.771 351.229 282.599L352.261 283.688C350.31 285.536 348.307 287.329 346.255 289.065L345.286 287.92C343.257 289.638 341.179 291.299 339.054 292.902L339.958 294.099C337.814 295.717 335.624 297.275 333.39 298.773L332.555 297.527C330.348 299.006 328.098 300.424 325.807 301.78L326.571 303.071C324.262 304.438 321.912 305.742 319.522 306.98L318.832 305.648C316.475 306.87 314.08 308.027 311.649 309.117L312.263 310.486C309.817 311.584 307.335 312.615 304.818 313.577L304.282 312.176C301.805 313.123 299.295 314.003 296.753 314.813L297.209 316.243C294.656 317.056 292.073 317.801 289.46 318.474L289.086 317.021C286.522 317.681 283.929 318.272 281.311 318.79L281.603 320.262C278.979 320.782 276.33 321.23 273.657 321.604L273.448 320.119C270.829 320.486 268.186 320.781 265.523 321.003L265.647 322.498C262.985 322.72 260.302 322.87 257.6 322.944L257.558 321.445C256.23 321.482 254.896 321.5 253.559 321.5Z" fill="#EAF7ED" stroke="#2FB44B" stroke-width="3" stroke-dasharray="8 8"/>
<ellipse rx="42.9535" ry="42.959" transform="matrix(0.949658 0.313289 -0.312856 0.9498 170.589 54.2593)" fill="#C1E9C9"/>
<g clip-path="url(#clip0_1016_13298)">
<path d="M176.838 69.7314C172.157 71.5161 167.461 73.3061 162.779 75.0909C160.411 75.9938 158.622 75.2136 157.732 72.8777C155.884 68.0295 154.041 63.1949 152.193 58.3467C151.339 56.106 152.172 54.2953 154.457 53.4241C163.876 49.8335 173.295 46.2429 182.713 42.6524C184.999 41.7811 186.817 42.5968 187.671 44.8375C189.524 49.6993 191.377 54.5611 193.236 59.4365C194.09 61.6772 193.257 63.4879 190.986 64.3538C186.262 66.1544 181.548 67.9361 176.838 69.7314Z" fill="#2FB44B"/>
<path d="M150.505 53.8734C149.857 52.1759 149.255 50.679 148.717 49.1422C148.113 47.4748 148.967 45.594 150.655 44.9038C152.648 44.0974 154.661 43.3453 156.68 42.6069C157.53 42.2984 158.375 42.3497 159.207 42.7013C160.039 43.053 160.885 43.3993 161.699 43.7886C162.243 44.0482 162.762 44.0369 163.33 43.8204C169.031 41.6314 174.75 39.5291 180.42 37.2586C182.746 36.3255 185.284 37.1155 185.868 40.3144C184.085 39.7968 182.478 40.4093 180.844 41.0323C172.164 44.3567 163.493 47.6621 154.803 50.9592C153.155 51.5876 151.548 52.2001 150.505 53.8734Z" fill="#2FB44B"/>
</g>
<ellipse rx="32.226" ry="32.2213" transform="matrix(0.68996 0.72411 -0.723307 0.690252 375.706 81.1873)" fill="#C1E9C9"/>
<path d="M391.457 84.6395C391.458 82.2165 389.494 80.2686 387.098 80.2686C386.14 80.2686 385.229 80.6012 384.51 81.1238C384.51 81.0763 384.51 81.0288 384.51 80.9813C384.512 76.5629 380.919 72.9998 376.463 72.9998C372.39 72.9998 369.035 75.9928 368.507 79.8411C367.549 78.9384 366.303 78.4158 364.866 78.4158C361.943 78.4158 359.546 80.7912 359.545 83.6893C359.544 86.5398 361.795 88.8678 364.67 88.9628L387.287 88.9628C389.587 88.8678 391.456 86.9674 391.457 84.6395Z" fill="#82D293" stroke="#2FB44B" stroke-width="2" stroke-miterlimit="10" stroke-linecap="round" stroke-linejoin="round"/>
<ellipse cx="151.65" cy="277.824" rx="37.4662" ry="37.4766" fill="#C1E9C9"/>
<g clip-path="url(#clip1_1016_13298)">
<path d="M148.931 291.933C144.84 291.933 140.749 291.933 136.643 291.933C135.68 291.933 134.856 291.681 134.326 290.814C134.13 290.492 134.102 290.212 134.284 289.835C136.308 285.625 138.305 281.415 140.302 277.191C140.874 276.002 141.838 275.373 143.122 275.373C151.011 275.359 158.9 275.345 166.775 275.373C169.135 275.387 170.406 277.569 169.345 279.695C167.641 283.135 165.91 286.548 164.234 289.989C163.592 291.317 162.6 291.919 161.134 291.919C157.071 291.919 152.994 291.933 148.931 291.933Z" fill="#2FB44B"/>
<path d="M134.018 285.387C134.018 279.051 134.018 272.716 134.018 266.38C134.018 265.135 134.911 264.198 136.168 264.184C139.03 264.156 141.893 264.17 144.755 264.184C145.551 264.17 146.165 264.575 146.626 265.219C147.254 266.114 147.911 266.981 148.525 267.89C148.762 268.24 149.014 268.366 149.433 268.366C153.454 268.352 157.475 268.352 161.497 268.352C163.312 268.352 164.122 269.163 164.122 270.995C164.122 271.653 164.108 272.296 164.122 272.953C164.122 273.247 164.024 273.387 163.717 273.359C163.549 273.345 163.395 273.359 163.228 273.359C156.246 273.359 149.265 273.387 142.298 273.345C140.594 273.331 139.505 274.016 138.807 275.555C137.383 278.66 135.889 281.723 134.423 284.814C134.325 285.009 134.227 285.219 134.115 285.415C134.087 285.401 134.059 285.401 134.018 285.387Z" fill="#2FB44B"/>
</g>
<path d="M250.382 95.7036C203.964 95.7036 166.346 133.322 166.346 179.74C166.346 226.157 203.964 263.775 250.382 263.775C296.8 263.775 334.419 226.157 334.419 179.74C334.419 133.322 296.8 95.7036 250.382 95.7036ZM250.382 96.6627C296.273 96.6627 333.46 133.849 333.46 179.74C333.46 225.63 296.273 262.816 250.382 262.816C204.492 262.816 167.305 225.606 167.305 179.74C167.305 133.873 204.492 96.6627 250.382 96.6627Z" fill="white"/>
<ellipse cx="250.917" cy="178.848" rx="74.2098" ry="74.2304" fill="#C1E9C9"/>
<g clip-path="url(#clip2_1016_13298)">
<path d="M248.967 156.9C244.646 154.7 242.906 151.474 243.866 147.72C244.676 144.493 247.737 142.117 251.188 142C254.579 141.912 257.79 144.2 258.75 147.397C259.89 151.181 258.27 154.348 253.919 156.842C254.399 157.34 255.059 157.135 255.599 157.282C260.67 158.484 264.301 162.825 264.452 167.958C264.602 172.417 264.331 172.68 259.77 172.68C253.559 172.68 247.377 172.68 241.165 172.68C238.915 172.68 238.224 171.977 238.194 169.777C238.134 163.617 240.775 159.393 245.846 157.634C246.807 157.34 247.797 157.194 248.967 156.9Z" fill="#2FB44B"/>
<path d="M228.292 201.19C229.312 201.425 230.092 201.542 230.842 201.748C235.524 203.068 238.794 207.086 239.064 211.808C239.124 212.776 239.124 213.774 239.094 214.742C239.034 216.12 238.284 216.971 236.844 216.971C229.612 217 222.35 217 215.118 216.971C214.008 216.971 213.107 216.355 212.987 215.269C212.417 210.107 213.888 204.534 220.399 202.012C221.36 201.63 222.35 201.425 223.37 201.102C219.019 198.492 217.459 195.295 218.659 191.57C219.679 188.402 222.95 186.144 226.281 186.29C229.792 186.437 232.823 188.93 233.543 192.244C234.353 195.94 232.523 199.167 228.292 201.19Z" fill="#2FB44B"/>
<path d="M278.705 201.308C285.367 201.806 290.439 206.822 289.718 214.888C289.598 216.208 288.788 216.971 287.468 216.971C280.206 217 272.974 217 265.712 216.971C264.631 216.971 263.731 216.384 263.611 215.269C262.921 209.227 265.202 204.124 271.293 201.924C272.164 201.601 273.124 201.484 274.384 201.19C272.133 200.34 270.573 199.079 269.643 197.172C268.713 195.236 268.623 193.212 269.403 191.188C270.543 188.138 273.814 186.085 277.025 186.319C280.626 186.583 283.477 189.047 284.167 192.567C284.887 196.087 283.086 199.079 278.705 201.308Z" fill="#2FB44B"/>
<path d="M223.1 178.605C221.6 178.576 220.489 177.374 220.759 176.024C222.11 169.043 225.381 163.001 230.602 158.015C231.562 157.076 232.973 157.164 233.813 158.044C234.743 158.983 234.683 160.185 233.573 161.3C230.002 164.82 227.421 168.955 225.981 173.707C225.681 174.734 225.471 175.79 225.201 176.816C224.87 177.931 224.12 178.547 223.1 178.605Z" fill="#2FB44B"/>
<path d="M281.915 176.141C281.945 177.491 281.105 178.517 279.935 178.576C278.584 178.664 277.744 177.96 277.474 176.699C277.084 174.792 276.544 172.915 275.793 171.096C274.293 167.489 272.162 164.292 269.342 161.505C268.051 160.215 267.901 158.895 268.922 157.927C269.942 156.959 271.262 157.135 272.583 158.455C277.384 163.236 280.415 168.955 281.825 175.496C281.885 175.76 281.915 176.024 281.915 176.141Z" fill="#2FB44B"/>
<path d="M251.247 201.249C247.917 201.308 244.676 200.809 241.495 199.9C239.784 199.401 239.064 198.345 239.484 197.055C239.904 195.705 241.045 195.177 242.725 195.676C248.547 197.348 254.338 197.26 260.13 195.559C261.66 195.119 262.921 195.676 263.281 196.937C263.641 198.228 262.951 199.313 261.42 199.783C258.089 200.78 254.728 201.278 251.247 201.249Z" fill="#2FB44B"/>
</g>
<ellipse cx="375.549" cy="255.024" rx="36.4183" ry="36.4284" fill="#C1E9C9"/>
<g clip-path="url(#clip3_1016_13298)">
<path d="M361.032 264.109C362.376 263.711 363.189 262.884 363.977 261.985C366.762 258.832 369.559 255.716 372.356 252.569C373.6 251.172 374.707 250.949 376.352 251.756C380.641 253.86 384.918 255.958 389.207 258.061C391.315 259.095 391.703 261.047 390.199 262.882C387.724 265.896 385.243 268.922 382.768 271.936C381.616 273.331 380.412 273.599 378.797 272.822C372.924 269.942 367.063 267.067 361.032 264.109Z" fill="#2FB44B"/>
<path d="M356.784 261.458C356.05 260.118 356.065 258.916 356.677 257.668C359.661 251.581 362.645 245.493 365.635 239.393C365.877 238.899 366.107 238.399 366.362 237.911C367.167 236.391 368.827 235.781 370.344 236.509C372.854 237.71 375.345 238.947 377.843 240.172C378.452 240.471 378.898 240.95 379.167 241.572C379.461 242.268 379.761 242.951 380.037 243.653C380.471 244.739 381.21 245.515 382.245 246.023C383.86 246.799 385.456 247.582 387.058 248.384C388.782 249.245 389.352 250.826 388.554 252.609C388.142 253.51 387.7 254.381 387.252 255.264C387.174 255.425 387.144 255.701 386.833 255.595C386.529 255.507 386.589 255.291 386.619 255.046C386.792 253.645 386.284 252.553 385.108 251.777C384.876 251.633 384.718 251.524 384.765 251.15C384.98 249.57 384.35 248.357 382.949 247.67C378.916 245.661 374.895 243.659 370.825 241.724C368.699 240.727 366.517 241.602 365.458 243.763C362.692 249.406 359.931 255.037 357.165 260.68C357.062 260.89 356.953 261.113 356.784 261.458Z" fill="#2FB44B"/>
<path d="M361.181 262.788C363.614 257.824 365.951 253.027 368.311 248.241C369.147 246.537 370.679 246.033 372.366 246.845C376.308 248.763 380.25 250.712 384.186 252.642C384.88 252.983 385.344 253.486 385.468 254.282C385.486 254.459 385.578 254.673 385.426 254.798C385.25 254.941 385.091 254.741 384.945 254.669C382.259 253.366 379.584 252.039 376.903 250.725C374.722 249.655 373.129 249.976 371.497 251.795C368.578 255.066 365.66 258.337 362.742 261.608C362.335 262.067 361.91 262.502 361.181 262.788Z" fill="#2FB44B"/>
<path d="M383.567 251.006C381.788 250.133 380.07 249.291 378.339 248.442C376.609 247.593 374.861 246.813 373.167 245.89C370.846 244.613 368.268 245.463 367.082 248.036C364.861 252.814 362.469 257.507 360.151 262.237C359.673 263.212 359.582 263.244 358.546 262.89C357.614 262.57 357.584 262.479 358.014 261.602C360.786 255.946 363.558 250.291 366.331 244.635C367.36 242.536 368.758 242.058 370.829 243.074C374.631 244.938 378.42 246.797 382.222 248.661C383.294 249.157 383.698 249.845 383.567 251.006Z" fill="#2FB44B"/>
</g>
<defs>
<clipPath id="clip0_1016_13298">
<rect width="37.9715" height="32.5479" fill="white" transform="matrix(0.934198 -0.356129 0.356259 0.934626 147.514 46.0701)"/>
</clipPath>
<clipPath id="clip1_1016_13298">
<rect width="35.7031" height="27.7768" fill="white" transform="translate(134.018 264.156)"/>
</clipPath>
<clipPath id="clip2_1016_13298">
<rect width="76.941" height="75" fill="white" transform="translate(212.838 142)"/>
</clipPath>
<clipPath id="clip3_1016_13298">
<rect width="32.5306" height="28.921" fill="white" transform="matrix(0.897823 0.440356 -0.440159 0.89792 367.693 235.194)"/>
</clipPath>
</defs>
</svg>
