<svg width="24" height="24" viewBox="0 0 24 24" fill="none" xmlns="http://www.w3.org/2000/svg">
<path d="M2.04844 9.24834L6 5.29678L9.95156 9.24834C10.4203 9.71709 11.1797 9.71709 11.6484 9.24834C12.1172 8.77959 12.1172 8.02022 11.6484 7.55147L6.84844 2.75146C6.37969 2.28271 5.62031 2.28271 5.15156 2.75146L0.351562 7.55147C-0.117188 8.02022 -0.117188 8.77959 0.351562 9.24834C0.820312 9.71709 1.57969 9.71709 2.04844 9.24834ZM4.8 3.5999V20.3999C4.8 21.0608 5.33906 21.5999 6 21.5999C6.66094 21.5999 7.2 21.0608 7.2 20.3999V3.5999C7.2 2.93896 6.66094 2.3999 6 2.3999C5.33906 2.3999 4.8 2.93896 4.8 3.5999Z" fill="#3D3D3D"/>
<path d="M21.9516 14.7515L18 18.703L14.0484 14.7515C13.5797 14.2827 12.8203 14.2827 12.3516 14.7515C11.8828 15.2202 11.8828 15.9796 12.3516 16.4483L17.1516 21.2483C17.3766 21.4733 17.6859 21.5999 18 21.5999C18.3141 21.5999 18.6234 21.4733 18.8484 21.2483L23.6484 16.4483C24.1172 15.9796 24.1172 15.2202 23.6484 14.7515C23.1797 14.2827 22.4203 14.2827 21.9516 14.7515ZM19.2 20.3999V3.5999C19.2 2.93896 18.6609 2.3999 18 2.3999C17.3391 2.3999 16.8 2.93896 16.8 3.5999V20.3999C16.8 21.0608 17.3391 21.5999 18 21.5999C18.6609 21.5999 19.2 21.0608 19.2 20.3999Z" fill="#3D3D3D"/>
</svg>
