<svg width="48" height="48" viewBox="0 0 48 48" fill="none" xmlns="http://www.w3.org/2000/svg">
<rect width="48" height="48" rx="24" fill="#FFBAB6"/>
<g clip-path="url(#clip0_932_7464)">
<path d="M24.0116 18.6885C26.3536 18.6885 28.6955 18.6885 31.0374 18.6885C31.9367 18.6885 32.1615 18.9227 32.1615 19.8314C32.1615 23.8407 32.1147 27.8501 32.1803 31.8595C32.2177 34.192 30.3723 36.0562 28.0397 36C25.3231 35.9344 22.6065 35.9906 19.8992 35.9813C17.5105 35.9813 15.8524 34.3325 15.843 31.9344C15.843 27.8782 15.843 23.822 15.843 19.7658C15.843 18.9321 16.0866 18.6885 16.939 18.6885C19.2997 18.6885 21.6603 18.6885 24.0116 18.6885ZM22.0538 27.3162C22.0538 26.0984 22.0538 24.8806 22.0538 23.6628C22.0538 22.9883 21.6885 22.5855 21.0983 22.5761C20.4988 22.5667 20.0772 22.9883 20.0772 23.6628C20.0678 26.1171 20.0678 28.5621 20.0772 31.0164C20.0772 31.6815 20.5175 32.1405 21.0889 32.1218C21.651 32.103 22.0444 31.6628 22.0444 31.0164C22.0538 29.7892 22.0538 28.5527 22.0538 27.3162ZM25.9601 27.3162C25.9601 28.5527 25.9601 29.7799 25.9601 31.0164C25.9601 31.6628 26.3536 32.103 26.9156 32.1218C27.4964 32.1405 27.9273 31.6815 27.9273 31.0164C27.9367 28.5621 27.9367 26.1171 27.9273 23.6628C27.9273 22.9883 27.5151 22.5667 26.9062 22.5761C26.3161 22.5855 25.9601 22.9789 25.9601 23.6628C25.9507 24.8806 25.9601 26.0984 25.9601 27.3162Z" fill="#FF2828"/>
<path d="M23.9929 17.7799C21.3044 17.7799 18.6252 17.7799 15.9367 17.7799C15.1124 17.7799 15.0093 17.6768 15.0093 16.8337C15.0093 16.3185 14.9625 15.7939 15.0468 15.2974C15.2529 14.0609 16.2552 13.274 17.5761 13.2553C18.5597 13.2459 19.5433 13.2459 20.5269 13.2553C20.8173 13.2553 20.9765 13.2365 20.9953 12.8806C21.0234 12.3279 21.3981 12.0187 21.9601 12.0187C23.3184 12.0094 24.6768 12.0094 26.0351 12.0187C26.6252 12.0187 26.9812 12.3279 27.028 12.9087C27.0561 13.1991 27.1405 13.2646 27.4215 13.2646C28.5925 13.274 29.7634 13.171 30.925 13.3208C32.1241 13.4707 32.9859 14.5012 33.0046 15.7096C33.014 16.178 33.014 16.6464 33.0046 17.1148C32.9953 17.6112 32.836 17.7892 32.3302 17.7986C31.5807 17.808 30.8313 17.7986 30.0819 17.7986C28.0491 17.7799 26.0163 17.7799 23.9929 17.7799Z" fill="#FF2828"/>
</g>
<defs>
<clipPath id="clip0_932_7464">
<rect width="17.9953" height="24" fill="white" transform="translate(15 12)"/>
</clipPath>
</defs>
</svg>
