<svg width="42" height="42" viewBox="0 0 42 42" fill="none" xmlns="http://www.w3.org/2000/svg">
<circle cx="21" cy="21" r="21" fill="#2FB44B"/>
<g clip-path="url(#clip0_858_911)">
<path d="M27.1064 13.1798C27.0032 12.6899 26.8398 12.2774 26.8398 11.8649C26.8398 10.7993 27.7342 9.97432 28.7921 10.0001C29.8413 10.0259 30.6842 10.8938 30.6756 11.9509C30.667 13.0251 29.7897 13.9017 28.7147 13.8501C28.3448 13.8329 28.1384 13.9532 27.9234 14.2024C27.0118 15.2079 26.0829 16.2048 25.2401 17.1157C25.3433 17.6399 25.5067 18.0782 25.4895 18.5165C25.4551 19.5735 24.5262 20.3642 23.4684 20.304C22.4019 20.2353 21.5677 19.3157 21.6881 18.2415C21.7311 17.8634 21.6107 17.6743 21.3269 17.4767C20.7936 17.1157 20.2862 16.7204 19.7788 16.3251C19.6068 16.1876 19.4692 16.1446 19.2456 16.2563C18.7037 16.5313 18.1447 16.497 17.5857 16.2649C17.4653 16.2134 17.2502 16.2306 17.1384 16.3079C16.5278 16.7376 15.9516 17.2103 15.3409 17.6313C15.0829 17.8118 15.1689 18.0181 15.1861 18.2415C15.2635 19.2556 14.5755 20.1235 13.5692 20.2954C12.6318 20.4587 11.6685 19.8571 11.4191 18.9204C11.2127 18.1642 11.3761 17.4767 11.9696 16.9524C12.563 16.4196 13.2682 16.2735 13.9993 16.6087C14.2917 16.7376 14.4637 16.6774 14.6787 16.5056C15.1603 16.1274 15.6506 15.7493 16.158 15.4056C16.4504 15.2079 16.5536 15.0017 16.5106 14.6321C16.416 13.6353 17.1384 12.7587 18.1361 12.5954C19.0735 12.4493 20.0282 13.0509 20.269 13.9876C20.3378 14.2454 20.2862 14.529 20.3292 14.7954C20.355 14.9587 20.398 15.1649 20.5184 15.2509C21.0861 15.7063 21.6709 16.1446 22.2729 16.5657C22.3933 16.6517 22.5997 16.6431 22.7545 16.6173C23.047 16.5743 23.348 16.4282 23.6232 16.454C23.9758 16.4884 24.1736 16.3595 24.3886 16.1274C25.3089 15.1134 26.2463 14.1079 27.1064 13.1798Z" fill="url(#paint0_linear_858_911)"/>
<path d="M30.6324 29.3963C29.3595 29.3963 28.1038 29.3963 26.8052 29.3963C26.8052 29.2244 26.8052 29.0697 26.8052 28.9151C26.8052 25.5205 26.8052 22.126 26.8052 18.7315C26.8052 17.8893 26.9686 17.726 27.8114 17.726C28.5167 17.726 29.2133 17.7174 29.9185 17.726C30.426 17.7346 30.6754 17.9494 30.6754 18.4479C30.684 22.0572 30.6754 25.6666 30.6754 29.276C30.6668 29.3104 30.6496 29.3361 30.6324 29.3963Z" fill="url(#paint1_linear_858_911)"/>
<path d="M20.3121 29.3963C19.0564 29.3963 17.8007 29.3963 16.4849 29.3963C16.4849 29.2502 16.4849 29.1127 16.4849 28.9752C16.4849 26.3971 16.4849 23.819 16.4849 21.2408C16.4849 20.4846 16.6741 20.3041 17.4223 20.3041C18.1534 20.3041 18.8844 20.2955 19.6154 20.3041C20.0971 20.3127 20.3551 20.5361 20.3551 21.0088C20.3637 23.7588 20.3551 26.5088 20.3551 29.2588C20.3551 29.3018 20.3293 29.3361 20.3121 29.3963Z" fill="url(#paint2_linear_858_911)"/>
<path d="M21.0001 31.9999C17.6459 31.9999 14.2917 31.9999 10.9375 31.9999C10.7913 31.9999 10.6451 32.0171 10.5075 31.9827C10.1807 31.9054 9.98288 31.6819 9.99148 31.3382C10.0001 31.0116 10.1893 30.8054 10.4989 30.728C10.6365 30.6937 10.7827 30.7108 10.9289 30.7108C17.6373 30.7108 24.3457 30.7108 31.0454 30.7108C31.1916 30.7108 31.3378 30.6937 31.4755 30.728C31.8023 30.8054 32.0001 31.0288 31.9915 31.3726C31.9829 31.6991 31.7937 31.9054 31.4841 31.9827C31.3464 32.0171 31.2002 31.9999 31.054 31.9999C27.7084 31.9999 24.3543 31.9999 21.0001 31.9999Z" fill="url(#paint3_linear_858_911)"/>
<path d="M25.5066 29.405C24.208 29.405 22.9609 29.405 21.6708 29.405C21.6622 29.2589 21.645 29.13 21.645 28.9925C21.645 27.2565 21.645 25.5292 21.645 23.7933C21.645 23.0714 21.8428 22.8823 22.5653 22.8823C23.3135 22.8823 24.0532 22.8823 24.8014 22.8823C25.2056 22.8823 25.498 23.08 25.498 23.4839C25.5152 25.4519 25.5066 27.4112 25.5066 29.405Z" fill="url(#paint4_linear_858_911)"/>
<path d="M15.1862 29.405C13.8876 29.405 12.6405 29.405 11.359 29.405C11.3504 29.2761 11.3246 29.1558 11.3246 29.0354C11.3246 27.7034 11.316 26.3714 11.3246 25.0394C11.3246 24.3776 11.5396 24.1714 12.2019 24.1714C12.9587 24.1714 13.7242 24.1714 14.481 24.1714C14.8852 24.1714 15.169 24.369 15.1776 24.7729C15.2034 26.3112 15.1862 27.8409 15.1862 29.405Z" fill="url(#paint5_linear_858_911)"/>
</g>
<defs>
<linearGradient id="paint0_linear_858_911" x1="15.0022" y1="9.99951" x2="21.0907" y2="22.9475" gradientUnits="userSpaceOnUse">
<stop stop-color="white"/>
<stop offset="1" stop-color="white" stop-opacity="0.33"/>
</linearGradient>
<linearGradient id="paint1_linear_858_911" x1="27.5399" y1="17.7222" x2="33.4379" y2="19.9436" gradientUnits="userSpaceOnUse">
<stop stop-color="white"/>
<stop offset="1" stop-color="white" stop-opacity="0.33"/>
</linearGradient>
<linearGradient id="paint2_linear_858_911" x1="17.2196" y1="20.3003" x2="22.6787" y2="22.9392" gradientUnits="userSpaceOnUse">
<stop stop-color="white"/>
<stop offset="1" stop-color="white" stop-opacity="0.33"/>
</linearGradient>
<linearGradient id="paint3_linear_858_911" x1="14.1637" y1="30.7065" x2="14.2667" y2="32.6888" gradientUnits="userSpaceOnUse">
<stop stop-color="white"/>
<stop offset="1" stop-color="white" stop-opacity="0.33"/>
</linearGradient>
<linearGradient id="paint4_linear_858_911" x1="22.3778" y1="22.8823" x2="27.0037" y2="25.9924" gradientUnits="userSpaceOnUse">
<stop stop-color="white"/>
<stop offset="1" stop-color="white" stop-opacity="0.33"/>
</linearGradient>
<linearGradient id="paint5_linear_858_911" x1="12.055" y1="24.1714" x2="16.0025" y2="27.4853" gradientUnits="userSpaceOnUse">
<stop stop-color="white"/>
<stop offset="1" stop-color="white" stop-opacity="0.33"/>
</linearGradient>
<clipPath id="clip0_858_911">
<rect width="22" height="22" fill="white" transform="translate(10 10)"/>
</clipPath>
</defs>
</svg>
