<svg width="48" height="48" viewBox="0 0 48 48" fill="none" xmlns="http://www.w3.org/2000/svg">
<rect width="48" height="48" rx="24" fill="#DAE5FF"/>
<g clip-path="url(#clip0_933_5674)">
<path d="M29.9413 25.6864C30.7499 25.7436 31.5233 25.7093 32.2499 25.8693C34.8046 26.4182 36.5038 28.7393 36.3046 31.2776C36.1053 33.7703 34.0546 35.7598 31.453 35.977C31.2772 35.9884 31.1014 35.9999 30.9257 35.9999C25.4178 35.9999 19.91 36.0113 14.4022 35.9999C11.6483 35.9884 9.56237 34.2733 9.0819 31.6893C8.66002 29.4025 9.96081 27.1042 12.2108 26.1095C12.4335 26.018 12.6678 25.755 12.7264 25.5263C13.6991 21.6045 17.121 18.906 21.2225 18.8603C25.2303 18.8031 28.746 21.4215 29.8124 25.2633C29.8592 25.4234 29.9061 25.5835 29.9413 25.6864ZM18.621 28.2476C18.621 29.0709 18.6092 29.8827 18.621 30.7059C18.6327 31.6092 19.2772 31.9637 20.0858 31.5063C21.4803 30.7174 22.8749 29.917 24.2577 29.0937C25.0194 28.6478 25.0311 27.9275 24.2694 27.4815C22.8632 26.6583 21.4569 25.8465 20.0389 25.0461C19.2772 24.6116 18.6327 24.9889 18.6092 25.8579C18.6092 26.6469 18.621 27.4472 18.621 28.2476Z" fill="#7DA2F6"/>
<path d="M32.0978 12.2974C32.4259 11.9543 32.9767 11.8972 33.3751 12.183C35.672 13.8753 37.4884 15.9562 38.836 18.4374C39.129 18.9748 39.0001 19.4665 38.5196 19.7066C38.0626 19.9353 37.5821 19.7866 37.3009 19.2607C36.0587 16.9967 34.3946 15.0873 32.297 13.5208C31.9454 13.2578 31.711 12.8919 31.9454 12.4803C31.9923 12.4231 32.0392 12.3545 32.0978 12.2974Z" fill="#7DA2F6"/>
<path d="M35.4727 19.5926C35.6602 19.97 35.5899 20.4388 35.2735 20.7246C35.2031 20.7818 35.1328 20.8275 35.0625 20.8618C34.8047 20.9533 34.4531 20.7932 34.1602 20.6903C34.043 20.6446 33.961 20.4616 33.8906 20.3359C33.0703 18.9638 32.0391 17.7632 30.7852 16.7341C30.2696 16.3111 30.1641 15.7965 30.4922 15.3964C30.8321 14.9847 31.3828 14.9847 31.9219 15.4307C33.3399 16.5855 34.5117 17.9461 35.4258 19.5126C35.4492 19.5469 35.461 19.5698 35.4727 19.5926Z" fill="#7DA2F6"/>
<path d="M32.2262 21.0556C32.2614 21.2842 32.1794 21.5243 32.027 21.7073C31.9215 21.8445 31.7926 21.9703 31.6403 22.0046C31.359 22.0732 30.9137 21.9703 30.7145 21.7645C30.0583 21.0899 29.4723 20.3581 28.8747 19.6263C28.5817 19.2604 28.6286 18.8717 28.945 18.5401C29.2497 18.2313 29.7184 18.117 29.9997 18.4143C30.7731 19.2147 31.4645 20.0837 32.1676 20.9298C32.2028 20.9641 32.2145 20.9984 32.2262 21.0556Z" fill="#7DA2F6"/>
<path d="M19.6523 29.5969V26.9785C19.6523 26.624 20.0391 26.4068 20.3555 26.5897C21.1055 27.0242 21.832 27.4358 22.6289 27.8932C22.9336 28.0647 22.9336 28.4992 22.6289 28.6707C21.8672 29.1166 21.1289 29.5397 20.3555 29.9856C20.0391 30.1571 19.6523 29.9399 19.6523 29.5969Z" fill="#7DA2F6"/>
</g>
<defs>
<clipPath id="clip0_933_5674">
<rect width="30" height="24" fill="white" transform="translate(9 12)"/>
</clipPath>
</defs>
</svg>
