<svg width="48" height="48" viewBox="0 0 48 48" fill="none" xmlns="http://www.w3.org/2000/svg">
<rect width="48" height="48" rx="24" fill="#E4F4FF"/>
<g clip-path="url(#clip0_933_5664)">
<path d="M13.0329 23.9998C13.0329 22.0017 12.9786 19.9923 13.0438 17.9942C13.1307 15.345 14.7378 13.1785 17.1701 12.4039C17.8977 12.1682 18.6904 12.0559 19.4614 12.0335C21.0142 11.9773 22.5778 12.011 24.1307 12.0222C25.0862 12.0222 25.5206 12.4825 25.5206 13.4703C25.5206 14.5143 25.5206 15.5695 25.5206 16.6135C25.5314 19.5545 27.6706 21.7884 30.5265 21.8445C31.5798 21.867 32.6223 21.8445 33.6756 21.8557C34.5877 21.867 34.9895 22.2823 35.0004 23.2365C35.0112 25.2795 35.0221 27.3113 35.0004 29.3543C34.9569 33.3618 32.4702 35.9437 28.5936 35.9886C25.5314 36.0222 22.4801 36.0222 19.4179 35.9886C15.5413 35.9437 13.0546 33.3506 13.0221 29.3431C13.0004 27.5695 13.0221 25.7846 13.0221 24.011C13.0112 23.9998 13.0221 23.9998 13.0329 23.9998ZM21.3942 25.1111C21.4377 25.0774 21.492 25.055 21.5354 25.0213C21.7309 25.257 21.9155 25.504 22.1326 25.7173C22.5778 26.1663 23.0556 26.2112 23.4248 25.852C23.8049 25.4928 23.7832 24.9203 23.3597 24.4713C22.6539 23.7192 21.9372 22.9783 21.2096 22.2486C20.7644 21.7996 20.3192 21.7772 19.874 22.2262C19.1139 22.9783 18.3755 23.7528 17.6479 24.5274C17.2679 24.9315 17.2679 25.4816 17.6045 25.8295C17.952 26.1888 18.4515 26.1775 18.8641 25.7846C19.103 25.5489 19.3419 25.3019 19.6677 24.9764C19.6677 25.3132 19.6677 25.4928 19.6677 25.6724C19.6677 27.0194 19.6677 28.3665 19.6677 29.7135C19.6677 30.4769 19.9826 30.881 20.5472 30.8698C21.1119 30.8585 21.4051 30.4544 21.4051 29.6911C21.4051 29.0176 21.4051 28.344 21.4051 27.6705C21.3942 26.8174 21.3942 25.9642 21.3942 25.1111Z" fill="#70C5FF"/>
<path d="M27.1162 15.0305C27.1162 14.3346 27.0728 13.6386 27.138 12.9538C27.1597 12.662 27.3443 12.2354 27.5506 12.1568C27.8003 12.0558 28.2673 12.1568 28.4627 12.3589C30.5585 14.4917 32.6325 16.6582 34.6957 18.836C34.8694 19.0268 34.9997 19.4646 34.9129 19.6666C34.8043 19.9024 34.4351 20.1493 34.1745 20.1606C32.8388 20.2055 31.5032 20.2055 30.1676 20.1718C28.4627 20.1269 27.1597 18.7349 27.1162 16.995C27.0945 16.3439 27.1162 15.6928 27.1162 15.0305Z" fill="#70C5FF"/>
</g>
<defs>
<clipPath id="clip0_933_5664">
<rect width="22" height="24" fill="white" transform="translate(13 12)"/>
</clipPath>
</defs>
</svg>
