<svg xmlns="http://www.w3.org/2000/svg" xmlns:xlink="http://www.w3.org/1999/xlink" width="20" height="20" viewBox="0 0 20 20"><defs><style>.a{clip-path:url(#b);}.b{fill:#fff;}</style><clipPath id="b"><rect width="20" height="20"/></clipPath></defs><g id="a" class="a"><path class="b" d="M-1130,20a10.074,10.074,0,0,1-2.015-.2,9.953,9.953,0,0,1-1.877-.583,10,10,0,0,1-1.7-.922,10.071,10.071,0,0,1-1.48-1.221,10.069,10.069,0,0,1-1.221-1.48,10,10,0,0,1-.922-1.7,9.957,9.957,0,0,1-.583-1.877A10.077,10.077,0,0,1-1140,10a10.077,10.077,0,0,1,.2-2.015,9.957,9.957,0,0,1,.583-1.877,10,10,0,0,1,.922-1.7,10.069,10.069,0,0,1,1.221-1.48,10.072,10.072,0,0,1,1.48-1.221,10,10,0,0,1,1.7-.922A9.952,9.952,0,0,1-1132.016.2,10.075,10.075,0,0,1-1130,0a10.075,10.075,0,0,1,2.015.2,9.949,9.949,0,0,1,1.877.583,10,10,0,0,1,1.7.922,10.071,10.071,0,0,1,1.48,1.221,10.067,10.067,0,0,1,1.221,1.48,10,10,0,0,1,.922,1.7,9.948,9.948,0,0,1,.583,1.877A10.077,10.077,0,0,1-1120,10a10.077,10.077,0,0,1-.2,2.015,9.948,9.948,0,0,1-.583,1.877,10,10,0,0,1-.922,1.7,10.067,10.067,0,0,1-1.221,1.48,10.07,10.07,0,0,1-1.48,1.221,10,10,0,0,1-1.7.922,9.95,9.95,0,0,1-1.877.583A10.074,10.074,0,0,1-1130,20Zm.037-9.309,1.624,3.17h2.933l-2.933-4.8,2.807-2.907h-3.165l-2.5,2.912V6.154h-2.381v7.707h2.381V11.979l1.23-1.288Z" transform="translate(1140 0)"/></g></svg>