<svg xmlns="http://www.w3.org/2000/svg" xmlns:xlink="http://www.w3.org/1999/xlink" width="20" height="20" viewBox="0 0 20 20">
  <defs>
    <clipPath id="clip-kenta-blocks-logo-menu">
      <rect width="20" height="20"/>
    </clipPath>
  </defs>
  <g id="kenta-blocks-logo-menu" clip-path="url(#clip-kenta-blocks-logo-menu)">
    <path d="M9.641,19.283a1.461,1.461,0,0,1-.362-.045,1.363,1.363,0,0,1-.345-.141L.777,14.648A1.475,1.475,0,0,1,0,13.35V4.45A1.479,1.479,0,0,1,.974,3.059L9.132.093a1.45,1.45,0,0,1,1.02,0l8.158,2.967a1.48,1.48,0,0,1,.974,1.391h0v8.9a1.475,1.475,0,0,1-.777,1.3L10.348,19.1a1.363,1.363,0,0,1-.345.141A1.46,1.46,0,0,1,9.641,19.283ZM17.8,5.979l-7.417,2.7v8.714L17.8,13.35ZM5.221,11.742l.9,1.756H7.746L6.121,10.839l1.555-1.61H5.923L4.54,10.842V9.229H3.221V13.5H4.54V12.456l.681-.713h0Zm4.42-10.26h0L1.553,4.426,9.641,7.37,17.73,4.426,9.641,1.483ZM14.305,13.5H12.028V9.229H14.5a1.786,1.786,0,0,1,.546.076,1.069,1.069,0,0,1,.4.229,1.045,1.045,0,0,1,.272,1.109.943.943,0,0,1-.177.3,1.056,1.056,0,0,1-.46.285,1.566,1.566,0,0,1,.4.15.949.949,0,0,1,.278.23.939.939,0,0,1,.163.3,1.223,1.223,0,0,1,.054.373,1.169,1.169,0,0,1-.154.6,1.142,1.142,0,0,1-.422.419,1.4,1.4,0,0,1-.5.14A5.811,5.811,0,0,1,14.305,13.5Zm-.946-1.782v.865h.673a.743.743,0,0,0,.48-.121.409.409,0,0,0,.14-.325.378.378,0,0,0-.138-.3.777.777,0,0,0-.485-.115Zm0-1.622v.81h.574a.662.662,0,0,0,.43-.106.389.389,0,0,0,.121-.307.367.367,0,0,0-.121-.291.652.652,0,0,0-.421-.1Z" transform="translate(0.345 0.345)" fill="#fff"/>
  </g>
</svg>
