<svg width="36" height="36" viewBox="0 0 36 36" fill="none" xmlns="http://www.w3.org/2000/svg">
<circle cx="18" cy="18" r="18" fill="#F2EAFF"/>
<g clip-path="url(#clip0_1017_628)">
<path d="M13.5098 23.1514C13.3536 23.395 13.2787 23.6449 13.2787 23.9073C13.2787 24.0385 13.2475 24.0948 13.1101 24.0948C12.5043 24.0885 11.9048 24.1073 11.299 24.076C10.5371 24.0323 10.0187 23.4638 10.0062 22.7016C10 21.8082 10.0062 20.921 10.0062 20.0401C10.0062 18.3533 10.0125 16.6664 10 14.9796C10 14.7672 10.025 14.6797 10.2748 14.6797C15.427 14.6922 20.5792 14.6859 25.7315 14.6797C25.9563 14.6797 26 14.7484 25.9938 14.9546C25.9875 17.4848 25.9875 20.0151 25.9875 22.5454C25.9875 23.495 25.4317 24.0635 24.4887 24.0823C23.9766 24.0948 23.4707 24.0823 22.9586 24.0885C22.8087 24.0885 22.7088 24.0885 22.7151 23.8823C22.7213 23.6262 22.6401 23.3763 22.484 23.1576C23.3521 22.8265 23.6144 22.4392 23.6144 21.527C23.6144 21.3583 23.6144 21.1959 23.6144 21.0272C23.6144 20.1151 23.3458 19.7277 22.5027 19.4091C22.8774 18.5844 22.7963 18.1346 22.1468 17.4848C21.9532 17.2912 21.7721 17.0975 21.566 16.9163C21.1163 16.5165 20.6042 16.4353 20.0609 16.6852C19.886 16.7664 19.8423 16.7476 19.7736 16.5602C19.5738 16.0292 19.1803 15.7105 18.6058 15.6793C18.2123 15.6543 17.8126 15.6543 17.4192 15.673C16.8134 15.698 16.4012 16.0229 16.2014 16.5852C16.1265 16.7851 16.0765 16.7539 15.9266 16.6914C15.3708 16.4415 14.8525 16.5227 14.3966 16.9413C14.1468 17.1725 13.9032 17.4161 13.6659 17.666C13.1913 18.1721 13.1351 18.7094 13.4848 19.4153C12.6042 19.7652 12.3669 20.1213 12.3669 21.0959C12.3669 21.2959 12.3669 21.4895 12.3669 21.6894C12.3856 22.4392 12.7041 22.8577 13.5098 23.1514Z" fill="url(#paint0_linear_1017_628)"/>
<path d="M17.9937 13.7484C15.4332 13.7484 12.8727 13.7421 10.3185 13.7546C10.0499 13.7609 9.99372 13.6859 9.99996 13.436C10.0187 12.7925 9.99996 12.1428 10.0062 11.4993C10.0125 10.5996 10.5995 10.0061 11.4925 9.99985C12.8228 9.9936 14.153 9.99985 15.4894 9.99985C16.0952 9.99985 16.5448 10.2685 16.8259 10.8058C16.9445 11.0369 17.0694 11.2619 17.1756 11.4993C17.2943 11.7742 17.4941 11.8741 17.7939 11.8741C19.9984 11.8679 22.2029 11.8679 24.4137 11.8679C25.4504 11.8679 26 12.4364 26.0187 13.4672C26.0249 13.7234 25.9313 13.7421 25.7189 13.7421C23.1335 13.7484 20.5667 13.7484 17.9937 13.7484Z" fill="url(#paint1_linear_1017_628)"/>
<path d="M20.6478 25.1124C20.3855 25.0936 20.2481 24.8937 20.0982 24.725C19.9671 24.5751 19.8422 24.5376 19.6798 24.6563C19.6361 24.6875 19.5861 24.7125 19.5362 24.7188C19.0616 24.8125 18.843 25.0561 18.9242 25.5684C18.9616 25.8121 18.768 25.9745 18.512 25.9808C18.1685 25.9933 17.825 25.9995 17.4815 25.9808C17.1943 25.9683 17.0319 25.7808 17.0694 25.4997C17.1256 25.0686 16.9819 24.8187 16.5448 24.75C16.4948 24.7437 16.4449 24.7125 16.4011 24.6875C16.1763 24.5251 16.0139 24.5813 15.8266 24.7875C15.4269 25.2248 15.2708 25.2123 14.8586 24.8C14.7025 24.6438 14.5463 24.4938 14.3965 24.3377C14.1217 24.0565 14.0967 23.8316 14.3902 23.5942C14.715 23.3318 14.7774 23.0756 14.5338 22.7445C14.5214 22.7258 14.5089 22.707 14.5089 22.6883C14.4589 22.3009 14.2403 22.2072 13.8656 22.2385C13.4534 22.276 13.3098 22.101 13.3036 21.6824C13.3036 21.4138 13.2973 21.1389 13.3036 20.8703C13.3098 20.5329 13.4722 20.3455 13.8032 20.3829C14.2278 20.4329 14.4651 20.2955 14.5338 19.8706C14.5401 19.8394 14.5526 19.8082 14.5713 19.7832C14.7899 19.5083 14.7025 19.3084 14.4527 19.0835C14.0904 18.7586 14.1029 18.5712 14.4402 18.2275C14.615 18.0526 14.7899 17.8714 14.971 17.6965C15.2395 17.4403 15.4644 17.4091 15.6892 17.6903C15.9577 18.0276 16.2263 18.0838 16.5698 17.8402C16.5947 17.8214 16.626 17.809 16.6572 17.809C17.0007 17.759 17.0881 17.5653 17.0631 17.2279C17.0319 16.7531 17.1818 16.6219 17.6627 16.6219C17.9125 16.6219 18.1623 16.6157 18.4121 16.6219C18.768 16.6282 18.9554 16.7844 18.9179 17.1342C18.8742 17.5466 19.0054 17.7777 19.4175 17.8402C19.43 17.8402 19.4363 17.8464 19.4488 17.8527C19.7735 18.0838 20.0171 18.0214 20.2731 17.709C20.5167 17.4091 20.7415 17.4279 21.0163 17.6965C21.2161 17.8902 21.416 18.0901 21.6096 18.29C21.8594 18.5524 21.8781 18.7773 21.5908 19.0085C21.2661 19.2709 21.2036 19.527 21.4472 19.8582C21.4597 19.8769 21.4722 19.8956 21.4722 19.9144C21.5221 20.3017 21.7407 20.4017 22.1154 20.3642C22.5276 20.3267 22.6712 20.5017 22.6775 20.9202C22.6775 21.1889 22.6837 21.4638 22.6775 21.7324C22.6712 22.0698 22.5089 22.2572 22.1779 22.2197C21.7532 22.1698 21.5159 22.3072 21.4472 22.732C21.4409 22.7633 21.4285 22.7945 21.4097 22.8195C21.1911 23.0944 21.2786 23.2943 21.5284 23.5192C21.8906 23.8441 21.8781 24.0315 21.5409 24.3751C21.3598 24.5626 21.1724 24.7437 20.9913 24.9249C20.8976 25.0374 20.7852 25.1061 20.6478 25.1124ZM20.3418 21.3013C20.3356 20.0081 19.2801 18.9648 17.9936 18.971C16.7009 18.9772 15.658 20.0331 15.6642 21.3201C15.6705 22.6133 16.7259 23.6567 18.0124 23.6504C19.3051 23.6442 20.3481 22.5883 20.3418 21.3013Z" fill="url(#paint2_linear_1017_628)"/>
<path d="M19.3988 21.3015C19.4051 22.0762 18.7805 22.7072 17.9999 22.7072C17.2255 22.7072 16.5948 22.0824 16.601 21.3015C16.6072 20.533 17.213 19.9207 17.9812 19.9083C18.7618 19.902 19.3926 20.5205 19.3988 21.3015Z" fill="url(#paint3_linear_1017_628)"/>
</g>
<defs>
<linearGradient id="paint0_linear_1017_628" x1="17.9972" y1="14.6797" x2="17.9972" y2="24.0948" gradientUnits="userSpaceOnUse">
<stop stop-color="#8535FF"/>
<stop offset="1" stop-color="#A982E4"/>
</linearGradient>
<linearGradient id="paint1_linear_1017_628" x1="18.0093" y1="9.99707" x2="18.0093" y2="13.755" gradientUnits="userSpaceOnUse">
<stop stop-color="#8535FF"/>
<stop offset="1" stop-color="#A982E4"/>
</linearGradient>
<linearGradient id="paint2_linear_1017_628" x1="17.9905" y1="16.6191" x2="17.9905" y2="25.9926" gradientUnits="userSpaceOnUse">
<stop stop-color="#8535FF"/>
<stop offset="1" stop-color="#A982E4"/>
</linearGradient>
<linearGradient id="paint3_linear_1017_628" x1="17.9999" y1="19.9082" x2="17.9999" y2="22.7072" gradientUnits="userSpaceOnUse">
<stop stop-color="#8535FF"/>
<stop offset="1" stop-color="#A982E4"/>
</linearGradient>
<clipPath id="clip0_1017_628">
<rect width="16" height="16" fill="white" transform="translate(10 10)"/>
</clipPath>
</defs>
</svg>
