<svg width="36" height="36" viewBox="0 0 36 36" fill="none" xmlns="http://www.w3.org/2000/svg">
<circle cx="18" cy="18" r="18" fill="#FFF8EA"/>
<g clip-path="url(#clip0_1017_165)">
<path d="M10.008 13.5804C10.008 12.7572 10 11.9261 10.008 11.1029C10.016 10.4396 10.4398 10.008 11.1114 10.008C12.7746 10 14.4458 10.016 16.1089 10C16.3728 10 16.4128 10.0799 16.4048 10.3117C16.3888 10.8551 16.4048 11.4066 16.3968 11.95C16.3888 12.1578 16.4208 12.2458 16.6687 12.2537C17.2764 12.2617 17.6762 12.6533 17.6762 13.1968C17.6762 13.7403 17.2764 14.1399 16.6687 14.1479C16.4288 14.1479 16.3888 14.2278 16.3888 14.4436C16.4048 14.987 16.3728 15.5385 16.3968 16.0819C16.4048 16.3536 16.3168 16.4096 16.061 16.4016C15.5172 16.3856 14.9655 16.3936 14.4218 16.4016C14.2539 16.4096 14.1579 16.3936 14.1579 16.1538C14.1419 15.5145 13.7501 15.1149 13.1904 15.1229C12.6467 15.1309 12.2709 15.5305 12.2549 16.1459C12.2469 16.3616 12.1829 16.4096 11.983 16.4016C11.4073 16.3856 10.8396 16.3856 10.2639 16.4016C10.048 16.4096 10 16.3377 10 16.1379C10.008 15.2827 10.008 14.4356 10.008 13.5804Z" fill="url(#paint0_linear_1017_165)"/>
<path d="M22.4177 10.0088C23.2333 10.0088 24.0409 10.0088 24.8565 10.0088C25.5761 10.0088 25.9919 10.4324 25.9919 11.1517C25.9919 12.806 25.9839 14.4524 25.9999 16.1067C25.9999 16.3625 25.9359 16.4184 25.688 16.4104C25.1443 16.3944 24.5926 16.4184 24.0489 16.3944C23.801 16.3864 23.745 16.4584 23.745 16.6981C23.737 17.2656 23.3292 17.6732 22.8015 17.6732C22.2578 17.6812 21.85 17.2736 21.842 16.6742C21.842 16.4424 21.77 16.3864 21.5541 16.3944C20.9944 16.4104 20.4347 16.3864 19.8749 16.4024C19.6431 16.4104 19.5871 16.3385 19.5951 16.1147C19.6111 15.5393 19.6111 14.9719 19.5951 14.3964C19.5871 14.2046 19.6511 14.1567 19.843 14.1487C20.4906 14.1247 20.8904 13.7411 20.8824 13.1817C20.8744 12.6382 20.4746 12.2546 19.859 12.2386C19.6511 12.2306 19.5951 12.1747 19.5951 11.9749C19.6111 11.3994 19.6111 10.832 19.5951 10.2566C19.5871 10.0488 19.6511 9.98485 19.859 9.99284C20.7145 10.0168 21.5621 10.0088 22.4177 10.0088Z" fill="url(#paint1_linear_1017_165)"/>
<path d="M13.5662 25.9928C12.7506 25.9928 11.943 26.0008 11.1274 25.9928C10.4317 25.9848 10.0079 25.5692 9.99994 24.8739C9.99194 23.2115 9.99994 21.5412 9.99194 19.8789C9.99194 19.6551 10.0479 19.5832 10.2798 19.5912C10.8555 19.6071 11.4232 19.5912 11.9989 19.5992C12.1908 19.5992 12.2388 19.5512 12.2468 19.3594C12.2708 18.712 12.6466 18.3124 13.2063 18.3204C13.7501 18.3284 14.1339 18.72 14.1499 19.3354C14.1579 19.5432 14.2058 19.6071 14.4137 19.5992C14.9894 19.5832 15.5572 19.5992 16.1329 19.5912C16.3408 19.5832 16.4047 19.6391 16.4047 19.8549C16.3887 20.3984 16.3807 20.9498 16.4047 21.4933C16.4127 21.765 16.3488 21.8449 16.0609 21.8449C15.5732 21.8369 15.1893 22.2045 15.1254 22.6601C15.0614 23.1236 15.3413 23.5632 15.805 23.707C15.821 23.715 15.829 23.723 15.845 23.723C16.5007 23.6191 16.4207 24.0667 16.4047 24.4663C16.3967 24.8659 16.3887 25.2655 16.4047 25.6651C16.4207 25.9208 16.3568 26.0008 16.0849 26.0008C15.2453 25.9768 14.4057 25.9928 13.5662 25.9928Z" fill="url(#paint2_linear_1017_165)"/>
<path d="M26 22.4279C26 23.2271 26 24.0263 26 24.8255C26 25.5767 25.5842 25.9843 24.8406 25.9843C23.2014 25.9843 21.5622 25.9763 19.923 25.9923C19.6592 25.9923 19.5872 25.9284 19.5952 25.6646C19.6192 25.1052 19.5952 24.5457 19.6032 23.9863C19.6112 23.7945 19.5552 23.7465 19.3633 23.7385C18.7157 23.7146 18.3159 23.3309 18.3238 22.7795C18.3318 22.236 18.7316 21.8524 19.3393 21.8364C19.5472 21.8285 19.6112 21.7805 19.6032 21.5727C19.5872 20.9973 19.6032 20.4298 19.5952 19.8544C19.5872 19.6466 19.6432 19.5827 19.8591 19.5907C20.4188 19.6067 20.9785 19.6147 21.5382 19.5907C21.8341 19.5747 21.8421 19.7106 21.8501 19.9343C21.8581 20.4219 22.2099 20.8055 22.6737 20.8694C23.1374 20.9333 23.5772 20.6536 23.7211 20.1901C23.7291 20.1741 23.7291 20.1581 23.7291 20.1501C23.6252 19.4948 24.081 19.5827 24.4808 19.5987C24.8966 19.6067 25.3044 19.6147 25.7202 19.5987C25.944 19.5907 26.016 19.6546 26.008 19.8784C25.992 20.7256 26 21.5807 26 22.4279Z" fill="url(#paint3_linear_1017_165)"/>
</g>
<defs>
<linearGradient id="paint0_linear_1017_165" x1="11.6792" y1="15.8036" x2="15.2486" y2="10.1739" gradientUnits="userSpaceOnUse">
<stop stop-color="#FEC73A"/>
<stop offset="1" stop-color="#FFA825"/>
</linearGradient>
<linearGradient id="paint1_linear_1017_165" x1="20.9956" y1="16.9541" x2="25.7094" y2="11.7824" gradientUnits="userSpaceOnUse">
<stop stop-color="#FEC73A"/>
<stop offset="1" stop-color="#FFA825"/>
</linearGradient>
<linearGradient id="paint2_linear_1017_165" x1="11.3973" y1="25.2816" x2="16.1093" y2="20.0962" gradientUnits="userSpaceOnUse">
<stop stop-color="#FEC73A"/>
<stop offset="1" stop-color="#FFA825"/>
</linearGradient>
<linearGradient id="paint3_linear_1017_165" x1="20.0048" y1="25.3925" x2="23.5751" y2="19.7579" gradientUnits="userSpaceOnUse">
<stop stop-color="#FEC73A"/>
<stop offset="1" stop-color="#FFA825"/>
</linearGradient>
<clipPath id="clip0_1017_165">
<rect width="16" height="16" fill="white" transform="translate(10 10)"/>
</clipPath>
</defs>
</svg>
