<svg width="36" height="36" viewBox="0 0 36 36" fill="none" xmlns="http://www.w3.org/2000/svg">
<circle cx="18" cy="18" r="18" fill="#E4FFF0"/>
<g clip-path="url(#clip0_1017_116)">
<path d="M17.7792 11.369C17.445 12.194 17.3018 13.0253 17.4032 13.9065C17.6598 16.119 19.4441 17.8815 21.5746 17.9878C21.7715 18.0003 21.8312 18.0378 21.8491 18.2565C21.9565 19.419 22.416 20.4065 23.2515 21.194C23.705 21.619 23.8423 22.094 23.6573 22.5815C23.4842 23.044 23.0545 23.3253 22.4876 23.3253C19.0741 23.3253 15.6666 23.3253 12.2532 23.3253C11.6624 23.3253 11.2387 23.044 11.0716 22.5628C10.8985 22.0753 11.0298 21.6253 11.4774 21.2003C12.4441 20.2753 12.9096 19.1315 12.9156 17.769C12.9156 17.019 12.8917 16.269 12.9394 15.519C13.1006 13.1628 15.2787 11.1815 17.5285 11.3378C17.6061 11.3378 17.6837 11.3565 17.7792 11.369Z" fill="url(#paint0_linear_1017_116)"/>
<path d="M18.6445 13.3312C18.6445 11.4875 20.0708 10 21.8313 10C23.5857 10 25.006 11.4938 25.006 13.3375C25.006 15.1813 23.5738 16.675 21.8253 16.6687C20.0648 16.6687 18.6386 15.1687 18.6445 13.3312Z" fill="url(#paint1_linear_1017_116)"/>
<path d="M15.052 24C16.5558 24 18.0537 24 19.5516 24C19.7127 24 19.6948 24.075 19.6709 24.1938C19.4203 25.2625 18.364 26.05 17.2421 26C16.1799 25.95 15.2191 25.0812 15.052 24Z" fill="url(#paint2_linear_1017_116)"/>
</g>
<defs>
<linearGradient id="paint0_linear_1017_116" x1="12.3179" y1="11.3291" x2="18.3034" y2="24.152" gradientUnits="userSpaceOnUse">
<stop stop-color="#61E89D"/>
<stop offset="1" stop-color="#2DCA74"/>
</linearGradient>
<linearGradient id="paint1_linear_1017_116" x1="19.3036" y1="10" x2="22.8557" y2="16.8358" gradientUnits="userSpaceOnUse">
<stop stop-color="#61E89D"/>
<stop offset="1" stop-color="#2DCA74"/>
</linearGradient>
<linearGradient id="paint2_linear_1017_116" x1="15.5321" y1="24" x2="16.0659" y2="26.4923" gradientUnits="userSpaceOnUse">
<stop stop-color="#61E89D"/>
<stop offset="1" stop-color="#2DCA74"/>
</linearGradient>
<clipPath id="clip0_1017_116">
<rect width="14" height="16" fill="white" transform="translate(11 10)"/>
</clipPath>
</defs>
</svg>
