<svg width="36" height="36" viewBox="0 0 36 36" fill="none" xmlns="http://www.w3.org/2000/svg">
<circle cx="18" cy="18" r="18" fill="#F2EAFF"/>
<g clip-path="url(#clip0_1017_4638)">
<path d="M26.0624 13.2842C25.9875 15.4317 23.9711 16.9986 21.911 16.4555C21.6738 16.3931 21.5365 16.4493 21.3742 16.6116C19.7885 18.2035 18.2029 19.7953 16.611 21.3747C16.4487 21.5371 16.3987 21.6744 16.4549 21.9116C16.7671 23.2101 16.4237 24.3338 15.4124 25.2015C14.4136 26.0568 13.2587 26.2128 12.0289 25.7384C11.5482 25.5511 11.4795 25.1953 11.8478 24.8269C12.1912 24.4774 12.5408 24.1403 12.8841 23.7907C13.1338 23.5347 13.1588 23.2476 12.9528 23.054C12.753 22.8667 12.4783 22.8917 12.2349 23.1289C11.879 23.4785 11.5294 23.8344 11.1736 24.184C10.8178 24.5335 10.4619 24.4649 10.2747 24.0029C9.78774 22.7606 9.95005 21.5995 10.8178 20.5944C11.6793 19.5956 12.7967 19.2585 14.0827 19.5644C14.3324 19.6268 14.476 19.5706 14.6445 19.4021C16.2177 17.8164 17.8033 16.237 19.389 14.6576C19.5638 14.4891 19.6075 14.3455 19.5513 14.0958C19.2516 12.8223 19.5825 11.7111 20.5626 10.8496C21.549 9.96936 22.7039 9.78832 23.9399 10.2503C24.483 10.4563 24.5454 10.7996 24.1334 11.2179C23.7963 11.555 23.453 11.8921 23.1221 12.2355C22.8849 12.4727 22.8662 12.7598 23.0534 12.9534C23.2407 13.1469 23.5404 13.1282 23.7714 12.9034C24.1334 12.5476 24.4893 12.1793 24.8576 11.8234C25.2009 11.4863 25.5692 11.5488 25.7316 12.0045C25.8689 12.4165 25.95 12.8535 26.0624 13.2842Z" fill="url(#paint0_linear_1017_4638)"/>
<path d="M18.3652 21.0563C19.2517 20.1698 20.1257 19.2958 21.0309 18.3906C21.8237 19.0274 22.6664 19.6641 23.478 20.3508C24.1147 20.8877 24.7265 21.4495 25.3071 22.0426C26.3434 23.0976 26.1873 24.7706 24.995 25.6072C24.1023 26.2314 22.7164 26.1066 21.9111 25.2389C20.8998 24.1401 19.9509 22.9852 18.977 21.8428C18.7523 21.5869 18.5525 21.306 18.3652 21.0563ZM23.9462 23.9404C24.1023 23.7781 24.1147 23.5284 23.9961 23.3348C23.9712 23.2911 23.94 23.2537 23.9087 23.2225C23.3344 22.6357 22.7538 22.0551 22.167 21.4745C21.9048 21.2186 21.6302 21.1998 21.4304 21.4183C21.2431 21.6181 21.2681 21.8928 21.5053 22.1362C21.8299 22.4733 22.167 22.798 22.4979 23.1288C22.7601 23.391 23.0098 23.6844 23.3032 23.9092C23.4343 24.009 23.6715 24.0403 23.8401 24.0028C23.8775 23.9966 23.915 23.9716 23.9462 23.9404Z" fill="url(#paint1_linear_1017_4638)"/>
<path d="M15.3125 17.3236C14.4947 16.4933 13.6644 15.663 12.8217 14.814C12.7031 14.9264 12.5907 15.0388 12.4783 15.1386C12.2349 15.3384 11.9415 15.3259 11.7729 15.0575C11.2235 14.1523 10.6617 13.2533 10.1561 12.3232C9.83143 11.7239 10.0312 10.9623 10.5181 10.4878C11.0175 10.0071 11.7604 9.84484 12.3597 10.1757C13.2711 10.6751 14.1576 11.2245 15.0441 11.7613C15.325 11.9361 15.35 12.2358 15.1315 12.4855C15.0378 12.5916 14.913 12.6728 14.7881 12.7851C15.6683 13.6591 16.5049 14.4894 17.3351 15.3134C16.6547 15.9876 16.0054 16.6369 15.3125 17.3236Z" fill="url(#paint2_linear_1017_4638)"/>
</g>
<defs>
<linearGradient id="paint0_linear_1017_4638" x1="18.033" y1="10.0039" x2="18.033" y2="26.0026" gradientUnits="userSpaceOnUse">
<stop stop-color="#8535FF"/>
<stop offset="1" stop-color="#A982E4"/>
</linearGradient>
<linearGradient id="paint1_linear_1017_4638" x1="22.1806" y1="18.3906" x2="22.1806" y2="25.9978" gradientUnits="userSpaceOnUse">
<stop stop-color="#8535FF"/>
<stop offset="1" stop-color="#A982E4"/>
</linearGradient>
<linearGradient id="paint2_linear_1017_4638" x1="13.6663" y1="10.002" x2="13.6663" y2="17.3236" gradientUnits="userSpaceOnUse">
<stop stop-color="#8535FF"/>
<stop offset="1" stop-color="#A982E4"/>
</linearGradient>
<clipPath id="clip0_1017_4638">
<rect width="16.0624" height="16" fill="white" transform="translate(10 10)"/>
</clipPath>
</defs>
</svg>
