<?xml version="1.0" ?><!DOCTYPE svg  PUBLIC '-//W3C//DTD SVG 1.1//EN'  'http://www.w3.org/Graphics/SVG/1.1/DTD/svg11.dtd'><svg enable-background="new 0 0 512 512" id="Layer_1" version="1.1" viewBox="0 0 512 512" xml:space="preserve" xmlns="http://www.w3.org/2000/svg" xmlns:xlink="http://www.w3.org/1999/xlink" width="40" height="40"><g><path d="M512,256c0,141.4-114.6,256-256,256S0,397.4,0,256S114.6,0,256,0C397.4,0,512,114.6,512,256z" fill="#1769FF"/><g><rect fill="#FFFFFF" height="19.4" width="83.6" x="295.3" y="169.2"/><path d="M228.5,247.3c6.5-3.3,11.4-7,14.7-11c5.9-7.1,8.9-16.6,8.9-28.3c0-11.4-2.9-21.2-8.8-29.4    c-9.8-13.3-26.4-20.2-49.9-20.5h-93v192.5h86.7c9.8,0,18.8-0.9,27.2-2.6c8.3-1.7,15.6-5,21.7-9.7c5.5-4.1,10-9.1,13.6-15.1    c5.7-9.1,8.6-19.3,8.6-30.7c0-11.1-2.5-20.5-7.5-28.2C245.7,256.6,238.3,250.9,228.5,247.3z M138.7,191.6h41.9    c9.2,0,16.8,1,22.7,3c6.9,2.9,10.3,8.8,10.3,17.8c0,8.1-2.6,13.7-7.8,16.9s-12,4.8-20.4,4.8h-46.8v-42.5H138.7z M204.9,313.8    c-4.6,2.3-11.1,3.4-19.5,3.4h-46.7v-51.3h47.4c8.3,0.1,14.7,1.2,19.2,3.3c8.2,3.7,12.3,10.6,12.3,20.6    C217.6,301.6,213.4,309.6,204.9,313.8z" fill="#FFFFFF"/><path d="M409,261.7c-1.7-11.2-5.5-21-11.3-29.4c-6.5-9.6-14.7-16.6-24.6-21.1s-21.1-6.7-33.5-6.7    c-20.9,0-37.8,6.6-50.9,19.7c-13.1,13.2-19.6,32.1-19.6,56.7c0,26.3,7.2,45.3,21.7,57s31.2,17.5,50.1,17.5    c22.9,0,40.8-6.9,53.6-20.8c8.2-8.7,12.8-17.3,13.8-25.7h-38c-2.2,4.2-4.8,7.4-7.7,9.8c-5.3,4.3-12.2,6.5-20.7,6.5    c-8,0-14.8-1.8-20.5-5.4c-9.4-5.7-14.3-15.8-14.9-30h103.7C410.4,277.6,410,268.2,409,261.7z M307.5,265.4    c1.3-9.3,4.6-16.6,9.9-22s12.7-8.1,22.2-8.1c8.8,0,16.1,2.6,22.1,7.7c5.9,5.1,9.2,12.6,9.9,22.5L307.5,265.4L307.5,265.4z" fill="#FFFFFF"/></g></g></svg>