<?xml version="1.0" encoding="UTF-8"?>
<svg xmlns="http://www.w3.org/2000/svg" xmlns:xlink="http://www.w3.org/1999/xlink" viewBox="0 0 40 40" width="40px" height="40px">
<g id="surface1763828">
<path style=" stroke:none;fill-rule:nonzero;fill:rgb(100%,8.627451%,0%);fill-opacity:1;" d="M 39.382812 20 C 39.382812 9.296875 30.703125 0.617188 20 0.617188 C 9.296875 0.617188 0.617188 9.296875 0.617188 20 C 0.617188 30.703125 9.296875 39.382812 20 39.382812 C 30.703125 39.382812 39.382812 30.703125 39.382812 20 Z M 39.382812 20 "/>
<path style=" stroke:none;fill-rule:nonzero;fill:rgb(100%,100%,100%);fill-opacity:1;" d="M 32.195312 27.023438 C 32.195312 27.609375 31.71875 28.085938 31.132812 28.085938 L 8.867188 28.085938 C 8.28125 28.085938 7.804688 27.609375 7.804688 27.023438 L 7.804688 12.976562 C 7.804688 12.390625 8.28125 11.914062 8.867188 11.914062 L 31.140625 11.914062 C 31.726562 11.914062 32.203125 12.390625 32.203125 12.976562 L 32.203125 27.023438 Z M 32.195312 27.023438 "/>
<path style=" stroke:none;fill-rule:nonzero;fill:rgb(100%,8.627451%,0%);fill-opacity:1;" d="M 26.828125 19.304688 L 17.210938 13.398438 C 16.945312 13.234375 16.601562 13.226562 16.335938 13.382812 C 16.0625 13.539062 15.890625 13.828125 15.890625 14.140625 L 15.890625 25.90625 C 15.890625 26.21875 16.0625 26.507812 16.335938 26.664062 C 16.46875 26.734375 16.609375 26.773438 16.757812 26.773438 C 16.914062 26.773438 17.070312 26.726562 17.210938 26.648438 L 26.828125 20.789062 C 27.085938 20.632812 27.242188 20.351562 27.242188 20.046875 C 27.242188 19.742188 27.085938 19.460938 26.828125 19.304688 Z M 26.828125 19.304688 "/>
</g>
</svg>
