<svg width="259" height="222" viewBox="0 0 259 222" fill="none" xmlns="http://www.w3.org/2000/svg">
<g clip-path="url(#clip0_1110_10155)">
<path d="M127.836 80.9443C127.836 103.828 127.836 126.64 127.836 149.523C127.836 157.696 124.072 161.391 115.905 161.391C81.2469 161.391 46.5181 161.391 11.8603 161.391C3.97712 161.391 0.07102 157.553 0.07102 149.665C0.07102 116.264 0.14204 82.8631 0 49.462C0 46.4062 1.0653 46.0509 3.62202 46.1219C12.4995 46.2641 21.377 46.193 30.2545 46.193C40.4104 46.193 46.092 40.4367 46.163 30.4164C46.163 21.3199 46.234 12.1524 46.092 3.05595C46.092 0.923972 46.3761 0.000114277 48.8618 0.0711803C71.5882 0.213312 94.3146 0.142246 117.041 0.142246C123.788 0.142246 127.836 4.19301 127.836 11.0153C127.907 34.2539 127.836 57.6346 127.836 80.9443ZM65.6935 103.046C76.9147 103.046 88.2069 103.046 99.428 103.046C103.689 103.046 105.891 101.34 105.891 98.2133C105.891 95.2285 103.689 93.4519 99.6411 93.4519C77.2698 93.4519 54.8985 93.4519 32.5272 93.4519C28.479 93.4519 26.2774 95.1575 26.2064 98.1423C26.1354 101.198 28.479 103.046 32.5982 103.046C43.6773 103.046 54.6854 103.046 65.6935 103.046ZM66.1196 67.6549C55.0405 67.6549 43.8904 67.6549 32.8112 67.6549C28.6211 67.6549 26.2774 69.3605 26.2774 72.4164C26.2774 75.4722 28.55 77.3199 32.7402 77.3199C54.9695 77.3199 77.1277 77.3199 99.357 77.3199C103.618 77.3199 105.891 75.6143 105.891 72.5585C105.891 69.4316 103.618 67.726 99.428 67.726C88.2779 67.6549 77.1988 67.6549 66.1196 67.6549ZM48.6487 117.756C43.1091 117.756 37.5696 117.685 32.03 117.756C28.266 117.756 26.2064 119.533 26.2774 122.518C26.2774 125.361 28.55 127.208 32.101 127.208C43.0381 127.208 54.0462 127.208 64.9833 127.208C68.5343 127.208 70.807 125.218 70.807 122.447C70.807 119.604 68.5343 117.828 64.9123 117.756C59.5148 117.756 54.0462 117.756 48.6487 117.756Z" fill="#C1E9C9"/>
<path d="M148.999 101.482C148.999 124.081 148.999 146.751 148.999 169.35C148.999 178.376 145.377 182 136.287 182C101.984 182 67.6104 182 33.3077 182C24.6433 182 20.4531 177.452 21.1633 168.924C21.3053 167.574 21.5894 166.934 23.0098 167.076C23.72 167.147 24.4302 167.076 25.1404 167.076C55.3239 167.076 85.5074 167.076 115.691 167.076C127.409 167.076 133.588 160.894 133.588 149.097C133.588 107.523 133.659 65.9494 133.517 24.3758C133.517 21.2489 134.298 20.4672 137.352 20.5383C145.164 20.8225 148.999 24.518 148.999 32.4774C148.999 55.5027 148.999 78.5281 148.999 101.482Z" fill="#C1E9C9"/>
<path d="M40.4817 18.6906C40.4817 22.9545 40.5527 27.2185 40.4817 31.4825C40.4106 36.9545 37.0727 40.4368 31.6752 40.5078C22.9397 40.5789 14.1332 40.5078 5.39776 40.5078C3.19614 40.5078 1.42064 39.8682 0.568403 37.6652C-0.212817 35.6043 0.710443 34.0408 2.13084 32.5484C12.2157 22.4571 22.3005 12.3657 32.4564 2.27433C33.9478 0.781945 35.5813 -0.355111 37.7829 0.639812C39.9135 1.56367 40.4817 3.34032 40.4817 5.54337C40.4106 9.87839 40.4817 14.2845 40.4817 18.6906Z" fill="#C1E9C9"/>
</g>
<g clip-path="url(#clip1_1110_10155)">
<path d="M148.9 78.6302C120.227 78.6302 91.6528 78.6302 62.9789 78.6302C51.4894 78.6302 46.8936 83.6083 48.4922 95.058C53.3877 131.199 58.4831 167.241 63.5784 203.382C64.5775 210.252 69.1733 213.935 76.9662 213.935C99.4456 214.035 121.925 213.935 144.405 213.935C169.382 213.935 194.359 213.935 219.336 213.935C221.035 213.935 222.633 213.935 224.332 214.234C226.33 214.632 227.529 216.026 227.529 218.117C227.429 220.208 226.23 221.502 224.232 221.801C222.733 222 221.234 221.9 219.736 221.9C172.779 221.9 125.822 221.9 78.8644 221.9C64.2778 221.9 57.484 216.126 55.4858 201.789C50.1906 165.747 45.1952 129.606 40.1997 93.5646C38.801 83.3096 44.4958 74.5482 54.5866 71.4617C56.2851 70.9639 57.2841 70.6652 57.7837 68.5744C59.682 61.3064 63.6783 58.6182 71.7709 58.5186C95.2495 58.5186 118.728 58.4191 142.207 58.6182C145.603 58.6182 147.801 57.8217 149.2 54.6357C150.199 52.2462 151.698 49.9563 153.097 47.7659C156.094 42.8873 160.49 40.0996 166.285 40.0996C187.465 40 208.546 39.9005 229.727 40.0996C236.62 40.1991 241.116 45.0777 241.416 51.8479C241.516 54.1379 241.516 56.5274 241.416 58.8173C241.216 65.3884 240.417 71.163 249.409 74.1499C256.902 76.639 259.799 84.7035 258.8 92.7681C255.203 120.347 251.207 147.926 247.411 175.504C247.011 178.292 245.912 180.582 242.915 180.283C239.418 179.985 239.018 177.197 239.418 174.31C241.916 156.588 244.413 138.865 246.811 121.143C248.21 111.486 249.609 101.828 250.807 92.0711C251.607 85.4005 247.411 79.9245 240.817 78.9289C238.818 78.6302 236.82 78.6302 234.822 78.6302C206.248 78.6302 177.574 78.6302 148.9 78.6302Z" fill="#2FB44B"/>
<path d="M225.431 148.025C225.331 152.904 223.632 160.072 219.536 166.444C218.037 168.834 218.237 170.228 220.235 172.219C230.126 181.777 239.818 191.634 249.509 201.391C253.205 205.074 253.705 208.659 251.007 211.347C248.31 214.035 244.813 213.537 241.116 209.853C231.525 200.395 222.034 190.937 212.542 181.379C210.444 179.188 209.046 178.491 206.048 180.383C190.962 190.14 171.48 189.144 157.593 178.292C143.605 167.34 138.11 149.22 143.506 132.394C148.901 115.667 164.486 104.118 182.57 103.521C205.549 102.724 225.431 122.039 225.431 148.025ZM183.569 175.106C200.254 175.007 213.542 161.566 213.342 144.939C213.242 128.71 199.454 115.269 183.269 115.468C166.684 115.568 153.297 129.208 153.496 145.735C153.596 162.063 167.084 175.206 183.569 175.106Z" fill="#2FB44B"/>
<path d="M107.738 170.427C112.933 170.427 118.029 170.228 123.224 170.427C128.519 170.626 131.316 173.613 131.516 178.89C131.616 181.18 131.616 183.569 131.516 185.859C131.316 190.937 128.519 194.023 123.524 194.222C112.933 194.421 102.243 194.421 91.6526 194.222C86.6572 194.123 83.8598 190.937 83.56 185.959C83.4601 183.967 83.56 181.976 83.56 179.985C83.6599 173.215 86.3575 170.526 93.3511 170.427C98.0468 170.327 102.842 170.327 107.738 170.427Z" fill="#2FB44B"/>
<circle cx="183" cy="145" r="30" fill="white"/>
<rect width="26.9682" height="2.81029" transform="matrix(0.708463 0.705748 0.708463 -0.705748 172.83 136.269)" fill="#2FB44B"/>
<rect width="27.6664" height="2.81029" transform="matrix(-0.708463 0.705748 0.708463 0.705748 191.885 134.286)" fill="#2FB44B"/>
</g>
<defs>
<clipPath id="clip0_1110_10155">
<rect width="149" height="182" fill="white"/>
</clipPath>
<clipPath id="clip1_1110_10155">
<rect width="219" height="182" fill="white" transform="translate(40 40)"/>
</clipPath>
</defs>
</svg>
