<svg width="480" height="310" viewBox="0 0 480 310" fill="none" xmlns="http://www.w3.org/2000/svg">
<path d="M455.034 112.082C457.212 116.301 457.059 121.492 455.497 125.868C453.935 130.244 450.978 134.116 447.562 137.446C441.026 143.779 431.201 147.627 422.231 149.565C420.559 139.64 426.556 129.456 430.028 124.5C435.44 116.715 449.837 105.866 455.034 112.082Z" fill="#82D293"/>
<path d="M419.466 166.734C421.76 161.953 427.005 159.047 432.303 158.825C437.6 158.603 442.76 161.01 446.536 164.662C448.296 166.4 449.825 168.585 449.742 171.024C449.591 173.342 447.733 175.169 445.714 176.128C443.627 176.965 441.256 177.002 438.994 176.66C431.205 175.55 423.864 173.234 419.466 166.734Z" fill="#82D293"/>
<path d="M394.27 181.968C394.27 181.968 394.812 181.508 395.653 180.723C396.615 179.871 397.944 178.815 399.571 177.435C402.892 174.797 407.529 170.792 413.858 168.403C419.997 165.959 426.283 165.508 430.564 166.328C432.704 166.738 434.411 167.228 435.494 167.745C436.063 167.909 436.51 168.14 436.767 168.316C437.024 168.493 437.214 168.548 437.214 168.548C437.159 168.737 434.79 167.337 430.455 166.707C426.242 166.009 420.145 166.515 414.006 168.959C407.867 171.403 403.285 175.218 399.774 177.802C398.079 179.06 396.628 180.182 395.788 180.967C394.88 181.63 394.27 181.968 394.27 181.968Z" fill="#263238"/>
<path d="M444.816 121.255C444.816 121.255 444.639 121.512 444.409 121.959C444.056 122.474 443.581 123.056 443.052 123.828C441.872 125.439 440.041 127.889 437.79 130.733C433.355 136.541 427.13 144.298 419.942 152.908C412.876 161.45 406.205 168.976 401.377 174.364C398.936 177.152 396.902 179.237 395.532 180.793C394.814 181.511 394.339 182.093 393.919 182.485C393.499 182.878 393.322 183.135 393.255 183.013C393.255 183.013 393.431 182.756 393.729 182.431C394.082 181.916 394.624 181.456 395.275 180.617C396.645 179.06 398.611 176.854 400.93 174.133C405.69 168.623 412.172 161.042 419.36 152.433C426.426 143.89 432.773 136.065 437.275 130.379C439.527 127.536 441.303 125.275 442.673 123.719C443.202 122.947 443.799 122.297 444.219 121.905C444.572 121.39 444.748 121.133 444.816 121.255Z" fill="#263238"/>
<path d="M405.798 162.496C411.51 152.948 412.103 140.492 407.369 130.508C406.139 127.999 404.082 125.149 401.277 125.266C398.473 125.384 396.601 128.336 395.718 131.059C392.01 142.209 395.887 155.54 405.134 163.023" fill="#82D293"/>
<path d="M402.875 137.939C402.875 137.939 403.213 138.549 403.754 139.526C404.025 140.015 404.241 140.693 404.525 141.493C404.809 142.293 405.092 143.093 405.322 144.083C405.551 145.073 405.97 146.117 406.146 147.297C406.443 148.409 406.563 149.778 406.684 151.148C406.926 153.886 406.923 156.76 406.433 159.904C405.943 163.048 405.127 165.893 404.109 168.372C403.539 169.645 403.023 170.729 402.386 171.88C401.87 172.964 401.219 173.803 400.635 174.765C400.174 175.659 399.455 176.376 398.981 176.958C398.506 177.54 398.031 178.122 397.611 178.515C396.77 179.3 396.418 179.814 396.35 179.692C396.282 179.57 398.018 177.81 400.31 174.466C400.772 173.572 401.423 172.733 401.939 171.649C402.522 170.687 402.97 169.482 403.54 168.208C404.558 165.729 405.374 162.884 405.81 159.93C406.178 156.853 406.303 153.912 406.129 151.296C406.008 149.927 405.833 148.747 405.658 147.567C405.483 146.388 405.185 145.276 404.956 144.286C403.848 140.272 402.753 138.007 402.875 137.939Z" fill="#263238"/>
<path d="M114.046 214.031C114.076 214.015 114.099 213.984 114.13 213.968C114.344 213.741 114.339 213.393 114.112 213.179C95.9101 195.59 81.8776 185.413 68.6349 180.165C61.0423 177.165 53.8034 175.833 46.5074 176.089C38.8715 176.363 31.3584 178.385 23.5519 182.253C23.2754 182.396 23.1559 182.73 23.2986 183.007C23.4414 183.284 23.7754 183.404 24.0519 183.261C55.562 167.624 82.512 184.229 113.326 213.993C113.537 214.176 113.839 214.196 114.046 214.031Z" fill="#82D293"/>
<path d="M57.3313 177.285C47.7312 166.655 29.7619 167.289 17.2157 183.278C38.1156 192.934 49.9925 183.872 57.3313 177.285Z" fill="#2FB44B"/>
<path d="M57.3313 177.285C42.9278 175.596 26.737 179.267 17.2157 183.278C29.7619 167.289 47.7312 166.655 57.3313 177.285Z" fill="#82D293"/>
<path d="M162.495 198.345C166.569 129.804 78.8461 111.592 55.2735 121.502C54.7379 187.928 134.666 214.558 134.666 214.558L162.495 198.345Z" fill="#82D293"/>
<path d="M134.666 214.558C134.666 214.558 54.7379 187.928 55.2735 121.502C106.744 159.43 138.434 186.931 155.258 202.562L134.666 214.558Z" fill="#299941"/>
<path d="M131.613 208.85C117.25 192.749 98.3692 182.559 73.5634 197.019C76.2325 226.8 121.584 223.347 121.584 223.347L131.613 208.85Z" fill="#82D293"/>
<path d="M121.599 223.339C121.599 223.339 76.2471 226.792 73.578 197.011C73.578 197.011 111.086 208.408 128.166 213.859L121.599 223.339Z" fill="#2FB44B"/>
<path d="M301.241 36.1077C230.108 36.1077 172.459 93.6221 172.459 164.59C172.459 235.557 230.108 293.071 301.241 293.071C372.375 293.071 430.024 235.557 430.024 164.59C430.024 93.6221 372.375 36.1077 301.241 36.1077ZM301.241 37.5739C371.566 37.5739 428.554 94.4286 428.554 164.59C428.554 234.751 371.566 291.605 301.241 291.605C230.916 291.605 173.929 234.714 173.929 164.59C173.929 94.4652 230.916 37.5739 301.241 37.5739Z" fill="#82D293"/>
<path d="M185.585 35.5894C125.515 35.5894 76.832 84.0538 76.832 143.854C76.832 203.655 125.515 252.12 185.585 252.12C245.655 252.12 294.338 203.655 294.338 143.854C294.338 84.0538 245.655 35.5894 185.585 35.5894ZM185.585 36.8249C244.973 36.8249 293.097 84.7334 293.097 143.854C293.097 202.976 244.973 250.884 185.585 250.884C126.198 250.884 78.0732 202.945 78.0732 143.854C78.0732 84.7643 126.198 36.8249 185.585 36.8249Z" fill="#82D293"/>
<path d="M252.851 308.664C338.261 308.664 407.5 239.567 407.5 154.332C407.5 69.0967 338.261 0 252.851 0C167.442 0 98.2031 69.0967 98.2031 154.332C98.2031 239.567 167.442 308.664 252.851 308.664Z" fill="#D5F0DB"/>
<path d="M126.447 82.5574C126.447 80.6658 126.301 78.6287 126.447 76.7372C127.031 70.7715 126.009 66.4064 119.732 62.6233C109.074 56.2211 105.425 42.6892 109.22 30.6124C112.578 19.4086 122.944 11.2604 134.331 10.6783C146.594 10.0963 157.251 16.7895 161.923 29.0119C163.383 32.9405 165.281 33.959 169.223 33.8135C176.23 33.5225 183.238 33.8135 190.391 33.668C194.625 33.668 198.567 34.25 198.421 39.6336C198.275 44.8718 194.333 45.4538 190.099 45.4538C187.179 45.4538 184.26 45.5993 181.34 45.4538C171.704 45.0173 161.923 42.8347 157.397 55.7846C155.499 61.0227 149.514 64.2238 142.652 65.5334C139.002 66.2609 137.981 69.8985 138.127 73.3906C138.419 80.3748 138.127 87.359 138.273 94.4887C138.273 98.7083 137.543 102.637 132.287 102.491C127.031 102.346 126.447 98.4173 126.593 94.1977C126.447 90.2691 126.447 86.486 126.447 82.5574ZM152.434 39.4881C152.434 30.3214 144.988 22.4642 136.229 22.3187C127.177 22.1732 119.44 30.1759 119.586 39.7792C119.732 48.9459 127.031 56.9486 135.791 57.0941C144.55 57.0941 152.434 48.8004 152.434 39.4881Z" fill="#2FB44B"/>
<path d="M138.274 136.394C138.274 138.14 138.274 139.741 138.274 141.487C137.982 145.124 136.084 147.452 132.288 147.307C128.492 147.161 126.74 144.833 126.594 141.196C126.448 137.995 126.594 134.939 126.594 131.738C126.594 127.809 128.2 124.899 132.288 124.754C136.814 124.608 138.566 127.664 138.42 132.029C138.128 133.484 138.274 134.939 138.274 136.394Z" fill="#2FB44B"/>
<path d="M231.122 45.4543C227.326 45.4543 223.822 46.0363 221.632 42.5442C220.027 40.0706 220.318 37.4516 222.508 35.269C224.99 32.7954 237.254 32.7954 239.735 35.269C241.925 37.3061 242.363 39.7796 240.757 42.3987C238.13 46.3273 234.334 45.3088 231.122 45.4543Z" fill="#2FB44B"/>
<path d="M376.518 236.953C376.518 239.152 376.666 241.351 376.518 243.55C375.783 249.708 377.254 253.813 383.285 257.625C393.876 264.222 397.554 277.857 393.729 290.026C390.052 301.461 379.755 309.525 368.281 309.965C355.777 310.551 345.186 303.807 340.626 291.345C339.008 287.24 336.948 286.507 333.124 286.654C325.769 286.8 318.414 286.654 311.059 286.8C307.087 286.8 303.998 285.627 303.851 281.376C303.704 276.831 306.793 274.925 311.059 274.925C318.708 274.925 326.21 274.778 333.859 274.925C337.537 275.071 339.302 274.192 340.626 270.38C343.862 261.143 350.482 254.693 360.337 252.64C364.162 251.76 364.75 249.854 364.75 246.629C364.603 239.298 364.75 231.968 364.75 224.637C364.75 220.826 365.78 217.6 370.193 217.454C374.9 217.16 376.518 220.386 376.518 224.491C376.518 228.596 376.518 232.701 376.518 236.953ZM366.663 298.236C375.93 298.382 383.432 290.465 383.432 280.789C383.285 271.406 375.93 263.489 367.251 263.343C358.278 263.196 350.335 271.553 350.482 280.936C350.335 290.319 357.837 298.089 366.663 298.236Z" fill="#2FB44B"/>
<path d="M376.519 183.587C376.519 185.346 376.519 186.959 376.519 188.718C376.372 192.383 374.46 194.876 370.782 195.022C366.664 195.169 364.751 192.53 364.751 188.425C364.751 185.492 364.751 182.56 364.751 179.628C364.604 175.376 366.222 172.151 370.782 172.298C375.343 172.444 376.667 175.816 376.667 179.921C376.519 181.094 376.519 182.414 376.519 183.587Z" fill="#2FB44B"/>
<path d="M270.902 286.8C268.99 286.654 266.931 286.8 265.018 286.507C262.223 286.067 260.752 284.015 260.458 281.522C260.164 278.883 261.341 276.538 263.989 275.805C268.696 274.339 273.55 274.192 278.258 275.951C280.905 276.831 281.788 279.177 281.347 281.816C281.053 284.455 279.434 286.361 276.639 286.654C274.874 286.654 272.962 286.8 270.902 286.8C270.902 286.8 270.902 286.654 270.902 286.8Z" fill="#2FB44B"/>
<g clip-path="url(#clip0_1016_13530)">
<path d="M173.026 301.001C167.39 301.001 161.754 301.013 156.118 301.001C152.186 300.988 149.08 298.828 147.913 295.338C147.874 295.234 147.848 295.131 147.821 295.027C147.454 293.747 147.454 293.747 146.052 293.722C132.958 293.489 121.87 283.223 120.821 270.385C119.72 256.797 129.17 244.967 142.841 242.847C143.706 242.718 144.584 242.653 145.449 242.614C145.921 242.601 146.131 242.446 146.249 241.981C147.952 235.93 151.452 231.121 156.708 227.578C171.322 217.726 191.808 225.238 196.329 242.11C196.447 242.563 196.605 242.718 197.116 242.679C210.812 241.554 222.766 250.669 225.125 263.998C227.589 277.961 217.392 291.627 203.132 293.476C201.821 293.644 200.484 293.67 199.147 293.735C198.793 293.747 198.623 293.825 198.531 294.213C197.614 298.466 194.429 301.001 189.986 301.013C184.337 301.013 178.688 301.001 173.026 301.001ZM173.078 269.791C167.416 269.791 161.767 269.791 156.105 269.791C153.811 269.791 152.396 271.187 152.382 273.462C152.369 274.923 152.382 276.397 152.382 277.858C152.382 280.302 153.772 281.672 156.236 281.672C167.455 281.672 178.688 281.672 189.907 281.672C192.397 281.672 193.787 280.302 193.8 277.819C193.813 276.423 193.8 275.014 193.8 273.617C193.8 271.135 192.424 269.791 189.907 269.791C184.297 269.791 178.688 269.791 173.078 269.791ZM173.065 296.204C178.701 296.204 184.337 296.204 189.973 296.204C192.358 296.204 193.774 294.834 193.8 292.493C193.813 290.968 193.813 289.429 193.8 287.904C193.774 285.758 192.332 284.335 190.169 284.335C178.793 284.322 167.416 284.322 156.039 284.335C153.837 284.335 152.409 285.758 152.396 287.942C152.382 289.403 152.396 290.877 152.396 292.338C152.396 294.872 153.746 296.204 156.315 296.204C161.885 296.217 167.481 296.204 173.065 296.204ZM173.039 267.114C178.701 267.114 184.35 267.114 190.012 267.114C192.345 267.114 193.774 265.744 193.8 263.43C193.826 261.904 193.813 260.365 193.8 258.84C193.774 256.681 192.371 255.246 190.195 255.246C178.793 255.233 167.403 255.233 156 255.246C153.811 255.246 152.409 256.668 152.396 258.827C152.382 260.314 152.396 261.801 152.396 263.287C152.396 265.77 153.759 267.114 156.288 267.114C161.859 267.114 167.455 267.114 173.039 267.114Z" fill="#2FB44B"/>
<path d="M162.541 275.712C162.541 277.173 161.374 278.336 159.893 278.336C158.398 278.336 157.219 277.186 157.219 275.725C157.219 274.264 158.398 273.087 159.88 273.087C161.348 273.087 162.541 274.251 162.541 275.712Z" fill="#2FB44B"/>
<path d="M162.54 290.282C162.54 291.743 161.347 292.907 159.866 292.907C158.398 292.907 157.205 291.718 157.205 290.27C157.205 288.809 158.411 287.645 159.879 287.645C161.373 287.645 162.553 288.822 162.54 290.282Z" fill="#2FB44B"/>
<path d="M162.541 261.206C162.528 262.667 161.322 263.83 159.854 263.818C158.386 263.805 157.193 262.615 157.219 261.154C157.232 259.693 158.438 258.53 159.906 258.543C161.388 258.568 162.554 259.745 162.541 261.206Z" fill="#2FB44B"/>
</g>
<g clip-path="url(#clip1_1016_13530)">
<path d="M269.34 199.534C269.34 201.747 269.137 204.012 269.391 206.225C269.697 208.798 268.525 209.776 266.335 210.599C257.065 214.047 247.437 214.819 237.759 213.739C231.494 213.07 225.331 211.32 219.065 210.136C217.384 209.827 216.671 209.055 216.773 207.203C217.028 201.233 216.569 195.16 217.384 189.241C218.556 180.389 226.298 173.698 235.111 173.287C240.459 173.029 245.807 173.029 251.156 173.287C261.089 173.801 269.086 182.242 269.34 192.329C269.34 194.696 269.289 197.115 269.34 199.534Z" fill="#2FB44B"/>
<path d="M224.008 157.332C224.466 162.221 226.147 166.647 229.815 170.353C217.233 175.345 212.241 184.815 213.311 198.556C205.212 196.961 197.622 195.468 189.574 193.873C189.829 186.41 189.523 179.359 190.491 172.463C191.612 164.486 198.845 158.104 206.842 157.435C212.445 156.92 218.15 157.332 224.008 157.332Z" fill="#82D293"/>
<path d="M256.453 170.354C259.917 166.597 261.802 162.325 262.209 157.024C268.678 157.333 275.147 156.149 281.361 158.156C289.155 160.678 294.554 168.089 294.758 176.324C294.86 181.367 294.86 186.411 294.707 191.454C294.707 192.278 293.892 193.462 293.128 193.822C288.442 196.189 278.713 198.094 272.957 197.836C273.976 184.918 269.086 175.346 256.453 170.354Z" fill="#2FB44B"/>
<path d="M298.323 182.19C299.342 169.067 294.299 159.649 282.686 155.017C284.57 150.642 286.455 146.319 288.645 141.224C293.484 141.43 299.393 141.121 305.098 142.099C313.604 143.54 319.921 151.671 320.175 160.421C320.328 165.567 320.124 170.714 320.277 175.809C320.328 177.404 319.462 177.867 318.342 178.382C313.401 180.595 304.69 182.293 298.323 182.19Z" fill="#82D293"/>
<path d="M242.293 127.122C233.074 127.122 225.586 119.557 225.586 110.293C225.586 101.029 233.074 93.4639 242.242 93.4639C251.564 93.4124 259.103 101.029 259.052 110.396C259.001 119.711 251.513 127.174 242.293 127.122Z" fill="#82D293"/>
<path d="M243.057 172.052C234.601 172 227.674 165.052 227.674 156.509C227.674 147.914 234.754 140.864 243.261 140.915C251.665 141.018 258.593 148.12 258.542 156.561C258.491 165.155 251.512 172.103 243.057 172.052Z" fill="#2FB44B"/>
<path d="M215.962 156.098C207.558 155.892 200.783 149.047 200.63 140.555C200.528 132.372 207.15 125.27 215.147 124.91C223.806 124.549 230.938 130.88 231.396 139.423C231.447 140.349 230.785 141.379 230.276 142.305C228.544 145.187 226.201 147.863 225.08 150.951C224.214 153.422 222.89 154.657 220.699 155.223C219.171 155.635 217.541 155.84 215.962 156.098Z" fill="#82D293"/>
<path d="M293.383 140.349C292.822 140.246 291.651 140.092 290.479 139.886C288.442 139.577 287.321 138.702 286.914 136.335C286.15 132.063 283.756 128.46 280.241 125.836C278.866 124.806 278.509 123.88 278.815 122.182C280.241 114.102 287.576 108.389 295.522 109.367C303.723 110.345 309.784 117.292 309.377 125.321C309.02 133.71 302.246 140.349 293.383 140.349Z" fill="#82D293"/>
<path d="M267.864 155.943C267.405 155.891 266.234 155.737 265.113 155.582C263.076 155.274 262.006 154.296 261.598 152.031C260.733 147.605 258.186 144.106 254.722 141.224C254.009 140.606 253.398 139.268 253.499 138.29C254.314 130.159 261.802 124.291 270.258 125.012C278.102 125.681 284.367 132.989 284.062 141.018C283.654 149.407 276.931 155.943 267.864 155.943Z" fill="#2FB44B"/>
<path d="M234.703 138.856C233.685 135.614 232.615 132.269 231.443 128.666C238.626 128.666 245.91 128.666 253.295 128.666C252.175 131.908 251.105 135.048 250.035 138.136C247.59 137.878 244.891 137.261 242.293 137.364C239.644 137.467 237.046 138.342 234.703 138.856Z" fill="#82D293"/>
</g>
<g clip-path="url(#clip2_1016_13530)">
<path d="M380.953 57.9401C349.677 57.9401 318.607 57.9401 287.279 57.9401C288.257 52.8681 289.183 47.6425 290.16 42.3656C292.32 30.6334 294.481 18.9012 296.642 7.16907C297.207 3.94145 298.545 2.66064 301.786 2.66064C323.442 2.66064 344.996 2.66064 366.601 2.71188C369.636 2.71188 371.128 3.99268 371.642 6.75922C374.78 23.6658 377.866 40.6237 381.004 57.5303C381.004 57.684 381.004 57.8889 380.953 57.9401ZM333.164 41.4434C338.926 41.4434 344.636 41.4434 350.397 41.4434C352.455 41.4434 354.512 41.2897 356.416 40.47C358.833 39.4453 360.685 37.9084 360.942 35.0906C361.2 32.3241 359.708 30.0186 357.342 29.1477C353.792 27.8156 351.529 25.6126 349.162 22.5899C344.327 16.3909 332.238 16.8007 327.094 22.7436C326.22 23.7683 325.397 24.1781 324.111 24.0757C321.796 23.8708 319.224 24.2294 317.938 25.9713C315.932 28.789 313.257 30.0698 310.222 31.2482C308.216 32.0167 307.033 33.9123 307.187 36.1665C307.341 38.5744 308.987 39.9064 311.148 40.7261C312.691 41.2897 314.286 41.4434 315.932 41.4434C321.693 41.3921 327.403 41.4434 333.164 41.4434Z" fill="#2FB44B"/>
<path d="M333.936 60.9117C347.722 60.9117 361.508 60.9117 375.294 60.9117C376.58 60.9117 377.866 60.8605 379.101 61.3216C381.261 62.1925 382.445 63.4733 382.084 65.9837C381.261 71.8241 380.593 77.6646 379.873 83.5051C379.564 86.0667 377.918 87.45 375.603 88.0135C374.317 88.3209 372.877 88.4234 371.539 88.4234C346.59 88.4234 321.693 88.4234 296.744 88.4234C295.407 88.4234 293.967 88.3209 292.681 87.9623C290.366 87.3475 288.771 85.9642 288.462 83.4026C287.794 77.7158 287.022 72.0803 286.353 66.3935C285.942 62.7561 287.434 61.0142 291.24 60.9117C295.253 60.8092 299.316 60.8605 303.329 60.8605C313.565 60.9117 323.751 60.9117 333.936 60.9117ZM359.708 72.6951C358.062 72.9513 356.055 73.2074 355.953 75.3079C355.901 77.4085 357.907 77.7671 359.502 77.6646C361.045 77.5621 362.846 77.4597 362.897 75.1542C362.949 72.9 361.302 72.9513 359.708 72.6951ZM349.471 72.7463C347.671 72.9513 345.562 73.0537 345.613 75.4616C345.664 77.5621 347.722 77.6134 349.317 77.7671C351.271 77.972 352.506 76.7424 352.558 75.0518C352.558 73.3611 351.271 72.4902 349.471 72.7463ZM369.687 77.7158C371.282 77.3572 373.185 77.0498 373.185 75.0518C373.185 73.1562 371.385 72.6951 369.79 72.7976C368.093 72.9 366.344 73.5148 366.395 75.5129C366.447 77.306 368.195 77.5109 369.687 77.7158Z" fill="#2FB44B"/>
<path d="M333.165 41.4434C327.404 41.4434 321.694 41.4434 315.932 41.4434C314.286 41.4434 312.692 41.2897 311.148 40.7261C309.039 39.9064 307.342 38.5744 307.187 36.1665C307.033 33.9122 308.216 32.0167 310.222 31.2482C313.257 30.0698 315.932 28.7378 317.939 25.9713C319.225 24.1781 321.797 23.8707 324.111 24.0757C325.449 24.1781 326.221 23.7683 327.095 22.7436C332.239 16.8007 344.328 16.3909 349.163 22.5899C351.53 25.6126 353.793 27.8156 357.343 29.1477C359.709 30.0698 361.201 32.324 360.943 35.0906C360.686 37.8571 358.834 39.4453 356.417 40.47C354.513 41.2897 352.456 41.4434 350.398 41.4434C344.637 41.4434 338.927 41.4434 333.165 41.4434Z" fill="white"/>
</g>
<defs>
<clipPath id="clip0_1016_13530">
<rect width="104.762" height="77.8312" fill="white" transform="translate(120.73 223.182)"/>
</clipPath>
<clipPath id="clip1_1016_13530">
<rect width="130.703" height="120.738" fill="white" transform="translate(189.576 93.4639)"/>
</clipPath>
<clipPath id="clip2_1016_13530">
<rect width="95.7826" height="85.8138" fill="white" transform="translate(286.354 2.66064)"/>
</clipPath>
</defs>
</svg>
