<svg width="24" height="20" viewBox="0 0 24 20" fill="none" xmlns="http://www.w3.org/2000/svg">
<g clip-path="url(#clip0_1077_2061)">
<path d="M3.63817 15.3627C2.49442 14.0602 1.37879 12.7946 0.253791 11.529C0.0569162 11.3073 -0.0837088 11.0948 0.0569162 10.79C0.206916 10.4851 0.469416 10.4574 0.760041 10.4574C1.11629 10.4574 1.57567 10.6052 1.79129 10.3927C2.00692 10.1803 1.84754 9.71836 1.86629 9.37656C2.13817 5.05323 5.24129 1.34884 9.51629 0.32344C12.7694 -0.452542 15.7507 0.212585 18.4038 2.25416C18.7319 2.50358 18.8725 2.6791 18.4882 3.04861C17.9257 3.59365 17.4288 4.22182 16.9319 4.83152C16.7538 5.05323 16.6413 5.06247 16.4163 4.87771C15.0475 3.74145 13.4632 3.23337 11.6725 3.27032C8.62567 3.31651 5.70067 5.83845 5.25067 8.82228C5.18504 9.2657 5.14754 9.70912 5.14754 10.1525C5.14754 10.3927 5.21317 10.4759 5.46629 10.4666C5.86942 10.4482 6.28192 10.4482 6.68504 10.4666C7.20067 10.4943 7.47254 11.0024 7.13504 11.3904C5.99129 12.7207 4.81004 14.0324 3.63817 15.3627Z" fill="#3D3D3D"/>
<path d="M12.233 19.9905C9.78611 19.9905 7.78924 19.3346 5.98924 18.0598C5.73611 17.8843 5.67049 17.7642 5.91424 17.5055C6.47674 16.905 7.01111 16.2861 7.52674 15.6487C7.74236 15.39 7.87361 15.3808 8.14549 15.5748C10.9111 17.4593 14.6611 17.0621 16.9674 14.651C18.0174 13.5609 18.608 12.2492 18.8142 10.7619C18.8424 10.5309 18.7861 10.4662 18.5517 10.4755C18.1767 10.494 17.8017 10.4662 17.4267 10.4847C17.1361 10.494 16.9017 10.4108 16.7799 10.1337C16.658 9.86578 16.7611 9.63484 16.958 9.42237C17.8205 8.45239 18.6736 7.47317 19.5549 6.5032C19.8267 6.19835 20.0517 5.65331 20.408 5.69026C20.6986 5.71798 20.9517 6.2353 21.2142 6.54015C22.058 7.49165 22.8924 8.44315 23.7361 9.39465C23.933 9.60712 24.0924 9.82883 23.9517 10.1337C23.8017 10.4662 23.5299 10.4847 23.2111 10.494C22.8549 10.494 22.3861 10.3369 22.1799 10.5679C21.983 10.7896 22.0674 11.2422 22.0205 11.584C21.4767 15.5471 18.0361 19.0944 14.0424 19.815C13.3767 19.9166 12.6924 20.0182 12.233 19.9905Z" fill="#3D3D3D"/>
</g>
<defs>
<clipPath id="clip0_1077_2061">
<rect width="24" height="20" fill="#3D3D3D"/>
</clipPath>
</defs>
</svg>
