<svg width="42" height="42" viewBox="0 0 42 42" fill="none" xmlns="http://www.w3.org/2000/svg">
<circle cx="21" cy="21" r="21" fill="#2FB44B"/>
<g clip-path="url(#clip0_904_5948)">
<path d="M20.9681 29.9821C17.874 29.9821 14.7798 29.9821 11.6856 29.9821C10.4928 29.9821 9.99951 29.4937 9.99951 28.3216C9.99951 23.4197 9.99951 18.5268 9.99951 13.625C9.99951 12.515 10.5107 12.0088 11.6408 12.0088C12.8246 11.9999 13.9995 12.0177 15.1834 11.9999C15.6766 11.991 16.0802 12.1331 16.4659 12.4261C17.4076 13.1454 18.3583 13.8647 19.3358 14.5574C19.569 14.7261 19.9009 14.8415 20.1879 14.8415C23.5331 14.8593 26.8784 14.8859 30.2327 14.8415C31.4345 14.8238 32.0175 15.6141 32.0085 16.6176C31.9726 20.5071 31.9726 24.3965 32.0085 28.2949C32.0175 29.3428 31.4614 30.0265 30.2596 30.0088C27.1565 29.9555 24.0623 29.9821 20.9681 29.9821ZM20.9412 26.217C21.4076 26.217 21.865 26.2347 22.3314 26.217C23.2641 26.1815 23.8112 25.6131 23.8201 24.6896C23.8201 24.0946 23.8201 23.5085 23.8201 22.9136C23.8201 22.4696 23.6856 22.0344 23.3089 21.8391C22.8426 21.6082 22.8515 21.2707 22.8426 20.8623C22.8067 19.7256 21.7484 18.9086 20.6273 19.1129C19.6587 19.2905 19.0668 20.0098 19.0578 21.0221C19.0578 21.324 19.0668 21.5638 18.708 21.7414C18.2686 21.9634 18.0892 22.3985 18.0802 22.8958C18.0802 23.4908 18.0802 24.0769 18.0802 24.6718C18.0892 25.622 18.6453 26.1903 19.6049 26.217C20.0444 26.2259 20.4928 26.217 20.9412 26.217Z" fill="url(#paint0_linear_904_5948)"/>
<path d="M30.9591 13.8915C30.7528 13.8915 30.5465 13.8915 30.3402 13.8915C27.0219 13.8915 23.7124 13.9004 20.3941 13.8827C20.1519 13.8827 19.8739 13.7761 19.6676 13.6429C19.1564 13.3054 18.6811 12.9236 18.125 12.5151C18.3044 12.4974 18.421 12.4796 18.5286 12.4796C22.1698 12.4796 25.8111 12.4796 29.4613 12.4796C30.3761 12.4707 30.9591 13.0213 30.9591 13.8915Z" fill="url(#paint1_linear_904_5948)"/>
<path d="M21.8919 21.4307C21.2462 21.4307 20.6363 21.4307 20.0085 21.4307C19.9278 20.9512 19.9816 20.5338 20.3852 20.2319C20.717 19.9921 21.0758 19.9744 21.4256 20.1875C21.8919 20.4717 21.9547 20.9068 21.8919 21.4307Z" fill="url(#paint2_linear_904_5948)"/>
</g>
<defs>
<linearGradient id="paint0_linear_904_5948" x1="11.409" y1="14.5026" x2="28.4729" y2="34.5561" gradientUnits="userSpaceOnUse">
<stop stop-color="white"/>
<stop offset="1" stop-color="white" stop-opacity="0"/>
</linearGradient>
<linearGradient id="paint1_linear_904_5948" x1="18.9469" y1="12.6761" x2="19.254" y2="15.3559" gradientUnits="userSpaceOnUse">
<stop stop-color="white"/>
<stop offset="1" stop-color="white" stop-opacity="0"/>
</linearGradient>
<linearGradient id="paint2_linear_904_5948" x1="20.1005" y1="20.2325" x2="21.3817" y2="21.9462" gradientUnits="userSpaceOnUse">
<stop stop-color="white"/>
<stop offset="1" stop-color="white" stop-opacity="0"/>
</linearGradient>
<clipPath id="clip0_904_5948">
<rect width="22" height="18" fill="white" transform="translate(10 12)"/>
</clipPath>
</defs>
</svg>
