<svg fill="#303033" version="1.1" id="Capa_1" xmlns="http://www.w3.org/2000/svg" xmlns:xlink="http://www.w3.org/1999/xlink" 
	 width="40px" height="40px" viewBox="0 0 45.784 45.784"
	 xml:space="preserve">
<g>
	<g>
		<path d="M34.418,24.116c0-1.68-1.361-3-3.042-3h-5.447V16c0-1.681-1.364-3.043-3.045-3.043c-1.682,0-3.045,1.362-3.045,3.043
			v8.113c0,1.682,1.384,3.003,3.064,3.003h8.474C33.056,27.116,34.418,25.797,34.418,24.116z"/>
		<path d="M40.791,38.321c7.184-8.988,6.617-22.173-1.705-30.497c-4.322-4.32-10.074-6.701-16.203-6.701
			c-6.127,0-11.881,2.38-16.2,6.701C-1.341,15.848-2.253,28.73,4.564,37.79c0.646,0.858,1.631,1.396,2.704,1.472
			c1.078,0.078,2.136-0.322,2.922-1.109c1.39-1.391,1.556-3.551,0.394-5.137c-4.393-6.002-3.736-14.497,1.528-19.761
			C14.984,10.382,18.81,8.8,22.883,8.8c4.076,0,7.9,1.582,10.771,4.454c5.323,5.324,5.874,13.64,1.654,19.583l-1.413-1.412
			c-0.808-0.807-2.042-1.058-3.099-0.619c-1.072,0.443-1.747,1.482-1.747,2.644v8.351c0,1.578,1.244,2.86,2.822,2.86h8.35
			c1.162,0,2.198-0.692,2.645-1.767c0.444-1.071,0.201-2.295-0.62-3.117L40.791,38.321z"/>
	</g>
</g>
</svg>