<svg fill="#000000" width="40px" height="40px" viewBox="0 0 20 32" version="1.1" xmlns="http://www.w3.org/2000/svg">
<path d="M19.063 8.094c2.063 2.063 3.344 4.875 3.344 7.906 0 3.063-1.281 5.813-3.344 7.875s-4.844 3.313-7.875 3.313c-3.063 0-5.813-1.25-7.875-3.313s-3.313-4.813-3.313-7.875c0-3.031 1.25-5.844 3.313-7.906s4.813-3.313 7.875-3.313c3.031 0 5.813 1.25 7.875 3.313zM12.469 22.313h0.063c0.094 0 0.188 0.031 0.25 0.125 0.063 0.063 0.125 0.125 0.25 0.125 0.031 0 0.063-0.031 0.063-0.094 0-0.125 0.031-0.25 0.031-0.281 0.031-0.094 0.094-0.094 0.156-0.094 0.031 0 0.031 0 0.031-0.063l-0.063-0.063c-0.031 0-0.063 0.031-0.063 0.063-0.031 0.031-0.063 0.063-0.094 0l-0.188 0.125-0.219-0.063-0.375-0.563 0.125-0.813c0-0.031-0.031-0.094-0.125-0.125s-0.094-0.094-0.063-0.125c-0.125-0.063-0.281-0.125-0.469-0.125-0.031 0-0.125 0.031-0.281 0.063-0.156 0-0.25 0-0.25-0.063 0-0.094 0.094-0.281 0.156-0.5 0.031-0.094 0.063-0.25 0.094-0.313 0-0.063 0.031-0.125 0.031-0.125l0.156-0.375-0.031-0.063-0.219-0.031c-0.063 0-0.281 0.125-0.438 0.25-0.156 0.188-0.281 0.344-0.281 0.469l-0.625 0.125c-0.125 0-0.25-0.031-0.344-0.156-0.031-0.156-0.125-0.344-0.25-0.531-0.125-0.156-0.156-0.313-0.156-0.469 0-0.188 0.031-0.438 0.094-0.594 0.063-0.188 0.063-0.406-0.063-0.594 0.031 0 0.125-0.063 0.063-0.125l0.156-0.188 0.031-0.031 0.031 0.031c0.125-0.094 0.344-0.125 0.531-0.094 0.219 0.031 0.344-0.063 0.406-0.219l0.219 0.219c0.063 0.031 0.188-0.188 0.188-0.25l-0.094-0.063 0.563-0.125 0.031 0.063h0.25l0.313 0.188c0.031 0 0.063-0.031 0.094-0.063 0.063-0.063 0.094-0.063 0.125-0.031l0.281 0.313c-0.031 0.063-0.031 0.125-0.031 0.188 0.031 0.031 0.063 0.063 0.063 0.094 0 0.125 0.281 0.688 0.438 0.688 0.094 0 0.125-0.063 0.094-0.188v-0.25c0-0.156-0.031-0.344-0.094-0.531-0.094-0.156-0.156-0.375-0.219-0.563v-0.063c0-0.094 0.063-0.188 0.188-0.25 0.094-0.063 0.156-0.125 0.156-0.125 0.094-0.063 0.188-0.156 0.313-0.219 0.094-0.063 0.188-0.219 0.25-0.313l0.094-0.219v-0.125h0.094s0.063-0.031 0.063-0.094c0 0-0.031-0.031-0.063-0.031-0.031-0.031-0.125-0.094-0.188-0.156l0.063-0.063c0.094-0.094 0.125-0.313 0.063-0.406l0.25-0.125c-0.063 0.125 0.125 0.156 0.188 0.125l0.125-0.281c-0.063-0.156-0.094 0 0-0.188 0.094-0.031 0.188-0.063 0.281-0.125 0.094-0.031 0.156-0.063 0.25-0.063 0.031 0 0.063 0.031 0.063 0.031 0.063 0 0.094-0.031 0.094-0.031 0-0.094-0.031-0.156-0.063-0.156l0.156-0.344c0.125 0 0.25-0.063 0.313-0.188l0.25-0.031c0.063 0 0.094-0.031 0.094-0.094v-0.063l0.469-0.125 0.063-0.156-0.125-0.188s0.031-0.031 0.031-0.063-0.031-0.063-0.063-0.094c-0.031 0-0.063-0.031-0.094-0.031-0.031-0.031-0.063-0.063-0.094-0.063h0.25s0.125-0.031 0.125-0.125c0-0.125-0.063-0.156-0.188-0.156-0.344 0-0.875 0.125-1.063 0.5l-0.188 0.094 0.25-0.25 0.031-0.063c0-0.031-0.031-0.063-0.094-0.094h-0.094c0.313 0 0.5-0.094 0.625-0.188 0.094-0.094 0.188-0.188 0.406-0.25 0.219 0.031 0.438 0.031 0.656 0.031 0.188-0.031 0.375-0.031 0.594-0.031 0.094-0.063 0.219-0.188 0.281-0.313l0.313-0.031c0.063 0.063 0.281-0.094 0.281-0.188s-0.031-0.125-0.125-0.156-0.188-0.094-0.188-0.188v-0.094c0.031-0.031 0-0.063-0.031-0.063-0.125 0-0.438 0.156-0.531 0.219-0.063 0.063-0.094-0.031-0.094-0.094l0.031 0.031 0.125-0.063 0.313-0.125 0.031-0.031c0-0.125-0.188-0.156-0.25-0.156-0.031 0-0.094 0.031-0.156 0.063-0.063 0-0.125 0-0.125-0.063l0.031-0.063c-0.219-0.156-0.406-0.469-0.406-0.563v-0.125c0.031-0.031 0-0.031-0.063-0.031h-0.094c-0.031 0.031-0.063 0-0.063-0.063s-0.125-0.406-0.281-0.406l-0.094 0.094c0 0.063-0.031 0.094-0.094 0.125s-0.094 0.063-0.094 0.094h-0.031l-0.313 0.188c0-0.063-0.031-0.063-0.063-0.031-0.031 0-0.031 0.031-0.094 0.031h-0.063c0.156 0 0.125-0.219 0-0.219l-0.25 0.031c-0.063 0-0.063 0 0-0.063 0.031-0.063 0.094-0.125 0.031-0.188 0-0.063-0.031-0.063-0.063-0.031l0.063-0.094c0.063-0.031-0.031-0.156-0.094-0.219l-0.281-0.031-0.188-0.188c-0.031 0.031-0.063 0-0.125-0.031-0.031-0.031-0.094-0.094-0.125-0.094l-0.219 0.094-0.563-0.125c-0.063 0-0.156 0.031-0.156 0.125 0 0.031 0 0.063 0.031 0.063 0.063 0.031 0.063 0.063 0.063 0.094s0.031 0.156 0.063 0.313c0 0.156 0 0.219-0.094 0.188l-0.125 0.188c0 0.063 0.063 0.094 0.094 0.094 0.094 0.063 0.188 0.156 0.25 0.25 0.063 0.063 0.063 0.156 0.031 0.25l-0.594 0.469v0.031c0 0.094 0 0.156 0.031 0.219 0.063 0.063 0.063 0.156 0.125 0.25 0.156 0.063 0.156 0.125 0.031 0.188-0.063 0-0.125 0.031-0.188 0.063l-0.063 0.063c0 0.031-0.031 0.031-0.063 0.031h-0.156s0-0.031 0.031-0.031c0 0 0.031-0.031 0.031-0.063l-0.281-0.156-0.125-0.219c0.031-0.094 0.031-0.156 0-0.188s-0.031-0.094-0.031-0.156-0.063-0.219-0.188-0.219c-0.156 0-0.281 0.031-0.438 0.063 0.063-0.031-0.063-0.188-0.094-0.188-0.156 0-0.344-0.063-0.563-0.188s-0.375-0.188-0.5-0.188c-0.094 0-0.281 0.031-0.406 0.094 0.063-0.031 0.063-0.063 0.094-0.156l-0.188-0.313-0.031-0.031c-0.063 0-0.125 0.031-0.188 0.094-0.063 0.031-0.156 0-0.156-0.125 0-0.031 0.031-0.063 0.031-0.063 0.031-0.031 0.031-0.031 0-0.063 0-0.094 0.031-0.188 0.125-0.281 0.063-0.063 0.094-0.188 0.125-0.281 0.063-0.031 0.063-0.063 0.063-0.094 0-0.063 0.031-0.063 0.063-0.063 0.063 0 0.156-0.031 0.219-0.063 0.063-0.063 0.125-0.094 0.219-0.094l0.031-0.094c0-0.031-0.094-0.063-0.281-0.094-0.219-0.031-0.313-0.031-0.313-0.094l0.031-0.031c0.188 0.063 0.344 0.094 0.438 0.094 0.188 0.031 0.281-0.031 0.469-0.125 0.063-0.031 0.25-0.094 0.406-0.188 0-0.031-0.031-0.031-0.125-0.063h0.125l0.219-0.125v-0.125l-0.063-0.063 0.313-0.063c-0.031-0.063 0.031-0.094 0.063-0.094 0.063 0 0.125 0.031 0.188 0.094s0.094 0.063 0.125 0.063l0.281-0.094c0-0.031 0.031-0.031 0.094-0.031 0.063-0.031 0.094-0.063 0.063-0.094l-0.219-0.219c-0.063 0-0.094-0.094-0.031-0.094 0.094 0 0.156-0.031 0.094-0.125-0.063-0.031-0.156-0.094-0.25-0.125-0.094-0.063-0.188-0.094-0.281-0.094-0.063 0-0.188 0.031-0.188 0.125 0 0.063 0.031 0.063 0.063 0.063 0.063 0 0.094 0.031 0.094 0.063 0.063 0.031 0.031 0.063-0.031 0.063h-0.063c-0.063 0-0.156 0.063-0.219 0.188-0.063 0.094-0.156 0.188-0.25 0.219-0.031 0-0.031 0-0.031-0.031 0.031-0.031 0-0.031 0-0.063-0.031-0.031-0.063-0.063-0.094-0.063-0.063-0.031-0.125-0.031-0.125-0.063 0-0.063 0.063-0.094 0.125-0.188 0.031-0.094-0.063-0.125-0.219-0.125-0.063 0-0.125 0.031-0.156 0.094-0.031 0.031-0.063 0.094-0.094 0.156l-0.313-0.344-0.25-0.031c0-0.063 0.031-0.125 0.063-0.188 0.063-0.125-0.188-0.281-0.281-0.375-0.031 0-0.094-0.031-0.156-0.031-0.031 0-0.219 0.156-0.344 0.219-0.063 0.031-0.094 0.063-0.094 0.094 0 0.063 0.063 0.063 0.156 0.063h-0.031c-0.063 0-0.094 0.031-0.094 0.125 0 0.031 0.25 0.094 0.313 0.094s0.125 0 0.125 0.031c0.031 0.031 0.031 0.031 0.094 0.031l0.094-0.031v0.063s-0.031 0.063-0.031 0.063l0.031 0.094-0.313 0.156-0.031 0.031c-0.031 0-0.063 0-0.063 0.031s0 0.094 0.063 0.156c0.031 0.063 0 0.094-0.156 0.094l-0.094-0.063c0-0.063-0.063-0.125-0.219-0.188-0.281-0.094-0.781-0.125-1.219-0.125-0.219-0.031-0.375-0.031-0.5-0.031l-0.469 0.156 0.125 0.25c-0.031 0-0.094 0.031-0.094 0.031-0.125-0.094-0.313-0.281-0.375-0.281l-0.219-0.031c-0.688 0.031-1.5 0.688-2.281 1.469s-1.469 1.656-1.813 2.188h0.063c0.063 0 0.094-0.031 0.188-0.063 0.063-0.031 0.094 0.031 0.094 0.125 0 0.063 0 0.094-0.031 0.156s0.031 0.094 0.156 0.094c0.031 0 0.063-0.031 0.063-0.094 0.031-0.063 0.031-0.063 0.031 0l0.063 0.219v0.031c0 0.031-0.031 0.063-0.063 0.094-0.094 0.031 0 0.125 0.094 0.125h0.156l0.063-0.031 0.031-0.031c0 0.125 0.125 0.156 0.219 0.156h0.031s-0.031 0.063-0.063 0.094c-0.063 0-0.063 0.031 0 0.063l0.313 0.063v0.031l0.188 0.406c0 0.063-0.063 0.219-0.125 0.219s-0.063-0.031-0.063-0.063c0.031 0 0.031-0.031 0.031-0.094 0-0.031-0.031-0.063-0.031-0.094-0.031-0.031-0.094-0.031-0.219-0.031-0.031 0-0.125 0-0.063 0.094l0.156 0.344 0.063 0.063c-0.188 0-0.219 0.625-0.219 0.813l0.031 0.25 0.031 0.094v0.031l-0.031 0.281 0.375 0.625h0.094c0 0.031 0 0.063-0.031 0.094s-0.031 0.063-0.031 0.125l0.125 0.094c0 0.188 0.063 0.219 0.219 0.375 0 0.094 0.125 0.219 0.313 0.344 0.219 0.094 0.344 0.156 0.406 0.188 0.125 0.438 0.344 0.906 0.656 1.188l0.031 0.188-0.063 0.063c-0.063 0-0.063 0.031-0.031 0.063l0.25 0.125c0.063-0.063 0.094 0 0.156 0.094 0.063 0.125 0.094 0.188 0.125 0.219v0.094l0.156 0.219 0.063 0.063 0.063-0.156c-0.063-0.156-0.281-0.5-0.469-0.781-0.094-0.156-0.188-0.313-0.281-0.438-0.063-0.094-0.094-0.156-0.094-0.188s-0.031-0.375-0.063-0.438c0.031 0.031 0.125 0.063 0.188 0.094 0.094 0.031 0.188 0.063 0.25 0.094 0.031 0.25 0.125 0.438 0.281 0.594 0.125 0.125 0.25 0.281 0.344 0.469-0.063 0.063 0.063 0.063 0.125 0.063 0.031 0.063 0.031 0.094 0.031 0.219 0.281 0.281 0.844 0.938 0.844 1.219v0.031l-0.063 0.188c0.125 0.281 0.406 0.5 0.688 0.594h0.063c0.156 0.094 0.375 0.188 0.594 0.281 0.188 0.125 0.375 0.219 0.563 0.281l0.313-0.188c0.156 0.031 0.344 0.188 0.563 0.375s0.5 0.406 0.875 0.469c0.125-0.094 0.188-0.063 0.188 0.063v0.063l0.344 0.406 0.063 0.188c0.188 0.125 0.406 0.313 0.5 0.531zM8.438 6.594l-0.031-0.063c-0.063-0.031-0.219-0.094-0.281-0.094-0.031 0-0.094 0.031-0.219 0.063-0.219 0.125-0.563 0.219-0.813 0.344-0.125 0.063-0.219 0.094-0.281 0.094 0.125 0 0.25-0.031 0.375-0.094 0.094-0.063 0.219-0.094 0.344-0.094l0.094 0.063c0.063 0.031 0.094 0.031 0.156 0.031 0.031 0 0.063 0 0.125 0.063 0.063-0.031 0.125-0.031 0.219 0.031l0.094-0.063v-0.125l-0.031-0.063 0.063 0.031c0.063 0 0.125-0.031 0.188-0.125zM13.156 24.906l0.031 0.188c0 0.063-0.031 0.063-0.063 0.125-0.094 0.063-0.25 0.156-0.25 0.344 0 0.031 0.031 0.063 0.031 0.125 0.031 0.031 0.063 0.063 0.063 0.125 0 0.031-0.031 0.063-0.031 0.094 2.156-0.375 4.094-1.406 5.594-3h-0.031c-0.063 0.031-0.156 0.031-0.188 0l-0.094 0.031-0.156-0.031h-0.094c-0.063-0.094-0.125-0.156-0.219-0.219l-0.031-0.031c-0.031 0-0.063 0-0.063 0.063 0-0.281-0.219-0.531-0.469-0.531 0 0.031-0.031 0.031-0.031 0.031h-0.063l-0.063-0.031h0.094l0.063-0.188-0.156-0.094-0.031 0.031c-0.125-0.031-0.219-0.094-0.281-0.219l-0.094-0.031v0.031l-0.063 0.031c-0.125 0.031-0.219 0.063-0.281 0.094-0.125-0.031-0.219-0.094-0.25-0.125l-0.375 0.031c0-0.125-0.063-0.281-0.219-0.281-0.188 0-0.438 0-0.5 0.219 0 0.063 0.031 0.156 0.063 0.188v0.125l-0.031 0.063-0.031 0.031h-0.031l-0.094-0.219 0.094-0.125c-0.031-0.063-0.031-0.094-0.031-0.156s-0.031-0.094-0.031-0.156l-0.031-0.031h-0.094l-0.188 0.125h-0.125l-0.031 0.063c-0.031 0-0.031 0.031-0.031 0.063 0 0-0.031 0-0.031 0.031l-0.031-0.031h-0.125c-0.063 0.063-0.094 0.156-0.125 0.25l0.063 0.063-0.156 0.063-0.031 0.063-0.094 0.063v0.031h-0.031v0.156h-0.031c-0.031-0.125-0.125-0.25-0.313-0.344h-0.094v0.063c0 0.063 0.063 0.094 0.125 0.125 0.063 0.063 0.094 0.125 0.125 0.156-0.031-0.031-0.094 0-0.094 0.031v0.063l0.188 0.281v0.531l0.063 0.125c-0.063 0.156-0.125 0.313-0.219 0.406v-0.031l-0.063 0.031-0.031 0.031-0.031 0.125 0.031 0.031v0.031l-0.063-0.063-0.031 0.188-0.156 0.063c-0.063 0.031-0.094 0.063-0.063 0.156 0 0.063-0.031 0.094-0.094 0.125l0.031 0.063-0.063 0.094c0 0.031 0 0.063-0.031 0.063v0.125l0.031 0.219 0.063 0.031 0.063-0.031z"></path>
</svg>