<?xml version="1.0" encoding="UTF-8"?>
<svg xmlns="http://www.w3.org/2000/svg" xmlns:xlink="http://www.w3.org/1999/xlink" viewBox="0 0 80 80" width="80px" height="80px">
<g id="surface2997">
<path style=" stroke:none;fill-rule:nonzero;fill:rgb(71.764708%,25.490198%,25.490198%);fill-opacity:1;" d="M 72 56.5 C 71.332031 60 68.5 62.667969 65 63.167969 C 59.5 64 50.332031 65 40 65 C 29.832031 65 20.667969 64 15 63.167969 C 11.5 62.667969 8.667969 60 8 56.5 C 7.332031 52.667969 6.667969 47 6.667969 40 C 6.667969 33 7.332031 27.332031 8 23.5 C 8.667969 20 11.5 17.332031 15 16.832031 C 20.5 16 29.667969 15 40 15 C 50.332031 15 59.332031 16 65 16.832031 C 68.5 17.332031 71.332031 20 72 23.5 C 72.667969 27.332031 73.5 33 73.5 40 C 73.332031 47 72.667969 52.667969 72 56.5 Z M 72 56.5 "/>
<path style=" stroke:none;fill-rule:nonzero;fill:rgb(100%,100%,100%);fill-opacity:1;" d="M 33.332031 51.667969 L 33.332031 28.332031 L 53.332031 40 Z M 33.332031 51.667969 "/>
</g>
</svg>
