<svg width="36" height="36" viewBox="0 0 36 36" fill="none" xmlns="http://www.w3.org/2000/svg">
<circle cx="18" cy="18" r="18" fill="#FFF4E2"/>
<path d="M18.5691 20.8588C18.5691 22.3361 18.5691 23.7634 18.5691 25.1907C18.5691 25.8401 18.3902 26.0114 17.7393 25.9971C13.8621 25.9186 10.4499 22.8 10.0493 18.9677C9.58433 14.6073 12.4529 10.8249 16.7664 10.1041C20.9655 9.39763 25.1359 12.3664 25.8727 16.5627C26.0945 17.8401 26.0301 19.0961 25.651 20.3307C25.5222 20.7518 25.372 20.866 24.9285 20.866C22.9541 20.866 20.9726 20.866 18.9983 20.866C18.8695 20.8588 18.7407 20.8588 18.5691 20.8588ZM17.9467 13.5868C17.9396 12.9587 17.4317 12.452 16.8093 12.452C16.1941 12.452 15.6719 12.9659 15.6648 13.5868C15.6576 14.229 16.1727 14.7357 16.8236 14.7286C17.4603 14.7215 17.9539 14.2219 17.9467 13.5868ZM22.4248 17.9543C23.0543 17.9471 23.5622 17.4405 23.5622 16.8196C23.5622 16.2058 23.0471 15.6849 22.4248 15.6777C21.781 15.6706 21.2731 16.1844 21.2802 16.8339C21.2874 17.469 21.7881 17.9614 22.4248 17.9543ZM20.2787 12.9159C19.6492 12.9159 19.1413 13.4226 19.1413 14.0435C19.1413 14.6644 19.6492 15.1782 20.2716 15.1853C20.9082 15.1925 21.4376 14.6644 21.4304 14.0292C21.4233 13.4083 20.9154 12.9159 20.2787 12.9159ZM12.8964 15.7277C12.9035 16.3557 13.4043 16.8624 14.0338 16.8624C14.6561 16.8624 15.1712 16.3557 15.1783 15.7348C15.1855 15.0997 14.6561 14.5787 14.0195 14.5859C13.39 14.593 12.8892 15.0997 12.8964 15.7277Z" fill="url(#paint0_linear_1017_645)"/>
<defs>
<linearGradient id="paint0_linear_1017_645" x1="13.5" y1="24.5" x2="23" y2="12" gradientUnits="userSpaceOnUse">
<stop stop-color="#FEC73A"/>
<stop offset="1" stop-color="#FFA825"/>
</linearGradient>
</defs>
</svg>
