<svg width="36" height="36" viewBox="0 0 36 36" fill="none" xmlns="http://www.w3.org/2000/svg">
<circle cx="18" cy="18" r="18" fill="#E4FFF0"/>
<g clip-path="url(#clip0_1823_20502)">
<path d="M21.7161 13.1027C21.7161 15.3666 19.8772 17.2055 17.6343 17.1916C15.3565 17.1846 13.5455 15.3387 13.5524 13.054C13.5524 10.832 15.4123 9 17.6413 9C19.8912 9 21.7161 10.8389 21.7161 13.1027Z" fill="url(#paint0_linear_1823_20502)"/>
<path d="M19.8424 17.9858C19.9051 17.9998 19.9399 18.0694 19.9051 18.1251C19.6473 18.564 19.4523 19.0028 19.3687 19.4904C19.3548 19.581 19.3478 19.6785 19.3548 19.776C19.3966 20.2636 19.0971 20.584 18.7488 20.8905C18.4284 21.1761 18.1358 21.4895 17.8363 21.796C17.5786 22.0538 17.4532 22.3672 17.4532 22.7294C17.4532 23.1474 17.4462 23.5653 17.4601 23.9832C17.4671 24.1713 17.4253 24.241 17.2163 24.241C15.2311 24.234 13.2459 24.241 11.2677 24.234C10.606 24.234 10.0905 23.7603 10.0278 23.0638C9.99301 22.604 9.99301 22.1373 10.0418 21.6776C10.1462 20.6676 10.7592 19.971 11.5533 19.4138C12.7584 18.5709 14.1236 18.1878 15.5516 17.9649C16.9725 17.749 18.3935 17.7699 19.8145 17.9719C19.8215 17.9858 19.8284 17.9858 19.8424 17.9858Z" fill="url(#paint1_linear_1823_20502)"/>
<path d="M18.1985 23.7186C18.1985 23.6211 18.1916 23.5236 18.1707 23.433C18.0383 22.7017 18.3866 22.1653 18.9578 21.7265C19.1041 21.615 19.2225 21.4687 19.3548 21.3364C19.7449 20.9463 20.0653 20.605 20.0932 19.9293C20.1559 18.4735 21.2634 17.3939 22.5799 17.2197C23.973 17.0386 25.2547 17.77 25.7771 19.0308C26.5851 20.9812 25.1433 23.1405 23.0396 23.1266C22.6983 23.1266 22.4615 23.2032 22.2316 23.4539C21.8346 23.8928 21.3958 24.2898 20.9848 24.7147C20.7967 24.9098 20.5808 25.0073 20.3091 25.0003C19.8424 24.9933 19.3827 25.0003 18.916 24.9933C18.4005 24.9864 18.2125 24.7983 18.2125 24.2759C18.1985 24.0948 18.1985 23.9067 18.1985 23.7186ZM23.8268 20.1522C23.8198 19.6995 23.4576 19.3582 22.9979 19.3651C22.566 19.3721 22.2107 19.7413 22.2177 20.1731C22.2247 20.598 22.5938 20.9672 23.0187 20.9672C23.4576 20.9742 23.8268 20.598 23.8268 20.1522Z" fill="#2FB44B"/>
</g>
<defs>
<linearGradient id="paint0_linear_1823_20502" x1="14.3982" y1="9" x2="18.6504" y2="17.5491" gradientUnits="userSpaceOnUse">
<stop stop-color="#61E89D"/>
<stop offset="1" stop-color="#2DCA74"/>
</linearGradient>
<linearGradient id="paint1_linear_1823_20502" x1="11.0305" y1="17.8115" x2="13.4688" y2="25.3978" gradientUnits="userSpaceOnUse">
<stop stop-color="#61E89D"/>
<stop offset="1" stop-color="#2DCA74"/>
</linearGradient>
<clipPath id="clip0_1823_20502">
<rect width="16" height="16" fill="white" transform="translate(10 9)"/>
</clipPath>
</defs>
</svg>
