<svg width="36" height="36" viewBox="0 0 36 36" fill="none" xmlns="http://www.w3.org/2000/svg">
<circle cx="18" cy="18" r="18" fill="#E4F1FF"/>
<path d="M24.8593 15.7823C21.7936 15.8119 18.7279 15.7941 15.6622 15.7941C14.805 15.7941 14.3108 16.1496 14.0668 16.9376C13.4787 18.8573 12.8843 20.771 12.3024 22.6907C12.121 23.301 11.7706 23.7453 11.1324 23.9942C11.1825 23.9942 11.2326 24.0001 11.2889 24.0001C15.0428 24.0001 18.7967 24.0001 22.5444 24.0001C23.3765 24.0001 23.9521 23.5735 24.1899 22.8033C24.7717 20.9251 25.3285 19.035 25.9354 17.1628C26.1919 16.3807 25.6539 15.7763 24.8593 15.7823ZM19.5725 17.382C20.2357 17.3701 20.7926 17.8797 20.8051 18.5196C20.8176 19.1417 20.2795 19.6572 19.6101 19.6749C18.9469 19.6927 18.39 19.1772 18.3775 18.5433C18.365 17.9212 18.9093 17.3938 19.5725 17.382ZM21.7185 22.0508C21.0866 22.5011 20.3734 22.7322 19.5725 22.744C18.7905 22.7322 18.0772 22.4952 17.4453 22.033C17.3765 21.9856 17.3577 21.9323 17.3765 21.8612C17.5391 21.0673 18.0146 20.4985 18.8155 20.2141C19.6226 19.9297 20.3796 20.0601 21.0491 20.5814C21.4683 20.9014 21.706 21.328 21.8124 21.8257C21.8311 21.9264 21.8061 21.9856 21.7185 22.0508Z" fill="url(#paint0_linear_1017_61)"/>
<path d="M10 17.9622C10 16.4335 10 14.9049 10 13.3704C10 12.5231 10.5381 12.0076 11.439 12.0017C12.6465 11.9958 13.8603 12.0076 15.0678 12.0017C15.6497 12.0017 16.1064 12.2209 16.4755 12.6416C17.4515 13.7496 17.0073 13.56 18.5464 13.5718C19.8916 13.5837 21.2368 13.5718 22.5819 13.5777C23.4453 13.5837 24.0021 14.111 24.0209 14.899C24.0272 15.1301 23.9583 15.1715 23.7269 15.1656C21.024 15.1597 18.3275 15.1597 15.6246 15.1597C15.218 15.1597 14.8363 15.2308 14.4859 15.4204C13.9416 15.7107 13.61 16.1551 13.4348 16.7239C12.8342 18.6791 12.2273 20.6343 11.6267 22.5954C11.5203 22.9509 11.3264 23.2235 10.9447 23.3361C10.4192 23.4901 10.0063 23.1998 10 22.6725C10 21.1024 10 19.5323 10 17.9622Z" fill="url(#paint1_linear_1017_61)"/>
<defs>
<linearGradient id="paint0_linear_1017_61" x1="12.6728" y1="15.7822" x2="15.3993" y2="25.7334" gradientUnits="userSpaceOnUse">
<stop stop-color="#BCDDFF"/>
<stop offset="1" stop-color="#738CF6"/>
</linearGradient>
<linearGradient id="paint1_linear_1017_61" x1="11.4527" y1="12" x2="16.5804" y2="24.7487" gradientUnits="userSpaceOnUse">
<stop stop-color="#BCDDFF"/>
<stop offset="1" stop-color="#738CF6"/>
</linearGradient>
</defs>
</svg>
