<svg width="36" height="36" viewBox="0 0 36 36" fill="none" xmlns="http://www.w3.org/2000/svg">
<circle cx="18" cy="18" r="18" fill="#F7EBFF"/>
<path d="M17.5679 15.597C17.5679 16.3036 17.5991 17.0165 17.5616 17.7232C17.5179 18.5111 17.6866 19.2365 17.9677 19.962C18.5987 21.5629 19.1798 23.1888 19.7795 24.8022C19.9545 25.2712 19.8607 25.4713 19.3859 25.6277C15.325 26.9722 11.0642 24.5521 10.152 20.3747C9.33986 16.6476 11.8701 12.8142 15.6311 12.0575C16.0685 11.9699 16.5121 11.9137 16.9619 11.9074C17.3992 11.9012 17.5679 12.0575 17.5679 12.4952C17.5679 13.5333 17.5679 14.5652 17.5679 15.597Z" fill="url(#paint0_linear_1017_41)"/>
<path d="M18.505 13.7648C18.505 12.7205 18.505 11.6824 18.505 10.6381C18.505 10.1378 18.655 9.99394 19.161 10.0002C22.3848 10.044 25.3274 12.5641 25.8709 15.7409C25.9396 16.1537 25.9959 16.5664 25.9959 16.9854C25.9896 17.3481 25.8334 17.5294 25.4648 17.5294C23.3219 17.5357 21.1727 17.5357 19.0298 17.5294C18.6675 17.5294 18.4988 17.3481 18.4988 16.9854C18.505 15.9098 18.505 14.8342 18.505 13.7648Z" fill="url(#paint1_linear_1017_41)"/>
<path d="M22.2598 18.4732C23.2782 18.4732 24.3028 18.4732 25.3211 18.4732C25.8709 18.4732 26.0083 18.6171 25.9958 19.1549C25.9271 21.9314 24.1403 24.4891 21.5538 25.5147C21.1665 25.6711 20.9478 25.5773 20.8041 25.1833C20.0607 23.2009 19.3172 21.2185 18.58 19.2299C18.4051 18.7547 18.5925 18.4795 19.1048 18.4795C20.1544 18.467 21.2102 18.4732 22.2598 18.4732Z" fill="url(#paint2_linear_1017_41)"/>
<defs>
<linearGradient id="paint0_linear_1017_41" x1="11.0217" y1="11.9072" x2="19.6755" y2="24.1234" gradientUnits="userSpaceOnUse">
<stop stop-color="#CE80FF"/>
<stop offset="1" stop-color="#8A75FF"/>
</linearGradient>
<linearGradient id="paint1_linear_1017_41" x1="19.2755" y1="10" x2="23.19" y2="17.8581" gradientUnits="userSpaceOnUse">
<stop stop-color="#CE80FF"/>
<stop offset="1" stop-color="#8A75FF"/>
</linearGradient>
<linearGradient id="paint2_linear_1017_41" x1="19.2911" y1="18.4717" x2="22.8638" y2="26.0496" gradientUnits="userSpaceOnUse">
<stop stop-color="#CE80FF"/>
<stop offset="1" stop-color="#8A75FF"/>
</linearGradient>
</defs>
</svg>
