<svg width="36" height="36" viewBox="0 0 36 36" fill="none" xmlns="http://www.w3.org/2000/svg">
<circle cx="18" cy="18" r="18" fill="#FFF2F0"/>
<g clip-path="url(#clip0_1017_785)">
<path d="M18.2606 24.0001C17.0468 24.0001 15.8331 24.0069 14.6193 24.0001C12.3989 23.9932 10.5283 22.5486 10.0928 20.5111C9.65726 18.4668 10.7853 16.4498 12.8415 15.6116C13.0058 15.5435 13.0986 15.4549 13.1557 15.2914C13.9482 13.1653 16.0544 11.8501 18.3891 12.0137C20.6809 12.1772 22.6086 13.7922 23.037 15.9728C23.1155 16.3817 23.2797 16.5656 23.6724 16.7224C25.3717 17.4311 26.2927 19.2028 25.9214 20.9609C25.5573 22.6781 23.9295 23.9728 22.0803 23.9932C20.8023 24.0069 19.5314 24.0001 18.2606 24.0001ZM20.1597 18.5486C20.0312 18.5486 19.8955 18.5486 19.767 18.5486C19.4886 18.5418 19.2815 18.6576 19.1816 18.9098C19.0816 19.1551 19.1673 19.3527 19.3529 19.5231C19.7099 19.857 20.0526 20.2045 20.4167 20.5316C20.7023 20.7905 20.9951 20.8041 21.2735 20.5588C21.659 20.2045 22.0374 19.8433 22.4087 19.4754C22.6086 19.2709 22.6372 19.0324 22.473 18.7871C22.3373 18.5827 22.1231 18.5213 21.8804 18.5486C21.5377 18.5895 21.3735 18.5077 21.2592 18.1329C20.7095 16.3067 18.5319 15.3254 16.7255 16.0546C16.3685 16.1977 16.2043 16.4839 16.3257 16.7769C16.4471 17.0835 16.7469 17.1926 17.1254 17.0767C17.2967 17.0222 17.4609 16.9677 17.6394 16.9404C18.7532 16.736 20.0026 17.5196 20.1597 18.5486ZM15.8402 19.6389C15.983 19.6389 16.1258 19.6389 16.2615 19.6389C16.5113 19.6389 16.697 19.5367 16.8041 19.3186C16.9112 19.0937 16.8683 18.8893 16.697 18.719C16.3186 18.3442 15.933 17.9694 15.5332 17.615C15.3047 17.4106 15.0191 17.3834 14.7907 17.5878C14.3623 17.9626 13.9411 18.351 13.5555 18.7667C13.2414 19.1074 13.4913 19.5912 13.9696 19.6389C14.0624 19.6457 14.1624 19.6525 14.2552 19.6389C14.5265 19.5912 14.6336 19.6934 14.705 19.9524C14.9692 20.92 15.5975 21.6219 16.5328 22.0512C17.4395 22.4668 18.3677 22.4805 19.2958 22.1193C19.6385 21.983 19.7813 21.6968 19.6742 21.4174C19.5528 21.1108 19.253 20.9949 18.8817 21.1108C18.8175 21.1312 18.7461 21.1585 18.6818 21.1789C17.4466 21.5401 16.033 20.7905 15.8402 19.6389Z" fill="url(#paint0_linear_1017_785)"/>
</g>
<defs>
<linearGradient id="paint0_linear_1017_785" x1="11.658" y1="12" x2="16.762" y2="25.7282" gradientUnits="userSpaceOnUse">
<stop stop-color="#FEB49C"/>
<stop offset="1" stop-color="#FD6B87"/>
</linearGradient>
<clipPath id="clip0_1017_785">
<rect width="16" height="12" fill="white" transform="translate(10 12)"/>
</clipPath>
</defs>
</svg>
