<svg width="39" height="39" viewBox="0 0 39 39" fill="none" xmlns="http://www.w3.org/2000/svg">
<path d="M17.8958 0C18.9143 0 19.9233 0 20.9419 0C20.9514 0.0571199 20.999 0.0761599 21.0561 0.0761599C21.6748 0.0856799 22.2936 0.1904 22.9028 0.304639C27.6528 1.16144 31.5841 3.46527 34.6112 7.20663C38.3236 11.8048 39.6658 17.0693 38.6949 22.8956C38.1332 26.2752 36.7244 29.293 34.5255 31.911C31.0035 36.0998 26.501 38.4703 21.0275 38.9272C17.8387 39.1938 14.745 38.7368 11.8417 37.4135C5.32114 34.4528 1.43737 29.4358 0.209419 22.372C0.133266 21.9436 0.171343 21.5056 0 21.0963C0 20.03 0 18.9638 0 17.8976C0.0856713 17.8785 0.0761522 17.8119 0.0761522 17.7452C0.247495 15.6985 0.704408 13.7183 1.56112 11.8524C4.54058 5.35023 9.53807 1.43752 16.6202 0.20944C17.0391 0.13328 17.4865 0.17136 17.8958 0ZM14.6212 19.5064C14.6212 21.8579 14.6212 24.1998 14.6212 26.5512C14.6212 26.9416 14.6688 27.2938 15.0401 27.5032C15.4113 27.7127 15.735 27.5794 16.0681 27.37C19.7139 25.0185 23.3692 22.6766 27.0245 20.3252C27.8336 19.8016 27.8241 19.2018 27.015 18.6782C23.3787 16.3363 19.733 13.9944 16.0967 11.6525C15.773 11.443 15.4494 11.3002 15.0686 11.4906C14.6688 11.7001 14.6212 12.0618 14.6212 12.4617C14.6212 14.8036 14.6212 17.155 14.6212 19.5064Z" fill="url(#paint0_linear_965_1877)"/>
<defs>
<linearGradient id="paint0_linear_965_1877" x1="4.04054" y1="-2.69748e-07" x2="24.2432" y2="40.7568" gradientUnits="userSpaceOnUse">
<stop stop-color="#FEB49C"/>
<stop offset="1" stop-color="#FD6B87"/>
</linearGradient>
</defs>
</svg>
