<svg width="26" height="26" viewBox="0 0 26 26" fill="none" xmlns="http://www.w3.org/2000/svg">
<path fill-rule="evenodd" clip-rule="evenodd" d="M2.50126 0.396725C1.97382 0.535539 1.57293 0.767872 1.17586 1.16482C0.772332 1.56816 0.544838 1.96535 0.405632 2.50935C0.310148 2.88258 0.307617 3.08569 0.307617 10.3173C0.307617 15.4371 0.324342 17.8334 0.361414 18.0364C0.390992 18.1983 0.502158 18.517 0.608461 18.7445C0.760223 19.0696 0.879081 19.2353 1.16256 19.5168C1.58747 19.9388 1.93124 20.1459 2.44062 20.2869C2.74985 20.3725 2.95457 20.3897 3.66707 20.3897H4.52231L4.53655 22.7586L4.55079 25.1276L4.66747 25.3152C4.86409 25.6314 5.2628 25.7726 5.60216 25.6461C5.67898 25.6175 6.91481 24.4231 8.34841 22.9919L10.955 20.3897L17.0085 20.3888C23.7066 20.3878 23.4457 20.3997 24.1041 20.0675C24.7878 19.7226 25.3061 19.1218 25.5563 18.3843L25.6922 17.9835V10.3681C25.6922 3.11481 25.6879 2.73851 25.6009 2.45497C25.298 1.4674 24.5902 0.751252 23.5831 0.413246C23.3216 0.325532 22.8799 0.321216 13.0868 0.311542C3.1439 0.301669 2.85352 0.304001 2.50126 0.396725ZM13.9548 5.94542C14.1586 6.05472 14.3523 6.39059 14.3523 6.63473C14.3523 6.8686 12.1906 14.381 12.0789 14.5355C11.9698 14.6862 11.5994 14.8828 11.4242 14.8828C11.2245 14.8828 10.8657 14.6766 10.7423 14.4909C10.6661 14.3763 10.6302 14.2483 10.6302 14.0911C10.6302 13.8231 12.7499 6.38012 12.8848 6.17423C13.0888 5.86297 13.5979 5.75412 13.9548 5.94542ZM9.66975 6.99799C10.055 7.18438 10.2156 7.61417 10.0446 8.00064C9.96186 8.18758 9.75288 8.38384 8.73729 9.22834C8.07243 9.78116 7.49993 10.2596 7.46509 10.2915C7.41516 10.3372 7.67506 10.5774 8.68767 11.4213C9.82737 12.3711 9.9834 12.5187 10.0597 12.7183C10.1578 12.9752 10.136 13.1852 9.98533 13.4321C9.76653 13.7907 9.25283 13.9064 8.88792 13.6794C8.78945 13.6181 7.98226 12.9593 7.09412 12.2152C5.42573 10.8175 5.32002 10.7067 5.32002 10.356C5.32002 9.9945 5.46677 9.84234 7.22335 8.38315C8.14737 7.61556 8.95134 6.96817 9.00995 6.9445C9.19337 6.87053 9.44921 6.89127 9.66975 6.99799ZM15.9576 6.94197C16.0252 6.96767 16.8362 7.61645 17.7598 8.3837C19.4851 9.81693 19.6625 9.99792 19.6625 10.3253C19.6625 10.7129 19.5825 10.7978 17.8899 12.2089C17.0028 12.9485 16.1981 13.607 16.1018 13.6724C15.8814 13.8219 15.4979 13.8339 15.2448 13.6993C14.8758 13.503 14.7372 12.9617 14.961 12.5902C15.0263 12.4819 15.5792 11.9849 16.3057 11.3816C17.4954 10.3936 17.5362 10.3539 17.4471 10.27C17.3963 10.2222 16.827 9.7448 16.1819 9.20919C14.9646 8.19845 14.8486 8.06896 14.8486 7.72197C14.8486 7.14057 15.421 6.73802 15.9576 6.94197Z" fill="url(#paint0_linear_938_6214)"/>
<defs>
<linearGradient id="paint0_linear_938_6214" x1="2.93755" y1="0.307617" x2="16.0872" y2="26.8357" gradientUnits="userSpaceOnUse">
<stop stop-color="#BCDDFF"/>
<stop offset="1" stop-color="#738CF6"/>
</linearGradient>
</defs>
</svg>
