<svg width="29" height="29" viewBox="0 0 29 29" fill="none" xmlns="http://www.w3.org/2000/svg">
<rect width="29" height="19" fill="#FFFCFC"/>
<rect x="1.25" y="1.25" width="26.5" height="16.5" stroke="url(#paint0_linear_2205_21463)" stroke-width="2.5"/>
<rect x="15.4012" y="7.69922" width="1.37979" height="6.57734" transform="rotate(31.1383 15.4012 7.69922)" fill="#FE99A6"/>
<path d="M10.7524 14L15.5 5.96568L20.2476 14H10.7524Z" stroke="url(#paint1_linear_2205_21463)" stroke-width="2"/>
<path d="M4 13H26.5V15H4V13Z" fill="#FFF5F6"/>
<path d="M3 2.5V16L26.5 16" stroke="#FFD7DD" stroke-width="2"/>
<path d="M7.51535 7.94877L4.86355 8.96499L7.3883 10.7858L7.51535 7.94877Z" fill="url(#paint2_linear_2205_21463)"/>
<path d="M22.5712 7.87241L22.3636 10.7047L25.085 9.1936L22.5712 7.87241Z" fill="url(#paint3_linear_2205_21463)"/>
<circle cx="5.5" cy="24.5" r="1.5" fill="url(#paint4_linear_2205_21463)"/>
<circle cx="20.5" cy="24.5" r="1.5" fill="url(#paint5_linear_2205_21463)"/>
<circle cx="25.5" cy="24.5" r="1.5" fill="url(#paint6_linear_2205_21463)"/>
<circle cx="13" cy="25" r="4" fill="url(#paint7_linear_2205_21463)"/>
<defs>
<linearGradient id="paint0_linear_2205_21463" x1="1" y1="-4.59627e-07" x2="23.5" y2="19" gradientUnits="userSpaceOnUse">
<stop stop-color="#FFB7C1"/>
<stop offset="1" stop-color="#FF6277"/>
</linearGradient>
<linearGradient id="paint1_linear_2205_21463" x1="15.5" y1="4" x2="15.5" y2="15" gradientUnits="userSpaceOnUse">
<stop stop-color="#FF9EAB"/>
<stop offset="1" stop-color="#FF4961"/>
</linearGradient>
<linearGradient id="paint2_linear_2205_21463" x1="7.51535" y1="7.94877" x2="5.66278" y2="10.5176" gradientUnits="userSpaceOnUse">
<stop offset="0.486642" stop-color="#FF9DAA"/>
<stop offset="0.486742" stop-color="#D9D9D9" stop-opacity="0.513258"/>
<stop offset="0.486842" stop-color="#FF667A"/>
</linearGradient>
<linearGradient id="paint3_linear_2205_21463" x1="22.5712" y1="7.87241" x2="24.1086" y2="10.6414" gradientUnits="userSpaceOnUse">
<stop offset="0.486642" stop-color="#FF9DAA"/>
<stop offset="0.486742" stop-color="#D9D9D9" stop-opacity="0.513258"/>
<stop offset="0.486842" stop-color="#FF667A"/>
</linearGradient>
<linearGradient id="paint4_linear_2205_21463" x1="4.5" y1="23.5" x2="6" y2="25.5" gradientUnits="userSpaceOnUse">
<stop stop-color="#FF6578"/>
<stop offset="0.523202" stop-color="#FF8696"/>
<stop offset="0.523302" stop-color="#FFA5B1"/>
</linearGradient>
<linearGradient id="paint5_linear_2205_21463" x1="19.5" y1="23.5" x2="21" y2="25.5" gradientUnits="userSpaceOnUse">
<stop stop-color="#FF6578"/>
<stop offset="0.523202" stop-color="#FF8696"/>
<stop offset="0.523302" stop-color="#FFA5B1"/>
</linearGradient>
<linearGradient id="paint6_linear_2205_21463" x1="24.5" y1="23.5" x2="26" y2="25.5" gradientUnits="userSpaceOnUse">
<stop stop-color="#FF6578"/>
<stop offset="0.523202" stop-color="#FF8696"/>
<stop offset="0.523302" stop-color="#FFA5B1"/>
</linearGradient>
<linearGradient id="paint7_linear_2205_21463" x1="11" y1="21.5" x2="15.5" y2="28" gradientUnits="userSpaceOnUse">
<stop stop-color="#FFB9C2"/>
<stop offset="1" stop-color="#FF6B7F"/>
</linearGradient>
</defs>
</svg>
