<svg width="21" height="20" viewBox="0 0 21 20" fill="none" xmlns="http://www.w3.org/2000/svg">
<path d="M2.54686 16.4663C2.06248 16.318 1.64842 16.5755 1.30467 17.0125C1.16405 17.1842 0.992172 17.3246 0.835922 17.4807C0.710922 17.6134 0.585922 17.7616 0.367172 17.6914C0.156235 17.6212 0.132797 17.4261 0.0937348 17.2544C-0.32814 15.4752 0.726547 13.6415 2.47655 13.1108C3.0078 12.947 3.54686 12.8845 4.09373 13.0094C4.32811 13.064 4.49998 13.0094 4.67967 12.8299C7.39842 10.0987 10.125 7.38316 12.8515 4.6676C13.0156 4.50373 13.0625 4.34766 13.0312 4.12136C12.6719 1.58527 14.7187 -0.388978 17.2109 0.079223C17.414 0.11824 17.6406 0.133846 17.7187 0.375751C17.789 0.609851 17.6015 0.726901 17.4687 0.867362C17.4453 0.898575 17.414 0.921985 17.3828 0.953199C16.414 1.92081 16.4219 1.92081 16.4765 3.2786C16.4844 3.45808 16.5234 3.54391 16.7187 3.5127C16.7422 3.5049 16.7734 3.5049 16.7969 3.5127C17.75 3.67657 18.5156 3.39565 19.0781 2.5841C19.1172 2.52948 19.164 2.49046 19.2109 2.44364C19.5312 2.14711 19.7578 2.20954 19.8828 2.63092C20.3125 4.16038 19.5547 5.87712 18.1172 6.61844C17.414 6.97739 16.6719 7.11785 15.8906 6.96178C15.664 6.91496 15.5078 6.96959 15.3437 7.14126C12.625 9.86463 9.89842 12.588 7.17186 15.3036C6.99217 15.483 6.95311 15.6469 6.98436 15.8888C7.36717 18.3781 5.22655 20.4148 2.78123 19.8919C2.59373 19.8529 2.37498 19.8451 2.29686 19.6188C2.21873 19.3847 2.39842 19.2677 2.53123 19.1272C2.55467 19.096 2.58592 19.0648 2.61717 19.0492C3.42967 18.5107 3.67186 17.746 3.54686 16.8096C3.51561 16.5521 3.48436 16.4351 3.20311 16.4741C3.0078 16.4819 2.8203 16.4663 2.54686 16.4663Z" fill="#675ED5"/>
<path d="M20 17.1374C19.9375 18.2766 19.3906 19.1974 18.2656 19.7047C17.164 20.2041 16.0625 20.0792 15.1718 19.2521C13.6718 17.8475 12.2343 16.3726 10.7734 14.929C10.7343 14.89 10.7031 14.851 10.6718 14.812C10.164 14.1565 10.164 14.1409 10.75 13.5556C11.7734 12.5334 12.7968 11.5189 13.8125 10.4889C13.9922 10.3094 14.1328 10.286 14.3437 10.4109C14.5859 10.5591 14.8281 10.7152 15.0312 10.9181C16.3906 12.2603 17.75 13.6024 19.1093 14.9524C19.6953 15.5299 19.9843 16.2322 20 17.1374ZM13.5937 14.1175C13.5859 14.3984 13.7031 14.5466 13.8437 14.6871C14.75 15.5767 15.6562 16.4741 16.5625 17.3637C16.8906 17.6836 17.2265 17.6992 17.4843 17.4261C17.7343 17.1608 17.7031 16.8486 17.3906 16.5365C16.8593 16.0059 16.3203 15.4752 15.7812 14.9524C15.3828 14.5622 14.9843 14.1721 14.5859 13.7819C14.3984 13.6024 14.1718 13.5634 13.9375 13.6649C13.7265 13.7585 13.6093 13.9458 13.5937 14.1175Z" fill="#675ED5"/>
<path d="M0 1.63941C0.0078125 1.40531 0.0859375 1.26485 0.210938 1.14C0.523438 0.827865 0.835938 0.51573 1.14844 0.203596C1.39844 -0.0383081 1.67188 -0.0617181 1.96094 0.117759C3.09375 0.820061 4.23438 1.52236 5.36719 2.23247C5.70313 2.44316 5.71094 2.61483 5.42969 2.91916C5.02344 3.35615 5.02344 3.35615 5.44531 3.77753C6.46875 4.79977 7.47656 5.82201 8.51563 6.82864C8.73438 7.03934 8.71094 7.14858 8.50781 7.33586C8.09375 7.71823 7.70313 8.10839 7.32031 8.52197C7.14844 8.70925 7.05469 8.70925 6.86719 8.52197C5.80469 7.44511 4.71875 6.38385 3.65625 5.29919C3.42969 5.06509 3.27344 4.98705 3.0625 5.29138C3.01563 5.36161 2.9375 5.42404 2.86719 5.48647C2.64844 5.68936 2.4375 5.67375 2.28125 5.42404C1.53906 4.24573 0.8125 3.06743 0.0859375 1.88132C0.03125 1.79548 0.015625 1.69404 0 1.63941Z" fill="#675ED5"/>
</svg>
