<svg width="56" height="56" viewBox="0 0 56 56" fill="none" xmlns="http://www.w3.org/2000/svg">
<circle cx="28" cy="28" r="28" fill="#EAF7ED"/>
<g clip-path="url(#clip0_928_7390)">
<path d="M27.9561 40C25.5848 40 23.2135 40 20.8422 40C18.1215 40 15.9873 37.8772 15.9873 35.155C15.9873 30.3975 15.9873 25.6275 15.9873 20.8699C15.9998 18.1353 18.1215 16 20.8422 16C22.7143 16 24.5864 16.0125 26.4584 16.0125C27.382 16.0125 27.9935 16.5494 27.9935 17.3486C27.9935 18.1602 27.4194 18.6472 26.446 18.6722C24.499 18.7097 22.5396 18.5598 20.5926 18.7596C19.4319 18.8845 18.8953 19.4464 18.7455 20.5827C18.6956 20.9698 18.6706 21.3694 18.6706 21.7565C18.6706 25.9147 18.6706 30.0728 18.6706 34.2435C18.6706 36.7034 19.3071 37.3403 21.7658 37.3403C25.9218 37.3403 30.0778 37.3403 34.2463 37.3403C36.6925 37.3403 37.329 36.7034 37.3414 34.231C37.3414 32.6701 37.3414 31.1093 37.3414 29.5484C37.3414 28.5744 37.8407 28 38.6519 28C39.4506 28 39.9873 28.5994 39.9873 29.5359C39.9873 31.4339 39.9998 33.3195 39.9998 35.2175C39.9873 37.8772 37.8656 40 35.2073 40C32.7861 40.0125 30.3773 40 27.9561 40Z" fill="#2FB44B"/>
<path d="M27.9938 26.3267C28.2309 26.1144 28.3307 25.7773 28.5554 25.5525C31.5133 22.5806 34.4836 19.6087 37.454 16.6368C37.7161 16.3746 37.9907 16.0874 38.3651 16.0249C38.9392 15.925 39.4384 16.0998 39.7629 16.6118C40.0874 17.1113 40.0624 17.6357 39.713 18.1227C39.5757 18.31 39.4134 18.4599 39.2512 18.6222C36.1685 21.7065 32.9361 24.9282 29.8534 28.0249C30.44 28 30.2902 28 30.4399 28C31.4134 28.0124 32.3994 27.9875 33.3729 28.0124C34.1092 28.0249 34.6459 28.6118 34.6334 29.3485C34.6334 30.0728 34.1342 30.6347 33.3978 30.6472C31.1389 30.6722 28.8674 30.6722 26.6084 30.6472C25.8596 30.6472 25.3604 30.1352 25.3479 29.386C25.3229 27.1384 25.3354 24.8907 25.3479 22.6555C25.3479 21.8813 25.897 21.3694 26.6584 21.3694C27.4197 21.3694 27.9813 21.9188 27.9938 22.7055C28.0063 23.9042 27.9938 25.1155 27.9938 26.3267Z" fill="#2FB44B"/>
</g>
<defs>
<clipPath id="clip0_928_7390">
<rect width="24" height="24" fill="white" transform="translate(16 16)"/>
</clipPath>
</defs>
</svg>
