<svg width="42" height="42" viewBox="0 0 42 42" fill="none" xmlns="http://www.w3.org/2000/svg">
<circle cx="21" cy="21" r="21" fill="#2FB44B"/>
<path fill-rule="evenodd" clip-rule="evenodd" d="M12.7283 11.0702C12.3128 11.1796 11.9969 11.3626 11.6841 11.6754C11.3661 11.9932 11.1869 12.3061 11.0772 12.7347C11.002 13.0288 11 13.1888 11 18.8864C11 22.9202 11.0132 24.8082 11.0424 24.9681C11.0657 25.0957 11.1533 25.3468 11.237 25.5261C11.3566 25.7821 11.4502 25.9127 11.6736 26.1345C12.0084 26.467 12.2792 26.6302 12.6805 26.7413C12.9242 26.8087 13.0855 26.8222 13.6468 26.8222H14.3207L14.3319 28.6887L14.3431 30.5552L14.435 30.7029C14.59 30.9521 14.9041 31.0633 15.1715 30.9637C15.232 30.9411 16.2057 30.0001 17.3352 28.8724L19.3888 26.8222L24.1582 26.8216C29.4355 26.8208 29.23 26.8301 29.7488 26.5684C30.2874 26.2967 30.6958 25.8233 30.8929 25.2422L31 24.9265V18.9264C31 13.2117 30.9966 12.9152 30.9281 12.6919C30.6894 11.9138 30.1318 11.3495 29.3382 11.0832C29.1322 11.0141 28.7842 11.0107 21.0684 11.0031C13.2346 10.9953 13.0059 10.9972 12.7283 11.0702ZM21.7523 15.4419C21.9129 15.528 22.0655 15.7926 22.0655 15.985C22.0655 16.1693 20.3623 22.0881 20.2743 22.2098C20.1884 22.3286 19.8965 22.4834 19.7586 22.4834C19.6012 22.4834 19.3185 22.321 19.2212 22.1747C19.1612 22.0844 19.1329 21.9836 19.1329 21.8597C19.1329 21.6486 20.803 15.7844 20.9093 15.6222C21.07 15.3769 21.4712 15.2912 21.7523 15.4419ZM18.3762 16.2712C18.6797 16.4181 18.8063 16.7567 18.6716 17.0612C18.6064 17.2085 18.4417 17.3631 17.6416 18.0284C17.1177 18.464 16.6667 18.841 16.6392 18.8661C16.5999 18.9021 16.8047 19.0913 17.6025 19.7562C18.5004 20.5046 18.6233 20.6208 18.6834 20.7781C18.7608 20.9805 18.7435 21.146 18.6249 21.3405C18.4525 21.623 18.0477 21.7142 17.7602 21.5354C17.6827 21.4871 17.0467 20.968 16.3469 20.3817C15.0325 19.2805 14.9492 19.1932 14.9492 18.9169C14.9492 18.6321 15.0648 18.5122 16.4488 17.3625C17.1768 16.7578 17.8102 16.2477 17.8564 16.2291C18.0009 16.1708 18.2025 16.1871 18.3762 16.2712ZM23.3303 16.2271C23.3835 16.2473 24.0225 16.7585 24.7502 17.363C26.1096 18.4922 26.2493 18.6348 26.2493 18.8927C26.2493 19.1981 26.1863 19.265 24.8527 20.3768C24.1537 20.9595 23.5198 21.4783 23.4439 21.5299C23.2703 21.6476 22.9681 21.6571 22.7687 21.551C22.4779 21.3964 22.3688 20.9699 22.5451 20.6772C22.5966 20.5919 23.0322 20.2003 23.6045 19.725C24.5419 18.9466 24.574 18.9153 24.5039 18.8492C24.4638 18.8115 24.0152 18.4354 23.507 18.0134C22.548 17.217 22.4565 17.115 22.4565 16.8416C22.4565 16.3835 22.9075 16.0664 23.3303 16.2271Z" fill="url(#paint0_linear_858_3383)"/>
<defs>
<linearGradient id="paint0_linear_858_3383" x1="14.7931" y1="11" x2="29.988" y2="28.2458" gradientUnits="userSpaceOnUse">
<stop stop-color="white"/>
<stop offset="1" stop-color="white" stop-opacity="0.33"/>
</linearGradient>
</defs>
</svg>
