<svg width="48" height="48" viewBox="0 0 48 48" fill="none" xmlns="http://www.w3.org/2000/svg">
<rect width="48" height="48" rx="24" fill="#D5FFDD"/>
<path fill-rule="evenodd" clip-rule="evenodd" d="M22.462 21.9635C22.575 21.8181 22.656 21.7697 22.8266 21.6677L22.8833 21.6338C23.2812 21.49 23.6636 21.4309 24.0459 21.6422C24.5062 21.9212 24.7013 22.3609 24.7169 22.9189C24.6935 23.4431 24.6857 23.9758 24.7169 24.5H24.7705C24.7398 25.2748 24.748 26.0495 24.7699 26.8243C24.7856 26.8243 24.8012 26.8243 24.8168 26.833C24.9118 26.7297 25.0068 26.6275 25.1014 26.5255C25.2872 26.3254 25.4718 26.1266 25.653 25.9239C26.2157 25.3033 26.7784 25.2334 27.4427 25.7141C27.6939 25.9951 27.8462 26.335 27.8997 26.7203H27.8933C27.8542 27.2684 27.5414 27.6338 27.1895 27.9909C26.7574 28.4364 26.3303 28.8979 25.9042 29.3583C25.7981 29.4729 25.6921 29.5874 25.5862 29.7016C25.3589 29.9131 25.1489 30.1413 24.9393 30.3689C24.68 30.6507 24.4213 30.9317 24.1314 31.1797C23.756 31.3624 23.3728 31.4704 22.9739 31.2461C22.6314 31.0188 22.3547 30.7098 22.0789 30.4016C21.9516 30.2595 21.8246 30.1176 21.6913 29.9839C21.4176 29.7099 21.1438 29.4192 20.8779 29.1369C20.6629 28.9044 20.4478 28.6739 20.2327 28.4435C20.0176 28.213 19.8025 27.9826 19.5875 27.7501C19.4389 27.5923 19.2903 27.4262 19.2042 27.2103C19.1729 27.1272 19.1495 27.0442 19.1338 26.9612C18.9461 25.8899 20.0254 25.0263 20.9405 25.5162C21.1125 25.6076 21.269 25.7321 21.4097 25.8982C21.5847 26.1013 21.771 26.2882 21.9582 26.4759L21.9582 26.476C22.0388 26.5568 22.1196 26.6378 22.1997 26.7203C22.2153 26.712 22.2309 26.7037 22.2544 26.7037C22.2544 26.3083 22.2524 25.9129 22.2505 25.5186L22.2505 25.5183C22.2485 25.1259 22.2466 24.7346 22.2466 24.3453C22.2779 23.872 22.2701 23.3903 22.2466 22.917H22.2209L22.225 22.847C22.2432 22.5375 22.2612 22.2301 22.462 21.9635ZM18.8601 27.2684C18.9774 27.2684 19.0947 27.2518 19.2042 27.2103C19.0947 27.2518 18.9774 27.2601 18.8601 27.2684ZM35.9883 26.8243C35.989 27.0162 35.9915 27.2085 35.994 27.4009C36.0038 28.1483 36.0137 28.8983 35.9177 29.6434C35.9177 30.0517 35.8502 30.4516 35.7831 30.8491L35.7831 30.8491C35.756 31.0094 35.729 31.1693 35.7065 31.3292C35.6283 31.8773 35.4797 32.4087 35.2294 32.8987C35.0026 33.3886 34.7211 33.8371 34.3613 34.2274C33.7669 34.9332 32.9926 35.3069 32.1558 35.5644C31.1078 35.8799 30.0285 35.9796 28.9414 35.9879C25.3046 36.0045 21.6757 36.0045 18.0389 35.9879C16.7563 35.9796 15.4814 35.855 14.2692 35.3651C13.8234 35.1824 13.5105 34.9914 13.1195 34.6758C12.7988 34.4184 12.5016 34.1111 12.2514 33.7706C12.0715 33.5298 11.962 33.3305 11.7508 32.8987C11.524 32.4918 11.4145 32.0434 11.305 31.5949C11.2503 31.3707 11.2033 31.1465 11.1721 30.9223C11.086 30.3327 11.0391 29.7431 11.0078 29.1452C11.0078 28.8338 11.0059 28.5224 11.0039 28.2109C11.002 27.8995 11 27.5881 11 27.2767V25.782V24.3536V23.0373V22.917V21.4562C11 20.9236 11 20.3994 11.0078 19.8667L11.0076 19.7283C11.0069 19.3388 11.0064 19.0481 11.0624 18.4716C11.1096 17.7926 11.1277 17.6558 11.1669 17.3589C11.1731 17.312 11.1798 17.2611 11.1873 17.2034C11.2497 16.6369 11.3823 16.0873 11.593 15.5547C11.8193 14.8783 12.1392 14.2695 12.6385 13.7791C13.2237 13.0858 13.9806 12.7054 14.792 12.4602C15.6035 12.2065 16.4462 12.1135 17.2733 12.0712C18.5295 11.9782 19.7857 11.9867 21.0419 12.0374C22.2903 12.0797 23.3046 12.6884 23.9835 13.8552C24.0938 14.0345 24.2094 14.2114 24.3253 14.3886C24.5209 14.6878 24.7171 14.9877 24.8886 15.301C25.0056 15.5124 25.1617 15.6984 25.3489 15.8337C25.5752 15.9943 25.8405 16.0789 26.1526 16.0789C28.2515 16.062 30.3582 16.0535 32.457 16.0789C33.4246 16.0873 34.2672 16.4847 34.9305 17.271C35.1021 17.4401 35.2426 17.6261 35.3674 17.8291C35.5391 18.1165 35.6639 18.4378 35.7497 18.776C35.8434 19.1311 35.9292 19.4862 35.9214 19.8667V21.4562V22.9189V24.333H36.0004V25.5743V26.8243H35.9883ZM22.7105 31.3307C22.798 31.3383 22.8892 31.3461 22.9548 31.2715C22.8795 31.3598 22.786 31.3445 22.6924 31.3292L22.7105 31.3307Z" fill="#2FB44B"/>
<path d="M27.406 25.6499C27.6794 25.9416 27.8357 26.2999 27.8747 26.7082C27.8357 27.2582 27.5232 27.6249 27.1716 27.9832C26.6325 28.5416 26.1013 29.1249 25.57 29.6999C25.0622 30.1749 24.6403 30.7332 24.1169 31.1832C23.7419 31.3666 23.3591 31.4749 22.9528 31.2499C22.4528 30.9166 22.0935 30.4082 21.6716 29.9832C21.3982 29.7082 21.1247 29.4166 20.8591 29.1332C20.4294 28.6666 19.9997 28.2082 19.57 27.7416C19.4216 27.5832 19.2732 27.4166 19.1872 27.1999C19.0153 26.7582 19.1169 26.3499 19.2732 25.9499C19.3044 25.8666 19.3591 25.7832 19.4216 25.7249C20.0388 25.1332 20.8591 25.2666 21.3825 25.8832C21.6325 26.1749 21.906 26.4332 22.1716 26.7082C22.2028 26.7416 22.2263 26.7582 22.2263 26.6916C22.2263 25.8999 22.2185 25.1082 22.2185 24.3249C22.2497 23.8499 22.2419 23.3666 22.2185 22.8916C22.2497 22.5249 22.2263 22.1499 22.4685 21.8332C22.5153 21.7666 22.5622 21.7166 22.6169 21.6749C22.8122 21.4999 23.0466 21.3999 23.2966 21.3666C23.5544 21.3416 23.8122 21.3749 24.0622 21.5082C24.5232 21.7832 24.7185 22.2166 24.7341 22.7666C24.7107 23.2832 24.7028 23.8082 24.7341 24.3249C24.7028 25.1166 24.7107 25.9082 24.7263 26.6999C24.7341 26.7166 24.7341 26.7249 24.7419 26.7416C24.7497 26.7332 24.7653 26.7166 24.7732 26.7082C25.0544 26.4166 25.3357 26.1332 25.6091 25.8416C26.1794 25.2499 26.7419 25.1832 27.406 25.6499Z" fill="#FEFEFE"/>
<path d="M22.236 26.6997C22.236 26.7664 22.2121 26.7497 22.1802 26.7164C22.2041 26.708 22.2201 26.6997 22.236 26.6997Z" fill="url(#paint0_linear_933_5621)"/>
<path d="M24.7827 26.708C24.7746 26.7164 24.7583 26.733 24.7502 26.7414C24.742 26.7247 24.742 26.7164 24.7339 26.6997C24.7502 26.6997 24.7664 26.708 24.7827 26.708Z" fill="url(#paint1_linear_933_5621)"/>
<defs>
<linearGradient id="paint0_linear_933_5621" x1="22.2081" y1="26.6997" x2="22.2081" y2="26.7455" gradientUnits="userSpaceOnUse">
<stop stop-color="#FF7A93"/>
<stop offset="1" stop-color="#FF7A93" stop-opacity="0"/>
</linearGradient>
<linearGradient id="paint1_linear_933_5621" x1="24.7583" y1="26.6997" x2="24.7583" y2="26.7414" gradientUnits="userSpaceOnUse">
<stop stop-color="#FF7A93"/>
<stop offset="1" stop-color="#FF7A93" stop-opacity="0"/>
</linearGradient>
</defs>
</svg>
