<svg width="48" height="48" viewBox="0 0 48 48" fill="none" xmlns="http://www.w3.org/2000/svg">
<rect width="48" height="48" rx="24" fill="#FFECCF"/>
<g clip-path="url(#clip0_933_5651)">
<path d="M25.3823 36C22.168 36 18.9442 36 15.7298 36C15.0364 36 14.8114 35.7751 14.8114 35.0816C14.8114 34.6318 14.8302 34.1726 14.8021 33.7228C14.7833 33.3948 14.877 33.3011 15.2144 33.3104C17.2949 33.3292 19.3659 33.3292 21.4464 33.3104C22.1586 33.3104 22.8802 33.376 23.5924 33.198C25.2792 32.7763 26.5069 31.2768 26.5256 29.5338C26.5444 26.7692 26.5444 24.0047 26.5256 21.2401C26.5069 19.1503 24.7826 17.4447 22.6927 17.4447C20.2 17.4354 17.7166 17.4354 15.2332 17.4541C14.8864 17.4541 14.7927 17.3791 14.8021 17.023C14.8302 15.6455 14.8114 14.2772 14.8114 12.8996C14.8114 12.2343 15.0457 12.0094 15.7111 12.0094C19.8813 12.0094 24.0516 12.0187 28.2218 12C28.5967 12 28.681 12.0937 28.681 12.4592C28.6623 13.9774 28.6717 15.4861 28.6717 17.0043C28.6717 18.4006 29.5057 19.244 30.9114 19.244C32.4764 19.2534 34.0321 19.2534 35.5971 19.2347C35.9344 19.2347 36.0094 19.3284 36 19.647C35.9907 24.8012 35.9907 29.9555 35.9907 35.1097C35.9907 35.7563 35.747 35.9906 35.0723 35.9906C31.8485 36 28.6154 36 25.3823 36Z" fill="#FCA31D"/>
<path d="M25.148 25.4008C25.148 26.6941 25.1574 27.9967 25.148 29.2899C25.1386 30.9393 24.1078 31.9608 22.4584 31.9608C19.8626 31.9608 17.2761 31.9608 14.6802 31.9608C13.0496 31.9701 12 30.9112 12 29.2712C12 26.6753 12 24.0888 12 21.493C12 19.8436 13.0121 18.8034 14.6708 18.794C16.6669 18.7753 18.6724 18.7847 20.6685 18.794C21.3901 18.794 22.1117 18.7659 22.8239 18.8221C24.1827 18.9252 25.0918 19.9092 25.148 21.2774C25.148 21.3055 25.148 21.343 25.148 21.3711C25.148 22.7206 25.148 24.0607 25.148 25.4008ZM18.5974 22.1396C18.4569 22.1396 18.3163 22.1396 18.1757 22.1396C18.1007 22.1396 18.0258 22.1677 17.9414 22.1771C16.2733 22.4863 15.1113 23.5172 14.1086 24.8104C13.8274 25.1759 13.8368 25.5133 14.1086 25.8694C14.7083 26.6378 15.3924 27.3219 16.2265 27.828C17.098 28.3622 18.0164 28.6995 19.0566 28.5308C20.8653 28.2497 22.1023 27.1345 23.1425 25.7382C23.3674 25.4383 23.3112 25.1291 23.0957 24.8385C22.7021 24.3325 22.2897 23.8545 21.793 23.4328C20.8747 22.6456 19.8344 22.1396 18.5974 22.1396Z" fill="#FCA31D"/>
<path d="M30.2272 12.0371C32.0921 13.977 33.9476 15.9168 35.8031 17.8567C35.5501 17.8567 35.2315 17.8567 34.9129 17.8567C33.5915 17.8567 32.2608 17.8567 30.9394 17.8567C30.2928 17.8567 30.0679 17.6318 30.0679 16.9945C30.0679 15.3827 30.0679 13.7614 30.0679 12.1496C30.1241 12.1027 30.171 12.0652 30.2272 12.0371Z" fill="#FCA31D"/>
<path d="M18.6348 23.5176C19.9186 23.5644 20.7714 24.3423 21.5867 25.2044C21.7086 25.3356 21.643 25.42 21.5493 25.523C20.8277 26.2915 20.0498 26.9662 18.9534 27.1443C18.3255 27.2474 17.7445 27.0881 17.2103 26.7975C16.6293 26.4883 16.1326 26.0572 15.6922 25.5793C15.6078 25.4856 15.4579 25.3918 15.6078 25.2325C16.4325 24.3235 17.3134 23.5363 18.6348 23.5176ZM19.3001 25.345C19.3001 24.9795 19.0002 24.6703 18.6254 24.6609C18.2131 24.6515 17.9038 24.942 17.9038 25.345C17.9038 25.7198 18.2037 26.0385 18.5692 26.0572C18.944 26.0666 19.3001 25.7198 19.3001 25.345Z" fill="#FCA31D"/>
</g>
<defs>
<clipPath id="clip0_933_5651">
<rect width="24" height="24" fill="white" transform="translate(12 12)"/>
</clipPath>
</defs>
</svg>
