<svg width="30" height="30" viewBox="0 0 30 30" fill="none" xmlns="http://www.w3.org/2000/svg">
<path fill-rule="evenodd" clip-rule="evenodd" d="M0.341736 1.81846C0.823717 0.947703 1.70993 0.305832 2.7233 0.0934747C2.93839 0.0484181 6.72479 0.00742411 11.1378 0.00225368C18.6589 -0.00643897 19.8484 -0.00834646 20.9087 0.360911C21.1098 0.430926 21.3061 0.514285 21.5402 0.613472C22.6636 1.08952 23.7755 2.09342 24.3408 3.142C25.053 4.46295 25.0658 4.5875 25.0679 10.203L25.0696 15.1964L25.4506 15.4196C25.7612 15.6016 26.2165 16.231 27.9157 18.8282L30 22.0135L29.9976 22.6136L29.9952 23.2138L28.0919 26.1222C26.0626 29.2232 25.8447 29.5685 25.5317 29.7392C25.4798 29.7676 25.4252 29.7911 25.3593 29.8216C24.9969 29.9894 24.7216 30 20.7036 30C16.8751 30 16.1249 30.0096 15.7045 29.6421C15.5901 29.5421 15.5001 29.4143 15.3793 29.2507L15.0522 28.8082L8.87559 28.7809L2.69901 28.7535L2.10772 28.507C1.35335 28.1925 0.630737 27.5498 0.277167 26.8789L0 26.353V14.3944V2.43586L0.341736 1.81846ZM22.8329 3.81775C22.3973 3.00904 21.5928 2.30457 20.6847 1.93683C20.3273 1.79215 19.9064 1.64802 19.7495 1.61644L19.464 1.55911L19.4646 2.46107C19.4653 3.5163 19.5762 3.94046 19.9568 4.34274C20.421 4.83347 20.9177 4.97445 22.1909 4.97676L23.3088 4.97879L23.2468 4.72489C23.2126 4.58519 23.0264 4.17701 22.8329 3.81775ZM19.2135 13.6295C19.5208 13.3118 19.5318 13.0207 19.2488 12.7007L19.0337 12.4574H12.5013C6.10734 12.4574 5.9646 12.4613 5.76135 12.6421C5.49508 12.8789 5.49061 13.3833 5.75221 13.6706L5.95059 13.8885H12.4568H18.9629L19.2135 13.6295ZM14.1064 17.4201C14.4894 17.1137 14.5087 16.636 14.1502 16.3389C13.9298 16.1562 13.8048 16.1506 9.96412 16.1506H6.00519L5.77941 16.3643C5.45023 16.676 5.47307 17.1888 5.82726 17.4365C6.09291 17.6223 6.2127 17.6279 9.97377 17.6279C13.8441 17.6279 13.847 17.6277 14.1064 17.4201ZM28.3004 22.7518C28.3843 22.5981 28.0762 22.064 26.4894 19.6126L24.5773 16.6584L20.7252 16.6342L16.873 16.61L16.6299 16.9574C15.9646 17.9084 12.979 22.5685 12.9989 22.6249C13.0115 22.6606 13.8707 24.0026 14.9083 25.6073L16.7947 28.5249L20.6833 28.5007L24.572 28.4765L26.3856 25.7067C27.383 24.1832 28.2447 22.8535 28.3004 22.7518ZM11.735 21.0944C12.1309 20.7423 12.0133 20.1517 11.5064 19.9463C11.1761 19.8125 6.319 19.8173 6.00675 19.9518C5.52757 20.1582 5.42449 20.7528 5.80858 21.0944L6.06332 21.321H8.77178H11.4802L11.735 21.0944ZM16.4284 22.8799V23.6299L19.4284 24.951V24.088L17.4021 23.2746V23.2353L19.4284 22.4218V21.5589L16.4284 22.8799ZM20.824 25.6562L22.2302 20.4318H21.4482L20.042 25.6562H20.824ZM22.8444 24.951L25.8444 23.6299V22.8799L22.8444 21.5589V22.4218L24.8707 23.2353V23.2746L22.8444 24.088V24.951Z" fill="url(#paint0_linear_965_565)"/>
<defs>
<linearGradient id="paint0_linear_965_565" x1="15" y1="0" x2="15" y2="30" gradientUnits="userSpaceOnUse">
<stop stop-color="#91D2FF"/>
<stop offset="1" stop-color="#1AA2FE"/>
</linearGradient>
</defs>
</svg>
