<svg width="18" height="18" viewBox="0 0 18 18" fill="none" xmlns="http://www.w3.org/2000/svg">
<path fill-rule="evenodd" clip-rule="evenodd" d="M1.54839 0.0365631C0.866676 0.176305 0.310734 0.666652 0.0813608 1.33056L0 1.56599V9.00881V16.4516L0.0803755 16.6842C0.281913 17.2671 0.732001 17.7179 1.31296 17.9187L1.54839 18H6.84459H12.1408L12.3762 17.9187C12.9533 17.7193 13.3896 17.2857 13.6073 16.6952C13.6771 16.5058 13.6854 16.4041 13.6985 15.5773C13.7123 14.7074 13.7101 14.6686 13.6483 14.6869C13.6127 14.6975 13.4597 14.7227 13.3083 14.7431C11.5938 14.9735 9.8618 14.0717 9.04541 12.5233C8.71342 11.8936 8.56893 11.2974 8.56893 10.5572C8.56893 9.49782 8.89983 8.60039 9.58752 7.79473C10.4838 6.74472 11.9404 6.18747 13.3083 6.37131C13.4597 6.39168 13.6113 6.41649 13.6452 6.42649C13.7028 6.44345 13.7068 6.38359 13.7068 5.5097V4.57479H11.6265H9.54624L9.40587 4.49589C9.32349 4.44958 9.2379 4.36294 9.19874 4.28615C9.13543 4.16204 9.13198 4.04816 9.13198 2.07766V0L5.41057 0.00387097C3.36381 0.00598241 1.62581 0.0206921 1.54839 0.0365631ZM10.1877 1.91789V3.51907H11.7975H13.4074L11.8065 1.91789C10.926 1.03725 10.2016 0.316716 10.1966 0.316716C10.1917 0.316716 10.1877 1.03725 10.1877 1.91789ZM8.85137 5.70135C9.00751 5.78102 9.13198 5.98375 9.13198 6.15837C9.13198 6.33298 9.00751 6.53572 8.85137 6.61539C8.71529 6.68479 8.64997 6.68623 5.61031 6.68623H2.50811L2.36773 6.60733C2.01358 6.40829 2.00999 5.9266 2.36105 5.71409L2.49854 5.63086L5.60552 5.63068C8.65015 5.63051 8.71529 5.63192 8.85137 5.70135ZM12.3695 7.41059C11.5698 7.55368 10.9588 7.87328 10.463 8.408C9.89164 9.02409 9.62465 9.70858 9.62465 10.5572C9.62465 11.4058 9.89164 12.0903 10.463 12.7064C11.496 13.8204 13.1112 14.0373 14.4542 13.2424L14.621 13.1437L15.897 14.4157C16.5988 15.1153 17.2076 15.7052 17.2499 15.7265C17.3586 15.7815 17.5984 15.7747 17.7171 15.7133C17.8513 15.6439 17.958 15.5031 17.9849 15.3599C18.036 15.0874 18.035 15.0862 16.6545 13.7013L15.3511 12.3939L15.4219 12.2937C15.5453 12.119 15.7012 11.7811 15.801 11.4722C15.9303 11.0722 15.9629 10.3689 15.8732 9.9206C15.7614 9.36251 15.4952 8.84989 15.0909 8.41384C14.6701 7.9601 14.1332 7.63909 13.5308 7.48112C13.31 7.42319 12.5552 7.37737 12.3695 7.41059ZM7.44374 7.81279C7.59988 7.89246 7.72435 8.09519 7.72435 8.26981C7.72435 8.44442 7.59988 8.64716 7.44374 8.72683C7.30858 8.79577 7.24076 8.79767 4.9065 8.79767H2.50811L2.36773 8.71877C2.21103 8.63069 2.09385 8.43862 2.09385 8.26981C2.09385 8.10058 2.21838 7.89295 2.36696 7.81451C2.49414 7.74737 2.57856 7.74501 4.90171 7.7435C7.24238 7.74198 7.30847 7.74378 7.44374 7.81279ZM7.44374 9.92423C7.59988 10.0039 7.72435 10.2066 7.72435 10.3812C7.72435 10.5559 7.59988 10.7586 7.44374 10.8383C7.30858 10.9072 7.24076 10.9091 4.9091 10.9091C2.57744 10.9091 2.50962 10.9072 2.37446 10.8383C2.01572 10.6552 2.00823 10.1505 2.36105 9.93697L2.49854 9.85374L4.90171 9.85357C7.24097 9.85339 7.30858 9.85529 7.44374 9.92423ZM7.44374 12.0357C7.59988 12.1153 7.72435 12.3181 7.72435 12.4927C7.72435 12.6673 7.59988 12.87 7.44374 12.9497C7.30858 13.0187 7.24076 13.0205 4.9065 13.0205H2.50811L2.36773 12.9417C2.01358 12.7426 2.00999 12.2609 2.36105 12.0484L2.49854 11.9652L4.90171 11.965C7.24097 11.9648 7.30858 11.9667 7.44374 12.0357Z" fill="url(#paint0_linear_858_4741)"/>
<defs>
<linearGradient id="paint0_linear_858_4741" x1="1.86486" y1="-1.24499e-07" x2="11.1892" y2="18.8108" gradientUnits="userSpaceOnUse">
<stop stop-color="#BBE897"/>
<stop offset="1" stop-color="#08CD87"/>
</linearGradient>
</defs>
</svg>
