<svg width="42" height="42" viewBox="0 0 42 42" fill="none" xmlns="http://www.w3.org/2000/svg">
<circle cx="21" cy="21" r="21" fill="#2FB44B"/>
<g clip-path="url(#clip0_1017_589)">
<path d="M14.2417 29.1487C14.2167 28.7088 14.4667 28.3656 14.5334 27.9609C14.775 26.5355 13.9084 25.1276 12.5667 24.8109C12.3667 24.7669 12.1584 24.7493 11.9584 24.6789C11.425 24.4941 11.175 24.0542 11.1 23.4998C10.9417 22.3472 10.975 21.1945 11.1834 20.0506C11.2917 19.4787 11.675 19.1092 12.2584 18.9948C13.9 18.6692 14.7917 17.4462 14.5834 15.8007C14.5584 15.5896 14.4834 15.3784 14.4167 15.1672C14.2417 14.5865 14.3834 14.085 14.8167 13.7066C15.6334 13.0027 16.55 12.4572 17.55 12.0876C18.0834 11.8852 18.55 12.0348 18.9417 12.4835C20.1917 13.9178 21.8167 13.9266 23.05 12.5011C23.4667 12.0172 23.925 11.894 24.5084 12.1228C25.5334 12.5187 26.4584 13.0907 27.3 13.821C27.8 14.2521 27.9334 14.7713 27.7334 15.4224C27.225 17.0942 28.05 18.6516 29.675 19.0388C30.3667 19.2059 30.7584 19.5843 30.875 20.341C31.0584 21.5113 31.05 22.6727 30.825 23.8342C30.7 24.4853 30.25 24.7845 29.65 24.8989C28.5084 25.1276 27.825 25.8667 27.55 27.0458C27.4334 27.5561 27.4917 28.0577 27.6584 28.5504C27.9084 29.2983 27.7667 29.7823 27.1667 30.2838C26.4584 30.8733 25.6917 31.3661 24.8584 31.7356C24.1334 32.0612 23.675 31.9468 23.1667 31.3133C22.025 29.8879 20.1417 29.9319 19.0417 31.4013C18.5834 32.0084 18.125 32.1404 17.4334 31.8676C16.4584 31.4805 15.5667 30.9261 14.75 30.231C14.425 29.9407 14.2084 29.6063 14.2417 29.1487ZM21.0334 18.4756C19.1917 18.4668 17.6834 20.033 17.675 21.96C17.6667 23.9134 19.1584 25.5148 21 25.5148C22.8334 25.5148 24.325 23.9398 24.3417 22.0128C24.35 20.0858 22.85 18.4844 21.0334 18.4756Z" fill="url(#paint0_linear_1017_589)"/>
</g>
<defs>
<linearGradient id="paint0_linear_1017_589" x1="14.7944" y1="11.999" x2="29.9923" y2="29.2477" gradientUnits="userSpaceOnUse">
<stop stop-color="white"/>
<stop offset="1" stop-color="white" stop-opacity="0.33"/>
</linearGradient>
<clipPath id="clip0_1017_589">
<rect width="20" height="20" fill="white" transform="translate(11 12)"/>
</clipPath>
</defs>
</svg>
